solid OpenSCAD_Model
  facet normal 0.951056 -0.309019 0
    outer loop
      vertex 22.0628 17.9974 2
      vertex 22.1404 18.2362 0
      vertex 22.1404 18.2362 2
    endloop
  endfacet
  facet normal 0.951056 -0.309019 0
    outer loop
      vertex 22.1404 18.2362 0
      vertex 22.0628 17.9974 2
      vertex 22.0628 17.9974 0
    endloop
  endfacet
  facet normal -0.844331 -0.535822 0
    outer loop
      vertex 25.7526 18.4635 0
      vertex 25.618 18.6756 2
      vertex 25.618 18.6756 0
    endloop
  endfacet
  facet normal -0.844331 -0.535822 0
    outer loop
      vertex 25.618 18.6756 2
      vertex 25.7526 18.4635 0
      vertex 25.7526 18.4635 2
    endloop
  endfacet
  facet normal -0.368124 -0.929777 0
    outer loop
      vertex 24.618 19.4021 0
      vertex 24.8516 19.3097 2
      vertex 24.618 19.4021 2
    endloop
  endfacet
  facet normal -0.368124 -0.929777 -0
    outer loop
      vertex 24.8516 19.3097 2
      vertex 24.618 19.4021 0
      vertex 24.8516 19.3097 0
    endloop
  endfacet
  facet normal 0.368124 -0.929777 0
    outer loop
      vertex 23.1484 19.3097 0
      vertex 23.382 19.4021 2
      vertex 23.1484 19.3097 2
    endloop
  endfacet
  facet normal 0.368124 -0.929777 0
    outer loop
      vertex 23.382 19.4021 2
      vertex 23.1484 19.3097 0
      vertex 23.382 19.4021 0
    endloop
  endfacet
  facet normal 0.904828 -0.425778 0
    outer loop
      vertex 22.1404 18.2362 2
      vertex 22.2474 18.4635 0
      vertex 22.2474 18.4635 2
    endloop
  endfacet
  facet normal 0.904828 -0.425778 0
    outer loop
      vertex 22.2474 18.4635 0
      vertex 22.1404 18.2362 2
      vertex 22.1404 18.2362 0
    endloop
  endfacet
  facet normal -0.982287 0.187384 0
    outer loop
      vertex 25.9372 17.0026 0
      vertex 25.9842 17.2493 2
      vertex 25.9842 17.2493 0
    endloop
  endfacet
  facet normal -0.982287 0.187384 0
    outer loop
      vertex 25.9842 17.2493 2
      vertex 25.9372 17.0026 0
      vertex 25.9372 17.0026 2
    endloop
  endfacet
  facet normal -0.982287 -0.187384 0
    outer loop
      vertex 25.9842 17.7507 0
      vertex 25.9372 17.9974 2
      vertex 25.9372 17.9974 0
    endloop
  endfacet
  facet normal -0.982287 -0.187384 0
    outer loop
      vertex 25.9372 17.9974 2
      vertex 25.9842 17.7507 0
      vertex 25.9842 17.7507 2
    endloop
  endfacet
  facet normal -0.684545 -0.72897 0
    outer loop
      vertex 25.2748 19.041 0
      vertex 25.4579 18.8691 2
      vertex 25.2748 19.041 2
    endloop
  endfacet
  facet normal -0.684545 -0.72897 -0
    outer loop
      vertex 25.4579 18.8691 2
      vertex 25.2748 19.041 0
      vertex 25.4579 18.8691 0
    endloop
  endfacet
  facet normal 0 -1 0
    outer loop
      vertex 23.8744 19.4961 0
      vertex 24.1256 19.4961 2
      vertex 23.8744 19.4961 2
    endloop
  endfacet
  facet normal 0 -1 -0
    outer loop
      vertex 24.1256 19.4961 2
      vertex 23.8744 19.4961 0
      vertex 24.1256 19.4961 0
    endloop
  endfacet
  facet normal -0.587785 -0.809017 0
    outer loop
      vertex 25.0717 19.1887 0
      vertex 25.2748 19.041 2
      vertex 25.0717 19.1887 2
    endloop
  endfacet
  facet normal -0.587785 -0.809017 -0
    outer loop
      vertex 25.2748 19.041 2
      vertex 25.0717 19.1887 0
      vertex 25.2748 19.041 0
    endloop
  endfacet
  facet normal 0.982287 -0.187384 0
    outer loop
      vertex 22.0158 17.7507 2
      vertex 22.0628 17.9974 0
      vertex 22.0628 17.9974 2
    endloop
  endfacet
  facet normal 0.982287 -0.187384 0
    outer loop
      vertex 22.0628 17.9974 0
      vertex 22.0158 17.7507 2
      vertex 22.0158 17.7507 0
    endloop
  endfacet
  facet normal 0.770512 -0.637425 0
    outer loop
      vertex 22.382 18.6756 2
      vertex 22.5421 18.8691 0
      vertex 22.5421 18.8691 2
    endloop
  endfacet
  facet normal 0.770512 -0.637425 0
    outer loop
      vertex 22.5421 18.8691 0
      vertex 22.382 18.6756 2
      vertex 22.382 18.6756 0
    endloop
  endfacet
  facet normal 0.481755 -0.876306 0
    outer loop
      vertex 22.9283 19.1887 0
      vertex 23.1484 19.3097 2
      vertex 22.9283 19.1887 2
    endloop
  endfacet
  facet normal 0.481755 -0.876306 0
    outer loop
      vertex 23.1484 19.3097 2
      vertex 22.9283 19.1887 0
      vertex 23.1484 19.3097 0
    endloop
  endfacet
  facet normal 0.248685 -0.968585 0
    outer loop
      vertex 23.382 19.4021 0
      vertex 23.6252 19.4646 2
      vertex 23.382 19.4021 2
    endloop
  endfacet
  facet normal 0.248685 -0.968585 0
    outer loop
      vertex 23.6252 19.4646 2
      vertex 23.382 19.4021 0
      vertex 23.6252 19.4646 0
    endloop
  endfacet
  facet normal -0.998027 -0.0627882 0
    outer loop
      vertex 26 17.5 0
      vertex 25.9842 17.7507 2
      vertex 25.9842 17.7507 0
    endloop
  endfacet
  facet normal -0.998027 -0.0627882 0
    outer loop
      vertex 25.9842 17.7507 2
      vertex 26 17.5 0
      vertex 26 17.5 2
    endloop
  endfacet
  facet normal 0.684543 0.728972 -0
    outer loop
      vertex 22.7252 15.959 0
      vertex 22.5421 16.1309 2
      vertex 22.7252 15.959 2
    endloop
  endfacet
  facet normal 0.684543 0.728972 0
    outer loop
      vertex 22.5421 16.1309 2
      vertex 22.7252 15.959 0
      vertex 22.5421 16.1309 0
    endloop
  endfacet
  facet normal 0.904828 0.425778 0
    outer loop
      vertex 22.2474 16.5365 2
      vertex 22.1404 16.7638 0
      vertex 22.1404 16.7638 2
    endloop
  endfacet
  facet normal 0.904828 0.425778 0
    outer loop
      vertex 22.1404 16.7638 0
      vertex 22.2474 16.5365 2
      vertex 22.2474 16.5365 0
    endloop
  endfacet
  facet normal -0.481755 0.876306 0
    outer loop
      vertex 25.0717 15.8113 0
      vertex 24.8516 15.6903 2
      vertex 25.0717 15.8113 2
    endloop
  endfacet
  facet normal -0.481755 0.876306 0
    outer loop
      vertex 24.8516 15.6903 2
      vertex 25.0717 15.8113 0
      vertex 24.8516 15.6903 0
    endloop
  endfacet
  facet normal -0.770512 -0.637425 0
    outer loop
      vertex 25.618 18.6756 0
      vertex 25.4579 18.8691 2
      vertex 25.4579 18.8691 0
    endloop
  endfacet
  facet normal -0.770512 -0.637425 0
    outer loop
      vertex 25.4579 18.8691 2
      vertex 25.618 18.6756 0
      vertex 25.618 18.6756 2
    endloop
  endfacet
  facet normal -0.248685 -0.968585 0
    outer loop
      vertex 24.3748 19.4646 0
      vertex 24.618 19.4021 2
      vertex 24.3748 19.4646 2
    endloop
  endfacet
  facet normal -0.248685 -0.968585 -0
    outer loop
      vertex 24.618 19.4021 2
      vertex 24.3748 19.4646 0
      vertex 24.618 19.4021 0
    endloop
  endfacet
  facet normal -0.125332 -0.992115 0
    outer loop
      vertex 24.1256 19.4961 0
      vertex 24.3748 19.4646 2
      vertex 24.1256 19.4961 2
    endloop
  endfacet
  facet normal -0.125332 -0.992115 -0
    outer loop
      vertex 24.3748 19.4646 2
      vertex 24.1256 19.4961 0
      vertex 24.3748 19.4646 0
    endloop
  endfacet
  facet normal -0.481755 -0.876306 0
    outer loop
      vertex 24.8516 19.3097 0
      vertex 25.0717 19.1887 2
      vertex 24.8516 19.3097 2
    endloop
  endfacet
  facet normal -0.481755 -0.876306 -0
    outer loop
      vertex 25.0717 19.1887 2
      vertex 24.8516 19.3097 0
      vertex 25.0717 19.1887 0
    endloop
  endfacet
  facet normal 0.998027 -0.0627882 0
    outer loop
      vertex 22 17.5 2
      vertex 22.0158 17.7507 0
      vertex 22.0158 17.7507 2
    endloop
  endfacet
  facet normal 0.998027 -0.0627882 0
    outer loop
      vertex 22.0158 17.7507 0
      vertex 22 17.5 2
      vertex 22 17.5 0
    endloop
  endfacet
  facet normal 0.844331 -0.535822 0
    outer loop
      vertex 22.2474 18.4635 2
      vertex 22.382 18.6756 0
      vertex 22.382 18.6756 2
    endloop
  endfacet
  facet normal 0.844331 -0.535822 0
    outer loop
      vertex 22.382 18.6756 0
      vertex 22.2474 18.4635 2
      vertex 22.2474 18.4635 0
    endloop
  endfacet
  facet normal 0.125332 -0.992115 0
    outer loop
      vertex 23.6252 19.4646 0
      vertex 23.8744 19.4961 2
      vertex 23.6252 19.4646 2
    endloop
  endfacet
  facet normal 0.125332 -0.992115 0
    outer loop
      vertex 23.8744 19.4961 2
      vertex 23.6252 19.4646 0
      vertex 23.8744 19.4961 0
    endloop
  endfacet
  facet normal 0.587785 -0.809017 0
    outer loop
      vertex 22.7252 19.041 0
      vertex 22.9283 19.1887 2
      vertex 22.7252 19.041 2
    endloop
  endfacet
  facet normal 0.587785 -0.809017 0
    outer loop
      vertex 22.9283 19.1887 2
      vertex 22.7252 19.041 0
      vertex 22.9283 19.1887 0
    endloop
  endfacet
  facet normal 0.684545 -0.72897 0
    outer loop
      vertex 22.5421 18.8691 0
      vertex 22.7252 19.041 2
      vertex 22.5421 18.8691 2
    endloop
  endfacet
  facet normal 0.684545 -0.72897 0
    outer loop
      vertex 22.7252 19.041 2
      vertex 22.5421 18.8691 0
      vertex 22.7252 19.041 0
    endloop
  endfacet
  facet normal 0 1 -0
    outer loop
      vertex 24.1256 15.5039 0
      vertex 23.8744 15.5039 2
      vertex 24.1256 15.5039 2
    endloop
  endfacet
  facet normal 0 1 0
    outer loop
      vertex 23.8744 15.5039 2
      vertex 24.1256 15.5039 0
      vertex 23.8744 15.5039 0
    endloop
  endfacet
  facet normal 0.951056 0.309019 0
    outer loop
      vertex 22.1404 16.7638 2
      vertex 22.0628 17.0026 0
      vertex 22.0628 17.0026 2
    endloop
  endfacet
  facet normal 0.951056 0.309019 0
    outer loop
      vertex 22.0628 17.0026 0
      vertex 22.1404 16.7638 2
      vertex 22.1404 16.7638 0
    endloop
  endfacet
  facet normal 0.844331 0.535822 0
    outer loop
      vertex 22.382 16.3244 2
      vertex 22.2474 16.5365 0
      vertex 22.2474 16.5365 2
    endloop
  endfacet
  facet normal 0.844331 0.535822 0
    outer loop
      vertex 22.2474 16.5365 0
      vertex 22.382 16.3244 2
      vertex 22.382 16.3244 0
    endloop
  endfacet
  facet normal -0.125332 0.992115 0
    outer loop
      vertex 24.3748 15.5354 0
      vertex 24.1256 15.5039 2
      vertex 24.3748 15.5354 2
    endloop
  endfacet
  facet normal -0.125332 0.992115 0
    outer loop
      vertex 24.1256 15.5039 2
      vertex 24.3748 15.5354 0
      vertex 24.1256 15.5039 0
    endloop
  endfacet
  facet normal -0.904828 -0.425778 0
    outer loop
      vertex 25.8596 18.2362 0
      vertex 25.7526 18.4635 2
      vertex 25.7526 18.4635 0
    endloop
  endfacet
  facet normal -0.904828 -0.425778 0
    outer loop
      vertex 25.7526 18.4635 2
      vertex 25.8596 18.2362 0
      vertex 25.8596 18.2362 2
    endloop
  endfacet
  facet normal -0.951056 -0.309019 0
    outer loop
      vertex 25.9372 17.9974 0
      vertex 25.8596 18.2362 2
      vertex 25.8596 18.2362 0
    endloop
  endfacet
  facet normal -0.951056 -0.309019 0
    outer loop
      vertex 25.8596 18.2362 2
      vertex 25.9372 17.9974 0
      vertex 25.9372 17.9974 2
    endloop
  endfacet
  facet normal -0.998027 0.0627882 0
    outer loop
      vertex 25.9842 17.2493 0
      vertex 26 17.5 2
      vertex 26 17.5 0
    endloop
  endfacet
  facet normal -0.998027 0.0627882 0
    outer loop
      vertex 26 17.5 2
      vertex 25.9842 17.2493 0
      vertex 25.9842 17.2493 2
    endloop
  endfacet
  facet normal -0.904828 0.425778 0
    outer loop
      vertex 25.7526 16.5365 0
      vertex 25.8596 16.7638 2
      vertex 25.8596 16.7638 0
    endloop
  endfacet
  facet normal -0.904828 0.425778 0
    outer loop
      vertex 25.8596 16.7638 2
      vertex 25.7526 16.5365 0
      vertex 25.7526 16.5365 2
    endloop
  endfacet
  facet normal -0.951056 0.309019 0
    outer loop
      vertex 25.8596 16.7638 0
      vertex 25.9372 17.0026 2
      vertex 25.9372 17.0026 0
    endloop
  endfacet
  facet normal -0.951056 0.309019 0
    outer loop
      vertex 25.9372 17.0026 2
      vertex 25.8596 16.7638 0
      vertex 25.8596 16.7638 2
    endloop
  endfacet
  facet normal 0.368128 0.929775 -0
    outer loop
      vertex 23.382 15.5979 0
      vertex 23.1484 15.6903 2
      vertex 23.382 15.5979 2
    endloop
  endfacet
  facet normal 0.368128 0.929775 0
    outer loop
      vertex 23.1484 15.6903 2
      vertex 23.382 15.5979 0
      vertex 23.1484 15.6903 0
    endloop
  endfacet
  facet normal 0.248688 0.968584 -0
    outer loop
      vertex 23.6252 15.5354 0
      vertex 23.382 15.5979 2
      vertex 23.6252 15.5354 2
    endloop
  endfacet
  facet normal 0.248688 0.968584 0
    outer loop
      vertex 23.382 15.5979 2
      vertex 23.6252 15.5354 0
      vertex 23.382 15.5979 0
    endloop
  endfacet
  facet normal 0.998027 0.0627882 0
    outer loop
      vertex 22.0158 17.2493 2
      vertex 22 17.5 0
      vertex 22 17.5 2
    endloop
  endfacet
  facet normal 0.998027 0.0627882 0
    outer loop
      vertex 22 17.5 0
      vertex 22.0158 17.2493 2
      vertex 22.0158 17.2493 0
    endloop
  endfacet
  facet normal 0.770512 0.637425 0
    outer loop
      vertex 22.5421 16.1309 2
      vertex 22.382 16.3244 0
      vertex 22.382 16.3244 2
    endloop
  endfacet
  facet normal 0.770512 0.637425 0
    outer loop
      vertex 22.382 16.3244 0
      vertex 22.5421 16.1309 2
      vertex 22.5421 16.1309 0
    endloop
  endfacet
  facet normal -0.368128 0.929775 0
    outer loop
      vertex 24.8516 15.6903 0
      vertex 24.618 15.5979 2
      vertex 24.8516 15.6903 2
    endloop
  endfacet
  facet normal -0.368128 0.929775 0
    outer loop
      vertex 24.618 15.5979 2
      vertex 24.8516 15.6903 0
      vertex 24.618 15.5979 0
    endloop
  endfacet
  facet normal -0.248688 0.968584 0
    outer loop
      vertex 24.618 15.5979 0
      vertex 24.3748 15.5354 2
      vertex 24.618 15.5979 2
    endloop
  endfacet
  facet normal -0.248688 0.968584 0
    outer loop
      vertex 24.3748 15.5354 2
      vertex 24.618 15.5979 0
      vertex 24.3748 15.5354 0
    endloop
  endfacet
  facet normal -0.587785 0.809017 0
    outer loop
      vertex 25.2748 15.959 0
      vertex 25.0717 15.8113 2
      vertex 25.2748 15.959 2
    endloop
  endfacet
  facet normal -0.587785 0.809017 0
    outer loop
      vertex 25.0717 15.8113 2
      vertex 25.2748 15.959 0
      vertex 25.0717 15.8113 0
    endloop
  endfacet
  facet normal -0.844331 0.535822 0
    outer loop
      vertex 25.618 16.3244 0
      vertex 25.7526 16.5365 2
      vertex 25.7526 16.5365 0
    endloop
  endfacet
  facet normal -0.844331 0.535822 0
    outer loop
      vertex 25.7526 16.5365 2
      vertex 25.618 16.3244 0
      vertex 25.618 16.3244 2
    endloop
  endfacet
  facet normal -0.770512 0.637425 0
    outer loop
      vertex 25.4579 16.1309 0
      vertex 25.618 16.3244 2
      vertex 25.618 16.3244 0
    endloop
  endfacet
  facet normal -0.770512 0.637425 0
    outer loop
      vertex 25.618 16.3244 2
      vertex 25.4579 16.1309 0
      vertex 25.4579 16.1309 2
    endloop
  endfacet
  facet normal 0.481755 0.876306 -0
    outer loop
      vertex 23.1484 15.6903 0
      vertex 22.9283 15.8113 2
      vertex 23.1484 15.6903 2
    endloop
  endfacet
  facet normal 0.481755 0.876306 0
    outer loop
      vertex 22.9283 15.8113 2
      vertex 23.1484 15.6903 0
      vertex 22.9283 15.8113 0
    endloop
  endfacet
  facet normal 0.982287 0.187384 0
    outer loop
      vertex 22.0628 17.0026 2
      vertex 22.0158 17.2493 0
      vertex 22.0158 17.2493 2
    endloop
  endfacet
  facet normal 0.982287 0.187384 0
    outer loop
      vertex 22.0158 17.2493 0
      vertex 22.0628 17.0026 2
      vertex 22.0628 17.0026 0
    endloop
  endfacet
  facet normal -0.684543 0.728972 0
    outer loop
      vertex 25.4579 16.1309 0
      vertex 25.2748 15.959 2
      vertex 25.4579 16.1309 2
    endloop
  endfacet
  facet normal -0.684543 0.728972 0
    outer loop
      vertex 25.2748 15.959 2
      vertex 25.4579 16.1309 0
      vertex 25.2748 15.959 0
    endloop
  endfacet
  facet normal 0.125332 0.992115 -0
    outer loop
      vertex 23.8744 15.5039 0
      vertex 23.6252 15.5354 2
      vertex 23.8744 15.5039 2
    endloop
  endfacet
  facet normal 0.125332 0.992115 0
    outer loop
      vertex 23.6252 15.5354 2
      vertex 23.8744 15.5039 0
      vertex 23.6252 15.5354 0
    endloop
  endfacet
  facet normal 0.587785 0.809017 -0
    outer loop
      vertex 22.9283 15.8113 0
      vertex 22.7252 15.959 2
      vertex 22.9283 15.8113 2
    endloop
  endfacet
  facet normal 0.587785 0.809017 0
    outer loop
      vertex 22.7252 15.959 2
      vertex 22.9283 15.8113 0
      vertex 22.7252 15.959 0
    endloop
  endfacet
  facet normal -0.844329 -0.535825 0
    outer loop
      vertex 25.7526 53.4635 0
      vertex 25.618 53.6756 2
      vertex 25.618 53.6756 0
    endloop
  endfacet
  facet normal -0.844329 -0.535825 0
    outer loop
      vertex 25.618 53.6756 2
      vertex 25.7526 53.4635 0
      vertex 25.7526 53.4635 2
    endloop
  endfacet
  facet normal -0.368131 -0.929774 0
    outer loop
      vertex 24.618 54.4021 0
      vertex 24.8516 54.3097 2
      vertex 24.618 54.4021 2
    endloop
  endfacet
  facet normal -0.368131 -0.929774 -0
    outer loop
      vertex 24.8516 54.3097 2
      vertex 24.618 54.4021 0
      vertex 24.8516 54.3097 0
    endloop
  endfacet
  facet normal 0.481755 -0.876306 0
    outer loop
      vertex 22.9283 54.1887 0
      vertex 23.1484 54.3097 2
      vertex 22.9283 54.1887 2
    endloop
  endfacet
  facet normal 0.481755 -0.876306 0
    outer loop
      vertex 23.1484 54.3097 2
      vertex 22.9283 54.1887 0
      vertex 23.1484 54.3097 0
    endloop
  endfacet
  facet normal 0.951056 -0.309019 0
    outer loop
      vertex 22.0628 52.9974 2
      vertex 22.1404 53.2362 0
      vertex 22.1404 53.2362 2
    endloop
  endfacet
  facet normal 0.951056 -0.309019 0
    outer loop
      vertex 22.1404 53.2362 0
      vertex 22.0628 52.9974 2
      vertex 22.0628 52.9974 0
    endloop
  endfacet
  facet normal -0.982286 0.187385 0
    outer loop
      vertex 25.9372 52.0026 0
      vertex 25.9842 52.2493 2
      vertex 25.9842 52.2493 0
    endloop
  endfacet
  facet normal -0.982286 0.187385 0
    outer loop
      vertex 25.9842 52.2493 2
      vertex 25.9372 52.0026 0
      vertex 25.9372 52.0026 2
    endloop
  endfacet
  facet normal -0.982287 -0.187383 0
    outer loop
      vertex 25.9842 52.7507 0
      vertex 25.9372 52.9974 2
      vertex 25.9372 52.9974 0
    endloop
  endfacet
  facet normal -0.982287 -0.187383 0
    outer loop
      vertex 25.9372 52.9974 2
      vertex 25.9842 52.7507 0
      vertex 25.9842 52.7507 2
    endloop
  endfacet
  facet normal -0.684545 -0.72897 0
    outer loop
      vertex 25.2748 54.041 0
      vertex 25.4579 53.8691 2
      vertex 25.2748 54.041 2
    endloop
  endfacet
  facet normal -0.684545 -0.72897 -0
    outer loop
      vertex 25.4579 53.8691 2
      vertex 25.2748 54.041 0
      vertex 25.4579 53.8691 0
    endloop
  endfacet
  facet normal -0.587785 -0.809017 0
    outer loop
      vertex 25.0717 54.1887 0
      vertex 25.2748 54.041 2
      vertex 25.0717 54.1887 2
    endloop
  endfacet
  facet normal -0.587785 -0.809017 -0
    outer loop
      vertex 25.2748 54.041 2
      vertex 25.0717 54.1887 0
      vertex 25.2748 54.041 0
    endloop
  endfacet
  facet normal 0.998027 0.0627877 0
    outer loop
      vertex 22.0158 52.2493 2
      vertex 22 52.5 0
      vertex 22 52.5 2
    endloop
  endfacet
  facet normal 0.998027 0.0627877 0
    outer loop
      vertex 22 52.5 0
      vertex 22.0158 52.2493 2
      vertex 22.0158 52.2493 0
    endloop
  endfacet
  facet normal 0.844329 -0.535825 0
    outer loop
      vertex 22.2474 53.4635 2
      vertex 22.382 53.6756 0
      vertex 22.382 53.6756 2
    endloop
  endfacet
  facet normal 0.844329 -0.535825 0
    outer loop
      vertex 22.382 53.6756 0
      vertex 22.2474 53.4635 2
      vertex 22.2474 53.4635 0
    endloop
  endfacet
  facet normal 0.248678 -0.968586 0
    outer loop
      vertex 23.382 54.4021 0
      vertex 23.6252 54.4646 2
      vertex 23.382 54.4021 2
    endloop
  endfacet
  facet normal 0.248678 -0.968586 0
    outer loop
      vertex 23.6252 54.4646 2
      vertex 23.382 54.4021 0
      vertex 23.6252 54.4646 0
    endloop
  endfacet
  facet normal 0.770512 -0.637425 0
    outer loop
      vertex 22.382 53.6756 2
      vertex 22.5421 53.8691 0
      vertex 22.5421 53.8691 2
    endloop
  endfacet
  facet normal 0.770512 -0.637425 0
    outer loop
      vertex 22.5421 53.8691 0
      vertex 22.382 53.6756 2
      vertex 22.382 53.6756 0
    endloop
  endfacet
  facet normal -0.998027 -0.0627887 0
    outer loop
      vertex 26 52.5 0
      vertex 25.9842 52.7507 2
      vertex 25.9842 52.7507 0
    endloop
  endfacet
  facet normal -0.998027 -0.0627887 0
    outer loop
      vertex 25.9842 52.7507 2
      vertex 26 52.5 0
      vertex 26 52.5 2
    endloop
  endfacet
  facet normal -0.951057 0.309015 0
    outer loop
      vertex 25.8596 51.7637 0
      vertex 25.9372 52.0026 2
      vertex 25.9372 52.0026 0
    endloop
  endfacet
  facet normal -0.951057 0.309015 0
    outer loop
      vertex 25.9372 52.0026 2
      vertex 25.8596 51.7637 0
      vertex 25.8596 51.7637 2
    endloop
  endfacet
  facet normal 0.587785 0.809017 -0
    outer loop
      vertex 22.9283 50.8113 0
      vertex 22.7252 50.959 2
      vertex 22.9283 50.8113 2
    endloop
  endfacet
  facet normal 0.587785 0.809017 0
    outer loop
      vertex 22.7252 50.959 2
      vertex 22.9283 50.8113 0
      vertex 22.7252 50.959 0
    endloop
  endfacet
  facet normal -0.770512 -0.637425 0
    outer loop
      vertex 25.618 53.6756 0
      vertex 25.4579 53.8691 2
      vertex 25.4579 53.8691 0
    endloop
  endfacet
  facet normal -0.770512 -0.637425 0
    outer loop
      vertex 25.4579 53.8691 2
      vertex 25.618 53.6756 0
      vertex 25.618 53.6756 2
    endloop
  endfacet
  facet normal 0.125332 -0.992115 0
    outer loop
      vertex 23.6252 54.4646 0
      vertex 23.8744 54.4961 2
      vertex 23.6252 54.4646 2
    endloop
  endfacet
  facet normal 0.125332 -0.992115 0
    outer loop
      vertex 23.8744 54.4961 2
      vertex 23.6252 54.4646 0
      vertex 23.8744 54.4961 0
    endloop
  endfacet
  facet normal -0.248678 -0.968586 0
    outer loop
      vertex 24.3748 54.4646 0
      vertex 24.618 54.4021 2
      vertex 24.3748 54.4646 2
    endloop
  endfacet
  facet normal -0.248678 -0.968586 -0
    outer loop
      vertex 24.618 54.4021 2
      vertex 24.3748 54.4646 0
      vertex 24.618 54.4021 0
    endloop
  endfacet
  facet normal -0.125332 -0.992115 0
    outer loop
      vertex 24.1256 54.4961 0
      vertex 24.3748 54.4646 2
      vertex 24.1256 54.4961 2
    endloop
  endfacet
  facet normal -0.125332 -0.992115 -0
    outer loop
      vertex 24.3748 54.4646 2
      vertex 24.1256 54.4961 0
      vertex 24.3748 54.4646 0
    endloop
  endfacet
  facet normal -0.481755 -0.876306 0
    outer loop
      vertex 24.8516 54.3097 0
      vertex 25.0717 54.1887 2
      vertex 24.8516 54.3097 2
    endloop
  endfacet
  facet normal -0.481755 -0.876306 -0
    outer loop
      vertex 25.0717 54.1887 2
      vertex 24.8516 54.3097 0
      vertex 25.0717 54.1887 0
    endloop
  endfacet
  facet normal 0.982287 -0.187383 0
    outer loop
      vertex 22.0158 52.7507 2
      vertex 22.0628 52.9974 0
      vertex 22.0628 52.9974 2
    endloop
  endfacet
  facet normal 0.982287 -0.187383 0
    outer loop
      vertex 22.0628 52.9974 0
      vertex 22.0158 52.7507 2
      vertex 22.0158 52.7507 0
    endloop
  endfacet
  facet normal 0.998027 -0.0627887 0
    outer loop
      vertex 22 52.5 2
      vertex 22.0158 52.7507 0
      vertex 22.0158 52.7507 2
    endloop
  endfacet
  facet normal 0.998027 -0.0627887 0
    outer loop
      vertex 22.0158 52.7507 0
      vertex 22 52.5 2
      vertex 22 52.5 0
    endloop
  endfacet
  facet normal 0.904829 -0.425775 0
    outer loop
      vertex 22.1404 53.2362 2
      vertex 22.2474 53.4635 0
      vertex 22.2474 53.4635 2
    endloop
  endfacet
  facet normal 0.904829 -0.425775 0
    outer loop
      vertex 22.2474 53.4635 0
      vertex 22.1404 53.2362 2
      vertex 22.1404 53.2362 0
    endloop
  endfacet
  facet normal 0.368131 -0.929774 0
    outer loop
      vertex 23.1484 54.3097 0
      vertex 23.382 54.4021 2
      vertex 23.1484 54.3097 2
    endloop
  endfacet
  facet normal 0.368131 -0.929774 0
    outer loop
      vertex 23.382 54.4021 2
      vertex 23.1484 54.3097 0
      vertex 23.382 54.4021 0
    endloop
  endfacet
  facet normal 0.684545 -0.72897 0
    outer loop
      vertex 22.5421 53.8691 0
      vertex 22.7252 54.041 2
      vertex 22.5421 53.8691 2
    endloop
  endfacet
  facet normal 0.684545 -0.72897 0
    outer loop
      vertex 22.7252 54.041 2
      vertex 22.5421 53.8691 0
      vertex 22.7252 54.041 0
    endloop
  endfacet
  facet normal 0.587785 -0.809017 0
    outer loop
      vertex 22.7252 54.041 0
      vertex 22.9283 54.1887 2
      vertex 22.7252 54.041 2
    endloop
  endfacet
  facet normal 0.587785 -0.809017 0
    outer loop
      vertex 22.9283 54.1887 2
      vertex 22.7252 54.041 0
      vertex 22.9283 54.1887 0
    endloop
  endfacet
  facet normal -0.998027 0.0627877 0
    outer loop
      vertex 25.9842 52.2493 0
      vertex 26 52.5 2
      vertex 26 52.5 0
    endloop
  endfacet
  facet normal -0.998027 0.0627877 0
    outer loop
      vertex 26 52.5 2
      vertex 25.9842 52.2493 0
      vertex 25.9842 52.2493 2
    endloop
  endfacet
  facet normal 0.982286 0.187385 0
    outer loop
      vertex 22.0628 52.0026 2
      vertex 22.0158 52.2493 0
      vertex 22.0158 52.2493 2
    endloop
  endfacet
  facet normal 0.982286 0.187385 0
    outer loop
      vertex 22.0158 52.2493 0
      vertex 22.0628 52.0026 2
      vertex 22.0628 52.0026 0
    endloop
  endfacet
  facet normal 0.684545 0.72897 -0
    outer loop
      vertex 22.7252 50.959 0
      vertex 22.5421 51.1309 2
      vertex 22.7252 50.959 2
    endloop
  endfacet
  facet normal 0.684545 0.72897 0
    outer loop
      vertex 22.5421 51.1309 2
      vertex 22.7252 50.959 0
      vertex 22.5421 51.1309 0
    endloop
  endfacet
  facet normal -0.248692 0.968583 0
    outer loop
      vertex 24.618 50.5979 0
      vertex 24.3748 50.5354 2
      vertex 24.618 50.5979 2
    endloop
  endfacet
  facet normal -0.248692 0.968583 0
    outer loop
      vertex 24.3748 50.5354 2
      vertex 24.618 50.5979 0
      vertex 24.3748 50.5354 0
    endloop
  endfacet
  facet normal -0.481755 0.876306 0
    outer loop
      vertex 25.0717 50.8113 0
      vertex 24.8516 50.6903 2
      vertex 25.0717 50.8113 2
    endloop
  endfacet
  facet normal -0.481755 0.876306 0
    outer loop
      vertex 24.8516 50.6903 2
      vertex 25.0717 50.8113 0
      vertex 24.8516 50.6903 0
    endloop
  endfacet
  facet normal -0.904829 -0.425775 0
    outer loop
      vertex 25.8596 53.2362 0
      vertex 25.7526 53.4635 2
      vertex 25.7526 53.4635 0
    endloop
  endfacet
  facet normal -0.904829 -0.425775 0
    outer loop
      vertex 25.7526 53.4635 2
      vertex 25.8596 53.2362 0
      vertex 25.8596 53.2362 2
    endloop
  endfacet
  facet normal -0.951056 -0.309019 0
    outer loop
      vertex 25.9372 52.9974 0
      vertex 25.8596 53.2362 2
      vertex 25.8596 53.2362 0
    endloop
  endfacet
  facet normal -0.951056 -0.309019 0
    outer loop
      vertex 25.8596 53.2362 2
      vertex 25.9372 52.9974 0
      vertex 25.9372 52.9974 2
    endloop
  endfacet
  facet normal 0 -1 0
    outer loop
      vertex 23.8744 54.4961 0
      vertex 24.1256 54.4961 2
      vertex 23.8744 54.4961 2
    endloop
  endfacet
  facet normal 0 -1 -0
    outer loop
      vertex 24.1256 54.4961 2
      vertex 23.8744 54.4961 0
      vertex 24.1256 54.4961 0
    endloop
  endfacet
  facet normal -0.770512 0.637425 0
    outer loop
      vertex 25.4579 51.1309 0
      vertex 25.618 51.3244 2
      vertex 25.618 51.3244 0
    endloop
  endfacet
  facet normal -0.770512 0.637425 0
    outer loop
      vertex 25.618 51.3244 2
      vertex 25.4579 51.1309 0
      vertex 25.4579 51.1309 2
    endloop
  endfacet
  facet normal -0.904826 0.425781 0
    outer loop
      vertex 25.7526 51.5365 0
      vertex 25.8596 51.7637 2
      vertex 25.8596 51.7637 0
    endloop
  endfacet
  facet normal -0.904826 0.425781 0
    outer loop
      vertex 25.8596 51.7637 2
      vertex 25.7526 51.5365 0
      vertex 25.7526 51.5365 2
    endloop
  endfacet
  facet normal 0.368131 0.929774 -0
    outer loop
      vertex 23.382 50.5979 0
      vertex 23.1484 50.6903 2
      vertex 23.382 50.5979 2
    endloop
  endfacet
  facet normal 0.368131 0.929774 0
    outer loop
      vertex 23.1484 50.6903 2
      vertex 23.382 50.5979 0
      vertex 23.1484 50.6903 0
    endloop
  endfacet
  facet normal 0 1 -0
    outer loop
      vertex 24.1256 50.5039 0
      vertex 23.8744 50.5039 2
      vertex 24.1256 50.5039 2
    endloop
  endfacet
  facet normal 0 1 0
    outer loop
      vertex 23.8744 50.5039 2
      vertex 24.1256 50.5039 0
      vertex 23.8744 50.5039 0
    endloop
  endfacet
  facet normal 0.904826 0.425781 0
    outer loop
      vertex 22.2474 51.5365 2
      vertex 22.1404 51.7637 0
      vertex 22.1404 51.7637 2
    endloop
  endfacet
  facet normal 0.904826 0.425781 0
    outer loop
      vertex 22.1404 51.7637 0
      vertex 22.2474 51.5365 2
      vertex 22.2474 51.5365 0
    endloop
  endfacet
  facet normal 0.951057 0.309015 0
    outer loop
      vertex 22.1404 51.7637 2
      vertex 22.0628 52.0026 0
      vertex 22.0628 52.0026 2
    endloop
  endfacet
  facet normal 0.951057 0.309015 0
    outer loop
      vertex 22.0628 52.0026 0
      vertex 22.1404 51.7637 2
      vertex 22.1404 51.7637 0
    endloop
  endfacet
  facet normal -0.368131 0.929774 0
    outer loop
      vertex 24.8516 50.6903 0
      vertex 24.618 50.5979 2
      vertex 24.8516 50.6903 2
    endloop
  endfacet
  facet normal -0.368131 0.929774 0
    outer loop
      vertex 24.618 50.5979 2
      vertex 24.8516 50.6903 0
      vertex 24.618 50.5979 0
    endloop
  endfacet
  facet normal -0.684545 0.72897 0
    outer loop
      vertex 25.4579 51.1309 0
      vertex 25.2748 50.959 2
      vertex 25.4579 51.1309 2
    endloop
  endfacet
  facet normal -0.684545 0.72897 0
    outer loop
      vertex 25.2748 50.959 2
      vertex 25.4579 51.1309 0
      vertex 25.2748 50.959 0
    endloop
  endfacet
  facet normal -0.587785 0.809017 0
    outer loop
      vertex 25.2748 50.959 0
      vertex 25.0717 50.8113 2
      vertex 25.2748 50.959 2
    endloop
  endfacet
  facet normal -0.587785 0.809017 0
    outer loop
      vertex 25.0717 50.8113 2
      vertex 25.2748 50.959 0
      vertex 25.0717 50.8113 0
    endloop
  endfacet
  facet normal -0.844329 0.535825 0
    outer loop
      vertex 25.618 51.3244 0
      vertex 25.7526 51.5365 2
      vertex 25.7526 51.5365 0
    endloop
  endfacet
  facet normal -0.844329 0.535825 0
    outer loop
      vertex 25.7526 51.5365 2
      vertex 25.618 51.3244 0
      vertex 25.618 51.3244 2
    endloop
  endfacet
  facet normal -0.125332 0.992115 0
    outer loop
      vertex 24.3748 50.5354 0
      vertex 24.1256 50.5039 2
      vertex 24.3748 50.5354 2
    endloop
  endfacet
  facet normal -0.125332 0.992115 0
    outer loop
      vertex 24.1256 50.5039 2
      vertex 24.3748 50.5354 0
      vertex 24.1256 50.5039 0
    endloop
  endfacet
  facet normal 0.481755 0.876306 -0
    outer loop
      vertex 23.1484 50.6903 0
      vertex 22.9283 50.8113 2
      vertex 23.1484 50.6903 2
    endloop
  endfacet
  facet normal 0.481755 0.876306 0
    outer loop
      vertex 22.9283 50.8113 2
      vertex 23.1484 50.6903 0
      vertex 22.9283 50.8113 0
    endloop
  endfacet
  facet normal 0.770512 0.637425 0
    outer loop
      vertex 22.5421 51.1309 2
      vertex 22.382 51.3244 0
      vertex 22.382 51.3244 2
    endloop
  endfacet
  facet normal 0.770512 0.637425 0
    outer loop
      vertex 22.382 51.3244 0
      vertex 22.5421 51.1309 2
      vertex 22.5421 51.1309 0
    endloop
  endfacet
  facet normal 0.844329 0.535825 0
    outer loop
      vertex 22.382 51.3244 2
      vertex 22.2474 51.5365 0
      vertex 22.2474 51.5365 2
    endloop
  endfacet
  facet normal 0.844329 0.535825 0
    outer loop
      vertex 22.2474 51.5365 0
      vertex 22.382 51.3244 2
      vertex 22.382 51.3244 0
    endloop
  endfacet
  facet normal 0.125332 0.992115 -0
    outer loop
      vertex 23.8744 50.5039 0
      vertex 23.6252 50.5354 2
      vertex 23.8744 50.5039 2
    endloop
  endfacet
  facet normal 0.125332 0.992115 0
    outer loop
      vertex 23.6252 50.5354 2
      vertex 23.8744 50.5039 0
      vertex 23.6252 50.5354 0
    endloop
  endfacet
  facet normal 0.248692 0.968583 -0
    outer loop
      vertex 23.6252 50.5354 0
      vertex 23.382 50.5979 2
      vertex 23.6252 50.5354 2
    endloop
  endfacet
  facet normal 0.248692 0.968583 0
    outer loop
      vertex 23.382 50.5979 2
      vertex 23.6252 50.5354 0
      vertex 23.382 50.5979 0
    endloop
  endfacet
  facet normal -1 0 0
    outer loop
      vertex 0 0 -20
      vertex 0 -2 -20
      vertex 0 0 -6
    endloop
  endfacet
  facet normal -1 0 0
    outer loop
      vertex 0 6 0
      vertex 0 70 2
      vertex 0 70 0
    endloop
  endfacet
  facet normal -1 0 0
    outer loop
      vertex 0 6 0
      vertex 0 -2 2
      vertex 0 70 2
    endloop
  endfacet
  facet normal -1 0 0
    outer loop
      vertex 0 0 -6
      vertex 0 -2 2
      vertex 0 6 0
    endloop
  endfacet
  facet normal -1 0 0
    outer loop
      vertex 0 -2 2
      vertex 0 0 -6
      vertex 0 -2 -20
    endloop
  endfacet
  facet normal 0 0 1
    outer loop
      vertex 25.8596 51.7637 2
      vertex 40 70 2
      vertex 25.9372 52.0026 2
    endloop
  endfacet
  facet normal 0 0 1
    outer loop
      vertex 40 0 2
      vertex 25.9842 17.7507 2
      vertex 26 17.5 2
    endloop
  endfacet
  facet normal 0 0 1
    outer loop
      vertex 40 70 2
      vertex 25.8596 51.7637 2
      vertex 40 0 2
    endloop
  endfacet
  facet normal 0 0 1
    outer loop
      vertex 40 0 2
      vertex 25.9372 17.9974 2
      vertex 25.9842 17.7507 2
    endloop
  endfacet
  facet normal -0 0 1
    outer loop
      vertex 25.8596 18.2362 2
      vertex 40 0 2
      vertex 25.8596 51.7637 2
    endloop
  endfacet
  facet normal 0 0 1
    outer loop
      vertex 40 0 2
      vertex 25.8596 18.2362 2
      vertex 25.9372 17.9974 2
    endloop
  endfacet
  facet normal -0 0 1
    outer loop
      vertex 25.7526 51.5365 2
      vertex 25.8596 18.2362 2
      vertex 25.8596 51.7637 2
    endloop
  endfacet
  facet normal 0 0 1
    outer loop
      vertex 25.7526 51.5365 2
      vertex 25.7526 18.4635 2
      vertex 25.8596 18.2362 2
    endloop
  endfacet
  facet normal -0 0 1
    outer loop
      vertex 25.618 51.3244 2
      vertex 25.7526 18.4635 2
      vertex 25.7526 51.5365 2
    endloop
  endfacet
  facet normal 0 0 1
    outer loop
      vertex 25.618 51.3244 2
      vertex 25.618 18.6756 2
      vertex 25.7526 18.4635 2
    endloop
  endfacet
  facet normal -0 0 1
    outer loop
      vertex 25.4579 51.1309 2
      vertex 25.618 18.6756 2
      vertex 25.618 51.3244 2
    endloop
  endfacet
  facet normal 0 0 1
    outer loop
      vertex 25.4579 51.1309 2
      vertex 25.4579 18.8691 2
      vertex 25.618 18.6756 2
    endloop
  endfacet
  facet normal -0 0 1
    outer loop
      vertex 25.2748 50.959 2
      vertex 25.4579 18.8691 2
      vertex 25.4579 51.1309 2
    endloop
  endfacet
  facet normal 0 0 1
    outer loop
      vertex 25.2748 50.959 2
      vertex 25.2748 19.041 2
      vertex 25.4579 18.8691 2
    endloop
  endfacet
  facet normal -0 0 1
    outer loop
      vertex 25.0717 50.8113 2
      vertex 25.2748 19.041 2
      vertex 25.2748 50.959 2
    endloop
  endfacet
  facet normal 0 0 1
    outer loop
      vertex 25.0717 50.8113 2
      vertex 25.0717 19.1887 2
      vertex 25.2748 19.041 2
    endloop
  endfacet
  facet normal -0 0 1
    outer loop
      vertex 24.8516 50.6903 2
      vertex 25.0717 19.1887 2
      vertex 25.0717 50.8113 2
    endloop
  endfacet
  facet normal 0 0 1
    outer loop
      vertex 24.8516 50.6903 2
      vertex 24.8516 19.3097 2
      vertex 25.0717 19.1887 2
    endloop
  endfacet
  facet normal -0 0 1
    outer loop
      vertex 24.618 50.5979 2
      vertex 24.8516 19.3097 2
      vertex 24.8516 50.6903 2
    endloop
  endfacet
  facet normal 0 0 1
    outer loop
      vertex 24.618 50.5979 2
      vertex 24.618 19.4021 2
      vertex 24.8516 19.3097 2
    endloop
  endfacet
  facet normal -0 0 1
    outer loop
      vertex 24.3748 50.5354 2
      vertex 24.618 19.4021 2
      vertex 24.618 50.5979 2
    endloop
  endfacet
  facet normal 0 0 1
    outer loop
      vertex 24.3748 50.5354 2
      vertex 24.3748 19.4646 2
      vertex 24.618 19.4021 2
    endloop
  endfacet
  facet normal -0 0 1
    outer loop
      vertex 24.1256 50.5039 2
      vertex 24.3748 19.4646 2
      vertex 24.3748 50.5354 2
    endloop
  endfacet
  facet normal 0 0 1
    outer loop
      vertex 24.1256 50.5039 2
      vertex 24.1256 19.4961 2
      vertex 24.3748 19.4646 2
    endloop
  endfacet
  facet normal -0 0 1
    outer loop
      vertex 23.8744 50.5039 2
      vertex 24.1256 19.4961 2
      vertex 24.1256 50.5039 2
    endloop
  endfacet
  facet normal 0 0 1
    outer loop
      vertex 23.8744 50.5039 2
      vertex 23.8744 19.4961 2
      vertex 24.1256 19.4961 2
    endloop
  endfacet
  facet normal 0 0 1
    outer loop
      vertex 23.6252 50.5354 2
      vertex 23.8744 19.4961 2
      vertex 23.8744 50.5039 2
    endloop
  endfacet
  facet normal 0 0 1
    outer loop
      vertex 23.6252 50.5354 2
      vertex 23.6252 19.4646 2
      vertex 23.8744 19.4961 2
    endloop
  endfacet
  facet normal 0 0 1
    outer loop
      vertex 23.382 50.5979 2
      vertex 23.6252 19.4646 2
      vertex 23.6252 50.5354 2
    endloop
  endfacet
  facet normal 0 0 1
    outer loop
      vertex 23.382 50.5979 2
      vertex 23.382 19.4021 2
      vertex 23.6252 19.4646 2
    endloop
  endfacet
  facet normal 0 0 1
    outer loop
      vertex 23.1484 50.6903 2
      vertex 23.382 19.4021 2
      vertex 23.382 50.5979 2
    endloop
  endfacet
  facet normal 0 0 1
    outer loop
      vertex 23.1484 50.6903 2
      vertex 23.1484 19.3097 2
      vertex 23.382 19.4021 2
    endloop
  endfacet
  facet normal 0 0 1
    outer loop
      vertex 22.9283 50.8113 2
      vertex 23.1484 19.3097 2
      vertex 23.1484 50.6903 2
    endloop
  endfacet
  facet normal 0 0 1
    outer loop
      vertex 22.9283 50.8113 2
      vertex 22.9283 19.1887 2
      vertex 23.1484 19.3097 2
    endloop
  endfacet
  facet normal 0 0 1
    outer loop
      vertex 22.7252 50.959 2
      vertex 22.9283 19.1887 2
      vertex 22.9283 50.8113 2
    endloop
  endfacet
  facet normal 0 0 1
    outer loop
      vertex 22.7252 50.959 2
      vertex 22.7252 19.041 2
      vertex 22.9283 19.1887 2
    endloop
  endfacet
  facet normal 0 0 1
    outer loop
      vertex 22.5421 51.1309 2
      vertex 22.7252 19.041 2
      vertex 22.7252 50.959 2
    endloop
  endfacet
  facet normal 0 0 1
    outer loop
      vertex 22.5421 51.1309 2
      vertex 22.5421 18.8691 2
      vertex 22.7252 19.041 2
    endloop
  endfacet
  facet normal 0 0 1
    outer loop
      vertex 22.382 51.3244 2
      vertex 22.5421 18.8691 2
      vertex 22.5421 51.1309 2
    endloop
  endfacet
  facet normal 0 0 1
    outer loop
      vertex 22.382 51.3244 2
      vertex 22.382 18.6756 2
      vertex 22.5421 18.8691 2
    endloop
  endfacet
  facet normal 0 0 1
    outer loop
      vertex 22.2474 51.5365 2
      vertex 22.382 18.6756 2
      vertex 22.382 51.3244 2
    endloop
  endfacet
  facet normal 0 0 1
    outer loop
      vertex 22.2474 51.5365 2
      vertex 22.2474 18.4635 2
      vertex 22.382 18.6756 2
    endloop
  endfacet
  facet normal 0 0 1
    outer loop
      vertex 0 70 2
      vertex 22.2474 51.5365 2
      vertex 22.1404 51.7637 2
    endloop
  endfacet
  facet normal 0 0 1
    outer loop
      vertex 22.2474 51.5365 2
      vertex 0 70 2
      vertex 22.2474 18.4635 2
    endloop
  endfacet
  facet normal 0 0 1
    outer loop
      vertex 0 70 2
      vertex 22.1404 51.7637 2
      vertex 22.0628 52.0026 2
    endloop
  endfacet
  facet normal 0 0 1
    outer loop
      vertex 22.2474 18.4635 2
      vertex 0 70 2
      vertex 22.1404 18.2362 2
    endloop
  endfacet
  facet normal 0 0 1
    outer loop
      vertex 0 70 2
      vertex 22.0628 52.0026 2
      vertex 22.0158 52.2493 2
    endloop
  endfacet
  facet normal 0 0 1
    outer loop
      vertex 0 -2 2
      vertex 22.1404 18.2362 2
      vertex 0 70 2
    endloop
  endfacet
  facet normal 0 0 1
    outer loop
      vertex 0 70 2
      vertex 22.0158 52.2493 2
      vertex 22 52.5 2
    endloop
  endfacet
  facet normal 0 0 1
    outer loop
      vertex 22.1404 18.2362 2
      vertex 0 -2 2
      vertex 22.0628 17.9974 2
    endloop
  endfacet
  facet normal 0 0 1
    outer loop
      vertex 25.9842 52.2493 2
      vertex 40 70 2
      vertex 26 52.5 2
    endloop
  endfacet
  facet normal 0 0 1
    outer loop
      vertex 40 70 2
      vertex 25.9842 52.7507 2
      vertex 26 52.5 2
    endloop
  endfacet
  facet normal 0 0 1
    outer loop
      vertex 40 70 2
      vertex 25.9372 52.9974 2
      vertex 25.9842 52.7507 2
    endloop
  endfacet
  facet normal 0 0 1
    outer loop
      vertex 40 70 2
      vertex 25.8596 53.2362 2
      vertex 25.9372 52.9974 2
    endloop
  endfacet
  facet normal 0 0 1
    outer loop
      vertex 40 70 2
      vertex 25.7526 53.4635 2
      vertex 25.8596 53.2362 2
    endloop
  endfacet
  facet normal 0 0 1
    outer loop
      vertex 40 70 2
      vertex 25.618 53.6756 2
      vertex 25.7526 53.4635 2
    endloop
  endfacet
  facet normal 0 0 1
    outer loop
      vertex 40 70 2
      vertex 25.4579 53.8691 2
      vertex 25.618 53.6756 2
    endloop
  endfacet
  facet normal 0 0 1
    outer loop
      vertex 40 70 2
      vertex 25.2748 54.041 2
      vertex 25.4579 53.8691 2
    endloop
  endfacet
  facet normal 0 0 1
    outer loop
      vertex 40 70 2
      vertex 25.0717 54.1887 2
      vertex 25.2748 54.041 2
    endloop
  endfacet
  facet normal 0 0 1
    outer loop
      vertex 40 70 2
      vertex 24.8516 54.3097 2
      vertex 25.0717 54.1887 2
    endloop
  endfacet
  facet normal 0 0 1
    outer loop
      vertex 40 70 2
      vertex 24.618 54.4021 2
      vertex 24.8516 54.3097 2
    endloop
  endfacet
  facet normal 0 0 1
    outer loop
      vertex 40 70 2
      vertex 24.3748 54.4646 2
      vertex 24.618 54.4021 2
    endloop
  endfacet
  facet normal 0 0 1
    outer loop
      vertex 40 70 2
      vertex 24.1256 54.4961 2
      vertex 24.3748 54.4646 2
    endloop
  endfacet
  facet normal 0 0 1
    outer loop
      vertex 40 70 2
      vertex 23.8744 54.4961 2
      vertex 24.1256 54.4961 2
    endloop
  endfacet
  facet normal 0 0 1
    outer loop
      vertex 40 70 2
      vertex 23.6252 54.4646 2
      vertex 23.8744 54.4961 2
    endloop
  endfacet
  facet normal -0 0 1
    outer loop
      vertex 0 70 2
      vertex 23.6252 54.4646 2
      vertex 40 70 2
    endloop
  endfacet
  facet normal 0 0 1
    outer loop
      vertex 23.6252 54.4646 2
      vertex 0 70 2
      vertex 23.382 54.4021 2
    endloop
  endfacet
  facet normal 0 0 1
    outer loop
      vertex 23.382 54.4021 2
      vertex 0 70 2
      vertex 23.1484 54.3097 2
    endloop
  endfacet
  facet normal 0 0 1
    outer loop
      vertex 23.1484 54.3097 2
      vertex 0 70 2
      vertex 22.9283 54.1887 2
    endloop
  endfacet
  facet normal 0 0 1
    outer loop
      vertex 22.0628 17.9974 2
      vertex 0 -2 2
      vertex 22.0158 17.7507 2
    endloop
  endfacet
  facet normal 0 0 1
    outer loop
      vertex 22.0158 52.7507 2
      vertex 0 70 2
      vertex 22 52.5 2
    endloop
  endfacet
  facet normal 0 0 1
    outer loop
      vertex 22.0628 52.9974 2
      vertex 0 70 2
      vertex 22.0158 52.7507 2
    endloop
  endfacet
  facet normal 0 0 1
    outer loop
      vertex 22.1404 53.2362 2
      vertex 0 70 2
      vertex 22.0628 52.9974 2
    endloop
  endfacet
  facet normal 0 0 1
    outer loop
      vertex 22.2474 53.4635 2
      vertex 0 70 2
      vertex 22.1404 53.2362 2
    endloop
  endfacet
  facet normal 0 0 1
    outer loop
      vertex 22.382 53.6756 2
      vertex 0 70 2
      vertex 22.2474 53.4635 2
    endloop
  endfacet
  facet normal 0 0 1
    outer loop
      vertex 22.5421 53.8691 2
      vertex 0 70 2
      vertex 22.382 53.6756 2
    endloop
  endfacet
  facet normal 0 0 1
    outer loop
      vertex 22.7252 54.041 2
      vertex 0 70 2
      vertex 22.5421 53.8691 2
    endloop
  endfacet
  facet normal 0 0 1
    outer loop
      vertex 22.9283 54.1887 2
      vertex 0 70 2
      vertex 22.7252 54.041 2
    endloop
  endfacet
  facet normal 0 0 1
    outer loop
      vertex 25.9372 52.0026 2
      vertex 40 70 2
      vertex 25.9842 52.2493 2
    endloop
  endfacet
  facet normal -0 0 1
    outer loop
      vertex 25.9842 17.2493 2
      vertex 40 0 2
      vertex 26 17.5 2
    endloop
  endfacet
  facet normal -0 0 1
    outer loop
      vertex 25.9372 17.0026 2
      vertex 40 0 2
      vertex 25.9842 17.2493 2
    endloop
  endfacet
  facet normal -0 0 1
    outer loop
      vertex 25.8596 16.7638 2
      vertex 40 0 2
      vertex 25.9372 17.0026 2
    endloop
  endfacet
  facet normal -0 0 1
    outer loop
      vertex 25.7526 16.5365 2
      vertex 40 0 2
      vertex 25.8596 16.7638 2
    endloop
  endfacet
  facet normal -0 0 1
    outer loop
      vertex 25.618 16.3244 2
      vertex 40 0 2
      vertex 25.7526 16.5365 2
    endloop
  endfacet
  facet normal -0 0 1
    outer loop
      vertex 25.4579 16.1309 2
      vertex 40 0 2
      vertex 25.618 16.3244 2
    endloop
  endfacet
  facet normal -0 0 1
    outer loop
      vertex 25.2748 15.959 2
      vertex 40 0 2
      vertex 25.4579 16.1309 2
    endloop
  endfacet
  facet normal 0 0 1
    outer loop
      vertex 25 0 2
      vertex 25.2748 15.959 2
      vertex 25.0717 15.8113 2
    endloop
  endfacet
  facet normal 0 0 1
    outer loop
      vertex 25.2748 15.959 2
      vertex 25 0 2
      vertex 40 0 2
    endloop
  endfacet
  facet normal -0 0 1
    outer loop
      vertex 24.8516 15.6903 2
      vertex 25 0 2
      vertex 25.0717 15.8113 2
    endloop
  endfacet
  facet normal -0 0 1
    outer loop
      vertex 24.618 15.5979 2
      vertex 25 0 2
      vertex 24.8516 15.6903 2
    endloop
  endfacet
  facet normal -0 0 1
    outer loop
      vertex 24.3748 15.5354 2
      vertex 25 0 2
      vertex 24.618 15.5979 2
    endloop
  endfacet
  facet normal -0 0 1
    outer loop
      vertex 24.1256 15.5039 2
      vertex 25 0 2
      vertex 24.3748 15.5354 2
    endloop
  endfacet
  facet normal -0 0 1
    outer loop
      vertex 23.8744 15.5039 2
      vertex 25 0 2
      vertex 24.1256 15.5039 2
    endloop
  endfacet
  facet normal 0 0 1
    outer loop
      vertex 23.6252 15.5354 2
      vertex 25 0 2
      vertex 23.8744 15.5039 2
    endloop
  endfacet
  facet normal 0 0 1
    outer loop
      vertex 23.382 15.5979 2
      vertex 25 0 2
      vertex 23.6252 15.5354 2
    endloop
  endfacet
  facet normal 0 0 1
    outer loop
      vertex 23.1484 15.6903 2
      vertex 25 0 2
      vertex 23.382 15.5979 2
    endloop
  endfacet
  facet normal 0 0 1
    outer loop
      vertex 22.9283 15.8113 2
      vertex 25 0 2
      vertex 23.1484 15.6903 2
    endloop
  endfacet
  facet normal 0 0 1
    outer loop
      vertex 22.7252 15.959 2
      vertex 25 0 2
      vertex 22.9283 15.8113 2
    endloop
  endfacet
  facet normal 0 0 1
    outer loop
      vertex 22.5421 16.1309 2
      vertex 25 0 2
      vertex 22.7252 15.959 2
    endloop
  endfacet
  facet normal 0 0 1
    outer loop
      vertex 0 -2 2
      vertex 25 0 2
      vertex 22.5421 16.1309 2
    endloop
  endfacet
  facet normal 0 0 1
    outer loop
      vertex 0 -2 2
      vertex 22.5421 16.1309 2
      vertex 22.382 16.3244 2
    endloop
  endfacet
  facet normal 0 0 1
    outer loop
      vertex 0 -2 2
      vertex 22.382 16.3244 2
      vertex 22.2474 16.5365 2
    endloop
  endfacet
  facet normal 0 0 1
    outer loop
      vertex 0 -2 2
      vertex 22.2474 16.5365 2
      vertex 22.1404 16.7638 2
    endloop
  endfacet
  facet normal 0 0 1
    outer loop
      vertex 0 -2 2
      vertex 22.1404 16.7638 2
      vertex 22.0628 17.0026 2
    endloop
  endfacet
  facet normal 0 0 1
    outer loop
      vertex 0 -2 2
      vertex 22.0628 17.0026 2
      vertex 22.0158 17.2493 2
    endloop
  endfacet
  facet normal 0 0 1
    outer loop
      vertex 22.0158 17.7507 2
      vertex 0 -2 2
      vertex 22 17.5 2
    endloop
  endfacet
  facet normal 0 0 1
    outer loop
      vertex 22 17.5 2
      vertex 0 -2 2
      vertex 22.0158 17.2493 2
    endloop
  endfacet
  facet normal 0 0 1
    outer loop
      vertex 25 0 2
      vertex 0 -2 2
      vertex 25 -2 2
    endloop
  endfacet
  facet normal 1 -0 0
    outer loop
      vertex 40 0 2
      vertex 40 70 0
      vertex 40 70 2
    endloop
  endfacet
  facet normal 1 0 0
    outer loop
      vertex 40 70 0
      vertex 40 0 2
      vertex 40 0 0
    endloop
  endfacet
  facet normal 0 1 -0
    outer loop
      vertex 40 70 0
      vertex 0 70 2
      vertex 40 70 2
    endloop
  endfacet
  facet normal 0 1 0
    outer loop
      vertex 0 70 2
      vertex 40 70 0
      vertex 0 70 0
    endloop
  endfacet
  facet normal 0 0 -1
    outer loop
      vertex 25.8596 18.2362 0
      vertex 40 0 0
      vertex 25.9372 17.9974 0
    endloop
  endfacet
  facet normal 0 0 -1
    outer loop
      vertex 40 70 0
      vertex 25.9842 52.2493 0
      vertex 26 52.5 0
    endloop
  endfacet
  facet normal 0 0 -1
    outer loop
      vertex 40 0 0
      vertex 25.8596 18.2362 0
      vertex 40 70 0
    endloop
  endfacet
  facet normal 0 0 -1
    outer loop
      vertex 40 70 0
      vertex 25.9372 52.0026 0
      vertex 25.9842 52.2493 0
    endloop
  endfacet
  facet normal 0 0 -1
    outer loop
      vertex 25.8596 51.7637 0
      vertex 40 70 0
      vertex 25.8596 18.2362 0
    endloop
  endfacet
  facet normal 0 0 -1
    outer loop
      vertex 40 70 0
      vertex 25.8596 51.7637 0
      vertex 25.9372 52.0026 0
    endloop
  endfacet
  facet normal 0 0 -1
    outer loop
      vertex 25.7526 18.4635 0
      vertex 25.8596 51.7637 0
      vertex 25.8596 18.2362 0
    endloop
  endfacet
  facet normal 0 0 -1
    outer loop
      vertex 25.7526 18.4635 0
      vertex 25.7526 51.5365 0
      vertex 25.8596 51.7637 0
    endloop
  endfacet
  facet normal 0 0 -1
    outer loop
      vertex 25.618 18.6756 0
      vertex 25.7526 51.5365 0
      vertex 25.7526 18.4635 0
    endloop
  endfacet
  facet normal 0 0 -1
    outer loop
      vertex 25.618 18.6756 0
      vertex 25.618 51.3244 0
      vertex 25.7526 51.5365 0
    endloop
  endfacet
  facet normal 0 0 -1
    outer loop
      vertex 25.4579 18.8691 0
      vertex 25.618 51.3244 0
      vertex 25.618 18.6756 0
    endloop
  endfacet
  facet normal 0 0 -1
    outer loop
      vertex 25.4579 18.8691 0
      vertex 25.4579 51.1309 0
      vertex 25.618 51.3244 0
    endloop
  endfacet
  facet normal 0 0 -1
    outer loop
      vertex 25.2748 19.041 0
      vertex 25.4579 51.1309 0
      vertex 25.4579 18.8691 0
    endloop
  endfacet
  facet normal 0 0 -1
    outer loop
      vertex 25.2748 19.041 0
      vertex 25.2748 50.959 0
      vertex 25.4579 51.1309 0
    endloop
  endfacet
  facet normal 0 0 -1
    outer loop
      vertex 25.0717 19.1887 0
      vertex 25.2748 50.959 0
      vertex 25.2748 19.041 0
    endloop
  endfacet
  facet normal 0 0 -1
    outer loop
      vertex 25.0717 19.1887 0
      vertex 25.0717 50.8113 0
      vertex 25.2748 50.959 0
    endloop
  endfacet
  facet normal 0 0 -1
    outer loop
      vertex 24.8516 19.3097 0
      vertex 25.0717 50.8113 0
      vertex 25.0717 19.1887 0
    endloop
  endfacet
  facet normal 0 0 -1
    outer loop
      vertex 24.8516 19.3097 0
      vertex 24.8516 50.6903 0
      vertex 25.0717 50.8113 0
    endloop
  endfacet
  facet normal 0 0 -1
    outer loop
      vertex 24.618 19.4021 0
      vertex 24.8516 50.6903 0
      vertex 24.8516 19.3097 0
    endloop
  endfacet
  facet normal 0 0 -1
    outer loop
      vertex 24.618 19.4021 0
      vertex 24.618 50.5979 0
      vertex 24.8516 50.6903 0
    endloop
  endfacet
  facet normal 0 0 -1
    outer loop
      vertex 24.3748 19.4646 0
      vertex 24.618 50.5979 0
      vertex 24.618 19.4021 0
    endloop
  endfacet
  facet normal 0 0 -1
    outer loop
      vertex 24.3748 19.4646 0
      vertex 24.3748 50.5354 0
      vertex 24.618 50.5979 0
    endloop
  endfacet
  facet normal 0 0 -1
    outer loop
      vertex 24.1256 19.4961 0
      vertex 24.3748 50.5354 0
      vertex 24.3748 19.4646 0
    endloop
  endfacet
  facet normal 0 0 -1
    outer loop
      vertex 24.1256 19.4961 0
      vertex 24.1256 50.5039 0
      vertex 24.3748 50.5354 0
    endloop
  endfacet
  facet normal 0 0 -1
    outer loop
      vertex 23.8744 19.4961 0
      vertex 24.1256 50.5039 0
      vertex 24.1256 19.4961 0
    endloop
  endfacet
  facet normal 0 0 -1
    outer loop
      vertex 23.8744 19.4961 0
      vertex 23.8744 50.5039 0
      vertex 24.1256 50.5039 0
    endloop
  endfacet
  facet normal 0 0 -1
    outer loop
      vertex 23.6252 19.4646 0
      vertex 23.8744 50.5039 0
      vertex 23.8744 19.4961 0
    endloop
  endfacet
  facet normal 0 0 -1
    outer loop
      vertex 23.6252 19.4646 0
      vertex 23.6252 50.5354 0
      vertex 23.8744 50.5039 0
    endloop
  endfacet
  facet normal 0 0 -1
    outer loop
      vertex 23.382 19.4021 0
      vertex 23.6252 50.5354 0
      vertex 23.6252 19.4646 0
    endloop
  endfacet
  facet normal 0 0 -1
    outer loop
      vertex 23.382 19.4021 0
      vertex 23.382 50.5979 0
      vertex 23.6252 50.5354 0
    endloop
  endfacet
  facet normal 0 0 -1
    outer loop
      vertex 23.1484 19.3097 0
      vertex 23.382 50.5979 0
      vertex 23.382 19.4021 0
    endloop
  endfacet
  facet normal 0 0 -1
    outer loop
      vertex 23.1484 19.3097 0
      vertex 23.1484 50.6903 0
      vertex 23.382 50.5979 0
    endloop
  endfacet
  facet normal 0 0 -1
    outer loop
      vertex 22.9283 19.1887 0
      vertex 23.1484 50.6903 0
      vertex 23.1484 19.3097 0
    endloop
  endfacet
  facet normal 0 0 -1
    outer loop
      vertex 22.9283 19.1887 0
      vertex 22.9283 50.8113 0
      vertex 23.1484 50.6903 0
    endloop
  endfacet
  facet normal 0 0 -1
    outer loop
      vertex 22.7252 19.041 0
      vertex 22.9283 50.8113 0
      vertex 22.9283 19.1887 0
    endloop
  endfacet
  facet normal 0 0 -1
    outer loop
      vertex 22.7252 19.041 0
      vertex 22.7252 50.959 0
      vertex 22.9283 50.8113 0
    endloop
  endfacet
  facet normal 0 0 -1
    outer loop
      vertex 22.5421 18.8691 0
      vertex 22.7252 50.959 0
      vertex 22.7252 19.041 0
    endloop
  endfacet
  facet normal 0 0 -1
    outer loop
      vertex 22.5421 18.8691 0
      vertex 22.5421 51.1309 0
      vertex 22.7252 50.959 0
    endloop
  endfacet
  facet normal 0 0 -1
    outer loop
      vertex 22.382 18.6756 0
      vertex 22.5421 51.1309 0
      vertex 22.5421 18.8691 0
    endloop
  endfacet
  facet normal 0 0 -1
    outer loop
      vertex 22.382 18.6756 0
      vertex 22.382 51.3244 0
      vertex 22.5421 51.1309 0
    endloop
  endfacet
  facet normal 0 0 -1
    outer loop
      vertex 0 6 0
      vertex 22.382 18.6756 0
      vertex 22.2474 18.4635 0
    endloop
  endfacet
  facet normal -0 0 -1
    outer loop
      vertex 22.382 18.6756 0
      vertex 0 6 0
      vertex 22.382 51.3244 0
    endloop
  endfacet
  facet normal 0 0 -1
    outer loop
      vertex 2 6 0
      vertex 22.2474 18.4635 0
      vertex 22.1404 18.2362 0
    endloop
  endfacet
  facet normal -0 0 -1
    outer loop
      vertex 22.382 51.3244 0
      vertex 0 6 0
      vertex 22.2474 51.5365 0
    endloop
  endfacet
  facet normal 0 0 -1
    outer loop
      vertex 2 6 0
      vertex 22.1404 18.2362 0
      vertex 22.0628 17.9974 0
    endloop
  endfacet
  facet normal -0 0 -1
    outer loop
      vertex 22.2474 51.5365 0
      vertex 0 6 0
      vertex 22.1404 51.7637 0
    endloop
  endfacet
  facet normal 0 0 -1
    outer loop
      vertex 2 6 0
      vertex 22.0628 17.9974 0
      vertex 22.0158 17.7507 0
    endloop
  endfacet
  facet normal 0 0 -1
    outer loop
      vertex 0 70 0
      vertex 22.1404 51.7637 0
      vertex 0 6 0
    endloop
  endfacet
  facet normal 0 0 -1
    outer loop
      vertex 2 6 0
      vertex 22.0158 17.7507 0
      vertex 22 17.5 0
    endloop
  endfacet
  facet normal 0 0 -1
    outer loop
      vertex 22.1404 51.7637 0
      vertex 0 70 0
      vertex 22.0628 52.0026 0
    endloop
  endfacet
  facet normal 0 0 -1
    outer loop
      vertex 25.9842 17.7507 0
      vertex 40 0 0
      vertex 26 17.5 0
    endloop
  endfacet
  facet normal 0 0 -1
    outer loop
      vertex 40 0 0
      vertex 25.9842 17.2493 0
      vertex 26 17.5 0
    endloop
  endfacet
  facet normal 0 0 -1
    outer loop
      vertex 40 0 0
      vertex 25.9372 17.0026 0
      vertex 25.9842 17.2493 0
    endloop
  endfacet
  facet normal 0 0 -1
    outer loop
      vertex 40 0 0
      vertex 25.8596 16.7638 0
      vertex 25.9372 17.0026 0
    endloop
  endfacet
  facet normal 0 0 -1
    outer loop
      vertex 40 0 0
      vertex 25.7526 16.5365 0
      vertex 25.8596 16.7638 0
    endloop
  endfacet
  facet normal 0 0 -1
    outer loop
      vertex 40 0 0
      vertex 25.618 16.3244 0
      vertex 25.7526 16.5365 0
    endloop
  endfacet
  facet normal 0 0 -1
    outer loop
      vertex 40 0 0
      vertex 25.4579 16.1309 0
      vertex 25.618 16.3244 0
    endloop
  endfacet
  facet normal 0 0 -1
    outer loop
      vertex 40 0 0
      vertex 25.2748 15.959 0
      vertex 25.4579 16.1309 0
    endloop
  endfacet
  facet normal 0 0 -1
    outer loop
      vertex 25 0 0
      vertex 25.2748 15.959 0
      vertex 40 0 0
    endloop
  endfacet
  facet normal 0 0 -1
    outer loop
      vertex 25.2748 15.959 0
      vertex 25 0 0
      vertex 25.0717 15.8113 0
    endloop
  endfacet
  facet normal 0 0 -1
    outer loop
      vertex 25 0 0
      vertex 24.8516 15.6903 0
      vertex 25.0717 15.8113 0
    endloop
  endfacet
  facet normal 0 0 -1
    outer loop
      vertex 25 0 0
      vertex 24.618 15.5979 0
      vertex 24.8516 15.6903 0
    endloop
  endfacet
  facet normal 0 0 -1
    outer loop
      vertex 25 0 0
      vertex 24.3748 15.5354 0
      vertex 24.618 15.5979 0
    endloop
  endfacet
  facet normal 0 0 -1
    outer loop
      vertex 25 0 0
      vertex 24.1256 15.5039 0
      vertex 24.3748 15.5354 0
    endloop
  endfacet
  facet normal 0 0 -1
    outer loop
      vertex 25 0 0
      vertex 23.8744 15.5039 0
      vertex 24.1256 15.5039 0
    endloop
  endfacet
  facet normal 0 0 -1
    outer loop
      vertex 25 0 0
      vertex 23.6252 15.5354 0
      vertex 23.8744 15.5039 0
    endloop
  endfacet
  facet normal 0 0 -1
    outer loop
      vertex 25 0 0
      vertex 23.382 15.5979 0
      vertex 23.6252 15.5354 0
    endloop
  endfacet
  facet normal 0 0 -1
    outer loop
      vertex 25 0 0
      vertex 23.1484 15.6903 0
      vertex 23.382 15.5979 0
    endloop
  endfacet
  facet normal 0 0 -1
    outer loop
      vertex 25 0 0
      vertex 22.9283 15.8113 0
      vertex 23.1484 15.6903 0
    endloop
  endfacet
  facet normal 0 0 -1
    outer loop
      vertex 25 0 0
      vertex 22.7252 15.959 0
      vertex 22.9283 15.8113 0
    endloop
  endfacet
  facet normal 0 0 -1
    outer loop
      vertex 2 6 0
      vertex 22.7252 15.959 0
      vertex 25 0 0
    endloop
  endfacet
  facet normal -0 0 -1
    outer loop
      vertex 22.7252 15.959 0
      vertex 2 6 0
      vertex 22.5421 16.1309 0
    endloop
  endfacet
  facet normal -0 0 -1
    outer loop
      vertex 22.5421 16.1309 0
      vertex 2 6 0
      vertex 22.382 16.3244 0
    endloop
  endfacet
  facet normal -0 0 -1
    outer loop
      vertex 22.382 16.3244 0
      vertex 2 6 0
      vertex 22.2474 16.5365 0
    endloop
  endfacet
  facet normal -0 0 -1
    outer loop
      vertex 22.2474 16.5365 0
      vertex 2 6 0
      vertex 22.1404 16.7638 0
    endloop
  endfacet
  facet normal -0 0 -1
    outer loop
      vertex 22.1404 16.7638 0
      vertex 2 6 0
      vertex 22.0628 17.0026 0
    endloop
  endfacet
  facet normal -0 0 -1
    outer loop
      vertex 22.0158 17.2493 0
      vertex 2 6 0
      vertex 22 17.5 0
    endloop
  endfacet
  facet normal -0 0 -1
    outer loop
      vertex 22.0628 17.0026 0
      vertex 2 6 0
      vertex 22.0158 17.2493 0
    endloop
  endfacet
  facet normal 0 0 -1
    outer loop
      vertex 2 6 0
      vertex 25 0 0
      vertex 2 0 0
    endloop
  endfacet
  facet normal 0 0 -1
    outer loop
      vertex 25.9372 17.9974 0
      vertex 40 0 0
      vertex 25.9842 17.7507 0
    endloop
  endfacet
  facet normal 0 0 -1
    outer loop
      vertex 25.9842 52.7507 0
      vertex 40 70 0
      vertex 26 52.5 0
    endloop
  endfacet
  facet normal 0 0 -1
    outer loop
      vertex 25.9372 52.9974 0
      vertex 40 70 0
      vertex 25.9842 52.7507 0
    endloop
  endfacet
  facet normal 0 0 -1
    outer loop
      vertex 25.8596 53.2362 0
      vertex 40 70 0
      vertex 25.9372 52.9974 0
    endloop
  endfacet
  facet normal 0 0 -1
    outer loop
      vertex 25.7526 53.4635 0
      vertex 40 70 0
      vertex 25.8596 53.2362 0
    endloop
  endfacet
  facet normal 0 0 -1
    outer loop
      vertex 25.618 53.6756 0
      vertex 40 70 0
      vertex 25.7526 53.4635 0
    endloop
  endfacet
  facet normal 0 0 -1
    outer loop
      vertex 25.4579 53.8691 0
      vertex 40 70 0
      vertex 25.618 53.6756 0
    endloop
  endfacet
  facet normal 0 0 -1
    outer loop
      vertex 25.2748 54.041 0
      vertex 40 70 0
      vertex 25.4579 53.8691 0
    endloop
  endfacet
  facet normal 0 0 -1
    outer loop
      vertex 25.0717 54.1887 0
      vertex 40 70 0
      vertex 25.2748 54.041 0
    endloop
  endfacet
  facet normal 0 0 -1
    outer loop
      vertex 24.8516 54.3097 0
      vertex 40 70 0
      vertex 25.0717 54.1887 0
    endloop
  endfacet
  facet normal 0 0 -1
    outer loop
      vertex 24.618 54.4021 0
      vertex 40 70 0
      vertex 24.8516 54.3097 0
    endloop
  endfacet
  facet normal 0 0 -1
    outer loop
      vertex 24.3748 54.4646 0
      vertex 40 70 0
      vertex 24.618 54.4021 0
    endloop
  endfacet
  facet normal 0 0 -1
    outer loop
      vertex 24.1256 54.4961 0
      vertex 40 70 0
      vertex 24.3748 54.4646 0
    endloop
  endfacet
  facet normal 0 0 -1
    outer loop
      vertex 23.8744 54.4961 0
      vertex 40 70 0
      vertex 24.1256 54.4961 0
    endloop
  endfacet
  facet normal 0 0 -1
    outer loop
      vertex 23.6252 54.4646 0
      vertex 40 70 0
      vertex 23.8744 54.4961 0
    endloop
  endfacet
  facet normal 0 0 -1
    outer loop
      vertex 0 70 0
      vertex 23.6252 54.4646 0
      vertex 23.382 54.4021 0
    endloop
  endfacet
  facet normal 0 0 -1
    outer loop
      vertex 0 70 0
      vertex 23.382 54.4021 0
      vertex 23.1484 54.3097 0
    endloop
  endfacet
  facet normal 0 0 -1
    outer loop
      vertex 0 70 0
      vertex 23.1484 54.3097 0
      vertex 22.9283 54.1887 0
    endloop
  endfacet
  facet normal 0 0 -1
    outer loop
      vertex 0 70 0
      vertex 22.9283 54.1887 0
      vertex 22.7252 54.041 0
    endloop
  endfacet
  facet normal 0 0 -1
    outer loop
      vertex 22.2474 18.4635 0
      vertex 2 6 0
      vertex 0 6 0
    endloop
  endfacet
  facet normal 0 0 -1
    outer loop
      vertex 22.0628 52.0026 0
      vertex 0 70 0
      vertex 22.0158 52.2493 0
    endloop
  endfacet
  facet normal 0 0 -1
    outer loop
      vertex 22.0158 52.2493 0
      vertex 0 70 0
      vertex 22 52.5 0
    endloop
  endfacet
  facet normal 0 0 -1
    outer loop
      vertex 22 52.5 0
      vertex 0 70 0
      vertex 22.0158 52.7507 0
    endloop
  endfacet
  facet normal 0 0 -1
    outer loop
      vertex 22.0158 52.7507 0
      vertex 0 70 0
      vertex 22.0628 52.9974 0
    endloop
  endfacet
  facet normal 0 0 -1
    outer loop
      vertex 23.6252 54.4646 0
      vertex 0 70 0
      vertex 40 70 0
    endloop
  endfacet
  facet normal 0 0 -1
    outer loop
      vertex 22.5421 53.8691 0
      vertex 0 70 0
      vertex 22.7252 54.041 0
    endloop
  endfacet
  facet normal 0 0 -1
    outer loop
      vertex 22.382 53.6756 0
      vertex 0 70 0
      vertex 22.5421 53.8691 0
    endloop
  endfacet
  facet normal 0 0 -1
    outer loop
      vertex 22.2474 53.4635 0
      vertex 0 70 0
      vertex 22.382 53.6756 0
    endloop
  endfacet
  facet normal 0 0 -1
    outer loop
      vertex 22.1404 53.2362 0
      vertex 0 70 0
      vertex 22.2474 53.4635 0
    endloop
  endfacet
  facet normal 0 0 -1
    outer loop
      vertex 22.0628 52.9974 0
      vertex 0 70 0
      vertex 22.1404 53.2362 0
    endloop
  endfacet
  facet normal 0 1 0
    outer loop
      vertex 25 0 0
      vertex 13.0666 0 -2.13316
      vertex 2 0 0
    endloop
  endfacet
  facet normal 0 1 -0
    outer loop
      vertex 20.6738 0 -6.68521
      vertex 13.0666 0 -2.13316
      vertex 25 0 0
    endloop
  endfacet
  facet normal 0 1 0
    outer loop
      vertex 24.1209 0 -6.02763
      vertex 25 0 0
      vertex 25 0 -6.02763
    endloop
  endfacet
  facet normal 0 1 0
    outer loop
      vertex 22.3767 0 -6.24798
      vertex 25 0 0
      vertex 24.1209 0 -6.02763
    endloop
  endfacet
  facet normal 0 1 0
    outer loop
      vertex 20.6738 0 -6.68521
      vertex 25 0 0
      vertex 22.3767 0 -6.24798
    endloop
  endfacet
  facet normal 0 1 0
    outer loop
      vertex 13.0666 0 -2.13316
      vertex 20.6738 0 -6.68521
      vertex 14.8533 0 -5.70653
    endloop
  endfacet
  facet normal 0 1 -0
    outer loop
      vertex 19.0391 0 -7.33242
      vertex 14.8533 0 -5.70653
      vertex 20.6738 0 -6.68521
    endloop
  endfacet
  facet normal 0 1 -0
    outer loop
      vertex 17.4984 0 -8.17941
      vertex 14.8533 0 -5.70653
      vertex 19.0391 0 -7.33242
    endloop
  endfacet
  facet normal 0 1 -0
    outer loop
      vertex 16.0761 0 -9.21282
      vertex 14.8533 0 -5.70653
      vertex 17.4984 0 -8.17941
    endloop
  endfacet
  facet normal 0 1 0
    outer loop
      vertex 14.8533 0 -5.70653
      vertex 16.0761 0 -9.21282
      vertex 13.4268 0 -6.49075
    endloop
  endfacet
  facet normal 0 1 -0
    outer loop
      vertex 14.7944 0 -10.4163
      vertex 13.4268 0 -6.49075
      vertex 16.0761 0 -9.21282
    endloop
  endfacet
  facet normal 0 1 0
    outer loop
      vertex 13.4268 0 -6.49075
      vertex 14.7944 0 -10.4163
      vertex 11.8012 0 -7.67179
    endloop
  endfacet
  facet normal 0 1 -0
    outer loop
      vertex 13.6738 0 -11.771
      vertex 11.8012 0 -7.67179
      vertex 14.7944 0 -10.4163
    endloop
  endfacet
  facet normal 0 1 0
    outer loop
      vertex 11.8012 0 -7.67179
      vertex 13.6738 0 -11.771
      vertex 10.3365 0 -9.04725
    endloop
  endfacet
  facet normal 0 1 0
    outer loop
      vertex 10.3365 0 -9.04725
      vertex 13.6738 0 -11.771
      vertex 9.05573 0 -10.5954
    endloop
  endfacet
  facet normal 0 1 -0
    outer loop
      vertex 12.7317 0 -13.2554
      vertex 9.05573 0 -10.5954
      vertex 13.6738 0 -11.771
    endloop
  endfacet
  facet normal 0 1 0
    outer loop
      vertex 9.05573 0 -10.5954
      vertex 12.7317 0 -13.2554
      vertex 7.97909 0 -12.2919
    endloop
  endfacet
  facet normal 0 1 -0
    outer loop
      vertex 11.9831 0 -14.8463
      vertex 7.97909 0 -12.2919
      vertex 12.7317 0 -13.2554
    endloop
  endfacet
  facet normal 0 1 -0
    outer loop
      vertex 11.2835 0 -3.11344
      vertex 2 0 0
      vertex 13.0666 0 -2.13316
    endloop
  endfacet
  facet normal 0 1 -0
    outer loop
      vertex 9.25152 0 -4.58974
      vertex 2 0 0
      vertex 11.2835 0 -3.11344
    endloop
  endfacet
  facet normal 0 1 -0
    outer loop
      vertex 7.42063 0 -6.30906
      vertex 2 0 0
      vertex 9.25152 0 -4.58974
    endloop
  endfacet
  facet normal 0 1 0
    outer loop
      vertex 2 0 0
      vertex 7.42063 0 -6.30906
      vertex 2 0 -6
    endloop
  endfacet
  facet normal 0 1 -0
    outer loop
      vertex 5.81966 0 -8.2443
      vertex 2 0 -6
      vertex 7.42063 0 -6.30906
    endloop
  endfacet
  facet normal 0 1 -0
    outer loop
      vertex 4.47387 0 -10.3649
      vertex 2 0 -6
      vertex 5.81966 0 -8.2443
    endloop
  endfacet
  facet normal 0 1 -0
    outer loop
      vertex 4.14169 0 -11.0708
      vertex 2 0 -6
      vertex 4.47387 0 -10.3649
    endloop
  endfacet
  facet normal 0 1 0
    outer loop
      vertex 2 0 -6
      vertex 4.14169 0 -11.0708
      vertex 0 0 -6
    endloop
  endfacet
  facet normal 0 1 0
    outer loop
      vertex 7.97909 0 -12.2919
      vertex 11.9831 0 -14.8463
      vertex 7.71335 0 -12.8567
    endloop
  endfacet
  facet normal 0 1 -0
    outer loop
      vertex 11.4398 0 -16.5183
      vertex 7.71335 0 -12.8567
      vertex 11.9831 0 -14.8463
    endloop
  endfacet
  facet normal 0 1 -0
    outer loop
      vertex 11.1104 0 -18.2453
      vertex 7.71335 0 -12.8567
      vertex 11.4398 0 -16.5183
    endloop
  endfacet
  facet normal 0 1 0
    outer loop
      vertex 0 0 -20
      vertex 7.71335 0 -12.8567
      vertex 11.1104 0 -18.2453
    endloop
  endfacet
  facet normal 0 1 0
    outer loop
      vertex 0 0 -20
      vertex 11.1104 0 -18.2453
      vertex 11 0 -20
    endloop
  endfacet
  facet normal 0 1 0
    outer loop
      vertex 7.71335 0 -12.8567
      vertex 0 0 -20
      vertex 4.14169 0 -11.0708
    endloop
  endfacet
  facet normal 0 1 0
    outer loop
      vertex 4.14169 0 -11.0708
      vertex 0 0 -20
      vertex 0 0 -6
    endloop
  endfacet
  facet normal 0 -1 0
    outer loop
      vertex 25 0 0
      vertex 40 0 2
      vertex 25 0 2
    endloop
  endfacet
  facet normal 0 -1 -0
    outer loop
      vertex 40 0 2
      vertex 25 0 0
      vertex 40 0 0
    endloop
  endfacet
  facet normal 1 -0 0
    outer loop
      vertex 25 -2 2
      vertex 25 0 0
      vertex 25 0 2
    endloop
  endfacet
  facet normal 1 0 0
    outer loop
      vertex 25 -2 -6.02763
      vertex 25 0 0
      vertex 25 -2 2
    endloop
  endfacet
  facet normal 1 0 0
    outer loop
      vertex 25 0 0
      vertex 25 -2 -6.02763
      vertex 25 0 -6.02763
    endloop
  endfacet
  facet normal 0 0 -1
    outer loop
      vertex 0 -2 -20
      vertex 11 0 -20
      vertex 11 -2 -20
    endloop
  endfacet
  facet normal -0 0 -1
    outer loop
      vertex 11 0 -20
      vertex 0 -2 -20
      vertex 0 0 -20
    endloop
  endfacet
  facet normal 0 -1 0
    outer loop
      vertex 25 -2 2
      vertex 22.3767 -2 -6.24798
      vertex 24.1209 -2 -6.02763
    endloop
  endfacet
  facet normal 0 -1 0
    outer loop
      vertex 16.0761 -2 -9.21282
      vertex 14.8533 -2 -5.70653
      vertex 13.4268 -2 -6.49075
    endloop
  endfacet
  facet normal 0 -1 0
    outer loop
      vertex 13.0666 -2 -2.13316
      vertex 20.6738 -2 -6.68521
      vertex 22.3767 -2 -6.24798
    endloop
  endfacet
  facet normal 0 -1 0
    outer loop
      vertex 14.8533 -2 -5.70653
      vertex 19.0391 -2 -7.33242
      vertex 20.6738 -2 -6.68521
    endloop
  endfacet
  facet normal 0 -1 0
    outer loop
      vertex 14.7944 -2 -10.4163
      vertex 13.4268 -2 -6.49075
      vertex 11.8012 -2 -7.67179
    endloop
  endfacet
  facet normal 0 -1 0
    outer loop
      vertex 14.8533 -2 -5.70653
      vertex 17.4984 -2 -8.17941
      vertex 19.0391 -2 -7.33242
    endloop
  endfacet
  facet normal 0 -1 0
    outer loop
      vertex 13.6738 -2 -11.771
      vertex 11.8012 -2 -7.67179
      vertex 10.3365 -2 -9.04725
    endloop
  endfacet
  facet normal 0 -1 0
    outer loop
      vertex 14.8533 -2 -5.70653
      vertex 16.0761 -2 -9.21282
      vertex 17.4984 -2 -8.17941
    endloop
  endfacet
  facet normal 0 -1 0
    outer loop
      vertex 13.4268 -2 -6.49075
      vertex 14.7944 -2 -10.4163
      vertex 16.0761 -2 -9.21282
    endloop
  endfacet
  facet normal 0 -1 0
    outer loop
      vertex 13.6738 -2 -11.771
      vertex 10.3365 -2 -9.04725
      vertex 9.05573 -2 -10.5954
    endloop
  endfacet
  facet normal 0 -1 0
    outer loop
      vertex 11.8012 -2 -7.67179
      vertex 13.6738 -2 -11.771
      vertex 14.7944 -2 -10.4163
    endloop
  endfacet
  facet normal 0 -1 0
    outer loop
      vertex 12.7317 -2 -13.2554
      vertex 9.05573 -2 -10.5954
      vertex 7.97909 -2 -12.2919
    endloop
  endfacet
  facet normal 0 -1 0
    outer loop
      vertex 11.9831 -2 -14.8463
      vertex 7.97909 -2 -12.2919
      vertex 7.71335 -2 -12.8567
    endloop
  endfacet
  facet normal 0 -1 0
    outer loop
      vertex 9.05573 -2 -10.5954
      vertex 12.7317 -2 -13.2554
      vertex 13.6738 -2 -11.771
    endloop
  endfacet
  facet normal 0 -1 0
    outer loop
      vertex 0 -2 2
      vertex 13.0666 -2 -2.13316
      vertex 25 -2 2
    endloop
  endfacet
  facet normal 0 -1 0
    outer loop
      vertex 0 -2 2
      vertex 11.2835 -2 -3.11344
      vertex 13.0666 -2 -2.13316
    endloop
  endfacet
  facet normal 0 -1 0
    outer loop
      vertex 0 -2 2
      vertex 9.25152 -2 -4.58974
      vertex 11.2835 -2 -3.11344
    endloop
  endfacet
  facet normal 0 -1 0
    outer loop
      vertex 0 -2 2
      vertex 7.42063 -2 -6.30906
      vertex 9.25152 -2 -4.58974
    endloop
  endfacet
  facet normal 0 -1 0
    outer loop
      vertex 0 -2 2
      vertex 5.81966 -2 -8.2443
      vertex 7.42063 -2 -6.30906
    endloop
  endfacet
  facet normal 0 -1 0
    outer loop
      vertex 0 -2 2
      vertex 4.47387 -2 -10.3649
      vertex 5.81966 -2 -8.2443
    endloop
  endfacet
  facet normal 0 -1 0
    outer loop
      vertex 0 -2 2
      vertex 4.14169 -2 -11.0708
      vertex 4.47387 -2 -10.3649
    endloop
  endfacet
  facet normal 0 -1 0
    outer loop
      vertex 7.97909 -2 -12.2919
      vertex 11.9831 -2 -14.8463
      vertex 12.7317 -2 -13.2554
    endloop
  endfacet
  facet normal 0 -1 0
    outer loop
      vertex 7.71335 -2 -12.8567
      vertex 11.4398 -2 -16.5183
      vertex 11.9831 -2 -14.8463
    endloop
  endfacet
  facet normal 0 -1 0
    outer loop
      vertex 0 -2 -20
      vertex 7.71335 -2 -12.8567
      vertex 4.14169 -2 -11.0708
    endloop
  endfacet
  facet normal 0 -1 0
    outer loop
      vertex 7.71335 -2 -12.8567
      vertex 11.1104 -2 -18.2453
      vertex 11.4398 -2 -16.5183
    endloop
  endfacet
  facet normal 0 -1 0
    outer loop
      vertex 0 -2 -20
      vertex 4.14169 -2 -11.0708
      vertex 0 -2 2
    endloop
  endfacet
  facet normal 0 -1 -0
    outer loop
      vertex 7.71335 -2 -12.8567
      vertex 0 -2 -20
      vertex 11.1104 -2 -18.2453
    endloop
  endfacet
  facet normal 0 -1 0
    outer loop
      vertex 11.1104 -2 -18.2453
      vertex 0 -2 -20
      vertex 11 -2 -20
    endloop
  endfacet
  facet normal 0 -1 0
    outer loop
      vertex 20.6738 -2 -6.68521
      vertex 13.0666 -2 -2.13316
      vertex 14.8533 -2 -5.70653
    endloop
  endfacet
  facet normal 0 -1 0
    outer loop
      vertex 13.0666 -2 -2.13316
      vertex 22.3767 -2 -6.24798
      vertex 25 -2 2
    endloop
  endfacet
  facet normal 0 -1 -0
    outer loop
      vertex 25 -2 2
      vertex 24.1209 -2 -6.02763
      vertex 25 -2 -6.02763
    endloop
  endfacet
  facet normal 0.998027 0 -0.0627901
    outer loop
      vertex 11.1104 -2 -18.2453
      vertex 11 0 -20
      vertex 11.1104 0 -18.2453
    endloop
  endfacet
  facet normal 0.998027 0 -0.0627901
    outer loop
      vertex 11 0 -20
      vertex 11.1104 -2 -18.2453
      vertex 11 -2 -20
    endloop
  endfacet
  facet normal 0.684546 0 -0.728969
    outer loop
      vertex 14.7944 -2 -10.4163
      vertex 16.0761 0 -9.21282
      vertex 16.0761 -2 -9.21282
    endloop
  endfacet
  facet normal 0.684546 0 -0.728969
    outer loop
      vertex 16.0761 0 -9.21282
      vertex 14.7944 -2 -10.4163
      vertex 14.7944 0 -10.4163
    endloop
  endfacet
  facet normal 0.24869 0 -0.968583
    outer loop
      vertex 20.6738 -2 -6.68521
      vertex 22.3767 0 -6.24798
      vertex 22.3767 -2 -6.24798
    endloop
  endfacet
  facet normal 0.24869 0 -0.968583
    outer loop
      vertex 22.3767 0 -6.24798
      vertex 20.6738 -2 -6.68521
      vertex 20.6738 0 -6.68521
    endloop
  endfacet
  facet normal 0.587785 0 -0.809017
    outer loop
      vertex 16.0761 -2 -9.21282
      vertex 17.4984 0 -8.17941
      vertex 17.4984 -2 -8.17941
    endloop
  endfacet
  facet normal 0.587785 0 -0.809017
    outer loop
      vertex 17.4984 0 -8.17941
      vertex 16.0761 -2 -9.21282
      vertex 16.0761 0 -9.21282
    endloop
  endfacet
  facet normal 0.904827 0 -0.425779
    outer loop
      vertex 12.7317 -2 -13.2554
      vertex 11.9831 0 -14.8463
      vertex 12.7317 0 -13.2554
    endloop
  endfacet
  facet normal 0.904827 0 -0.425779
    outer loop
      vertex 11.9831 0 -14.8463
      vertex 12.7317 -2 -13.2554
      vertex 11.9831 -2 -14.8463
    endloop
  endfacet
  facet normal 0.982287 0 -0.187382
    outer loop
      vertex 11.4398 -2 -16.5183
      vertex 11.1104 0 -18.2453
      vertex 11.4398 0 -16.5183
    endloop
  endfacet
  facet normal 0.982287 0 -0.187382
    outer loop
      vertex 11.1104 0 -18.2453
      vertex 11.4398 -2 -16.5183
      vertex 11.1104 -2 -18.2453
    endloop
  endfacet
  facet normal 0.481754 0 -0.876306
    outer loop
      vertex 17.4984 -2 -8.17941
      vertex 19.0391 0 -7.33242
      vertex 19.0391 -2 -7.33242
    endloop
  endfacet
  facet normal 0.481754 0 -0.876306
    outer loop
      vertex 19.0391 0 -7.33242
      vertex 17.4984 -2 -8.17941
      vertex 17.4984 0 -8.17941
    endloop
  endfacet
  facet normal 0.844328 0 -0.535827
    outer loop
      vertex 13.6738 -2 -11.771
      vertex 12.7317 0 -13.2554
      vertex 13.6738 0 -11.771
    endloop
  endfacet
  facet normal 0.844328 0 -0.535827
    outer loop
      vertex 12.7317 0 -13.2554
      vertex 13.6738 -2 -11.771
      vertex 12.7317 -2 -13.2554
    endloop
  endfacet
  facet normal 0.951057 0 -0.309017
    outer loop
      vertex 11.9831 -2 -14.8463
      vertex 11.4398 0 -16.5183
      vertex 11.9831 0 -14.8463
    endloop
  endfacet
  facet normal 0.951057 0 -0.309017
    outer loop
      vertex 11.4398 0 -16.5183
      vertex 11.9831 -2 -14.8463
      vertex 11.4398 -2 -16.5183
    endloop
  endfacet
  facet normal 0.770513 0 -0.637424
    outer loop
      vertex 14.7944 -2 -10.4163
      vertex 13.6738 0 -11.771
      vertex 14.7944 0 -10.4163
    endloop
  endfacet
  facet normal 0.770513 0 -0.637424
    outer loop
      vertex 13.6738 0 -11.771
      vertex 14.7944 -2 -10.4163
      vertex 13.6738 -2 -11.771
    endloop
  endfacet
  facet normal 0 0 -1
    outer loop
      vertex 24.1209 -2 -6.02763
      vertex 25 0 -6.02763
      vertex 25 -2 -6.02763
    endloop
  endfacet
  facet normal -0 0 -1
    outer loop
      vertex 25 0 -6.02763
      vertex 24.1209 -2 -6.02763
      vertex 24.1209 0 -6.02763
    endloop
  endfacet
  facet normal 0.125333 0 -0.992115
    outer loop
      vertex 22.3767 -2 -6.24798
      vertex 24.1209 0 -6.02763
      vertex 24.1209 -2 -6.02763
    endloop
  endfacet
  facet normal 0.125333 0 -0.992115
    outer loop
      vertex 24.1209 0 -6.02763
      vertex 22.3767 -2 -6.24798
      vertex 22.3767 0 -6.24798
    endloop
  endfacet
  facet normal 0.368124 0 -0.929777
    outer loop
      vertex 19.0391 -2 -7.33242
      vertex 20.6738 0 -6.68521
      vertex 20.6738 -2 -6.68521
    endloop
  endfacet
  facet normal 0.368124 0 -0.929777
    outer loop
      vertex 20.6738 0 -6.68521
      vertex 19.0391 -2 -7.33242
      vertex 19.0391 0 -7.33242
    endloop
  endfacet
  facet normal 0.684547 0 -0.728969
    outer loop
      vertex 7.42063 -2 -6.30906
      vertex 9.25152 0 -4.58974
      vertex 9.25152 -2 -4.58974
    endloop
  endfacet
  facet normal 0.684547 0 -0.728969
    outer loop
      vertex 9.25152 0 -4.58974
      vertex 7.42063 -2 -6.30906
      vertex 7.42063 0 -6.30906
    endloop
  endfacet
  facet normal 0.844328 0 -0.535827
    outer loop
      vertex 5.81966 -2 -8.2443
      vertex 4.47387 0 -10.3649
      vertex 5.81966 0 -8.2443
    endloop
  endfacet
  facet normal 0.844328 0 -0.535827
    outer loop
      vertex 4.47387 0 -10.3649
      vertex 5.81966 -2 -8.2443
      vertex 4.47387 -2 -10.3649
    endloop
  endfacet
  facet normal 0.770513 0 -0.637424
    outer loop
      vertex 7.42063 -2 -6.30906
      vertex 5.81966 0 -8.2443
      vertex 7.42063 0 -6.30906
    endloop
  endfacet
  facet normal 0.770513 0 -0.637424
    outer loop
      vertex 5.81966 0 -8.2443
      vertex 7.42063 -2 -6.30906
      vertex 5.81966 -2 -8.2443
    endloop
  endfacet
  facet normal 0.481754 0 -0.876307
    outer loop
      vertex 11.2835 -2 -3.11344
      vertex 13.0666 0 -2.13316
      vertex 13.0666 -2 -2.13316
    endloop
  endfacet
  facet normal 0.481754 0 -0.876307
    outer loop
      vertex 13.0666 0 -2.13316
      vertex 11.2835 -2 -3.11344
      vertex 11.2835 0 -3.11344
    endloop
  endfacet
  facet normal 0.904827 0 -0.425779
    outer loop
      vertex 4.47387 -2 -10.3649
      vertex 4.14169 0 -11.0708
      vertex 4.47387 0 -10.3649
    endloop
  endfacet
  facet normal 0.904827 0 -0.425779
    outer loop
      vertex 4.14169 0 -11.0708
      vertex 4.47387 -2 -10.3649
      vertex 4.14169 -2 -11.0708
    endloop
  endfacet
  facet normal 0.587785 0 -0.809017
    outer loop
      vertex 9.25152 -2 -4.58974
      vertex 11.2835 0 -3.11344
      vertex 11.2835 -2 -3.11344
    endloop
  endfacet
  facet normal 0.587785 0 -0.809017
    outer loop
      vertex 11.2835 0 -3.11344
      vertex 9.25152 -2 -4.58974
      vertex 9.25152 0 -4.58974
    endloop
  endfacet
  facet normal -0.904827 0 0.425779
    outer loop
      vertex 7.71335 -2 -12.8567
      vertex 7.97909 0 -12.2919
      vertex 7.71335 0 -12.8567
    endloop
  endfacet
  facet normal -0.904827 0 0.425779
    outer loop
      vertex 7.97909 0 -12.2919
      vertex 7.71335 -2 -12.8567
      vertex 7.97909 -2 -12.2919
    endloop
  endfacet
  facet normal -0.770513 0 0.637424
    outer loop
      vertex 9.05573 -2 -10.5954
      vertex 10.3365 0 -9.04725
      vertex 9.05573 0 -10.5954
    endloop
  endfacet
  facet normal -0.770513 0 0.637424
    outer loop
      vertex 10.3365 0 -9.04725
      vertex 9.05573 -2 -10.5954
      vertex 10.3365 -2 -9.04725
    endloop
  endfacet
  facet normal -0.684547 0 0.728969
    outer loop
      vertex 10.3365 0 -9.04725
      vertex 11.8012 -2 -7.67179
      vertex 11.8012 0 -7.67179
    endloop
  endfacet
  facet normal -0.684547 0 0.728969
    outer loop
      vertex 11.8012 -2 -7.67179
      vertex 10.3365 0 -9.04725
      vertex 10.3365 -2 -9.04725
    endloop
  endfacet
  facet normal -0.844328 0 0.535827
    outer loop
      vertex 7.97909 -2 -12.2919
      vertex 9.05573 0 -10.5954
      vertex 7.97909 0 -12.2919
    endloop
  endfacet
  facet normal -0.844328 0 0.535827
    outer loop
      vertex 9.05573 0 -10.5954
      vertex 7.97909 -2 -12.2919
      vertex 9.05573 -2 -10.5954
    endloop
  endfacet
  facet normal -0.481754 0 0.876307
    outer loop
      vertex 13.4268 0 -6.49075
      vertex 14.8533 -2 -5.70653
      vertex 14.8533 0 -5.70653
    endloop
  endfacet
  facet normal -0.481754 0 0.876307
    outer loop
      vertex 14.8533 -2 -5.70653
      vertex 13.4268 0 -6.49075
      vertex 13.4268 -2 -6.49075
    endloop
  endfacet
  facet normal -0.587785 0 0.809017
    outer loop
      vertex 11.8012 0 -7.67179
      vertex 13.4268 -2 -6.49075
      vertex 13.4268 0 -6.49075
    endloop
  endfacet
  facet normal -0.587785 0 0.809017
    outer loop
      vertex 13.4268 -2 -6.49075
      vertex 11.8012 0 -7.67179
      vertex 11.8012 -2 -7.67179
    endloop
  endfacet
  facet normal 0.447214 0 0.894427
    outer loop
      vertex 4.14169 0 -11.0708
      vertex 7.71335 -2 -12.8567
      vertex 7.71335 0 -12.8567
    endloop
  endfacet
  facet normal 0.447214 0 0.894427
    outer loop
      vertex 7.71335 -2 -12.8567
      vertex 4.14169 0 -11.0708
      vertex 4.14169 -2 -11.0708
    endloop
  endfacet
  facet normal -0.894427 0 -0.447214
    outer loop
      vertex 14.8533 -2 -5.70653
      vertex 13.0666 0 -2.13316
      vertex 14.8533 0 -5.70653
    endloop
  endfacet
  facet normal -0.894427 -0 -0.447214
    outer loop
      vertex 13.0666 0 -2.13316
      vertex 14.8533 -2 -5.70653
      vertex 13.0666 -2 -2.13316
    endloop
  endfacet
  facet normal 1 1.58946e-07 -1.58946e-07
    outer loop
      vertex 2 0 0
      vertex 2 0 -6
      vertex 2 6 0
    endloop
  endfacet
  facet normal 0 0.707107 -0.707107
    outer loop
      vertex 2 0 -6
      vertex 0 6 0
      vertex 2 6 0
    endloop
  endfacet
  facet normal 0 0.707107 -0.707107
    outer loop
      vertex 0 6 0
      vertex 2 0 -6
      vertex 0 0 -6
    endloop
  endfacet
endsolid OpenSCAD_Model
