<?xml version="1.0" standalone="no"?>
<!DOCTYPE svg PUBLIC "-//W3C//DTD SVG 1.1//EN" "http://www.w3.org/Graphics/SVG/1.1/DTD/svg11.dtd">
<svg width="220mm" height="220mm" viewBox="-110 -110 220 220" xmlns="http://www.w3.org/2000/svg" version="1.1">
<title>OpenSCAD Model</title>
<path d="
M 110,-110 L -110,-110 L -110,110 L 110,110 z
M -105.126,-103.004 L -105.251,-103.016 L -105.375,-103.035 L -105.497,-103.063 L -105.618,-103.098 L -105.736,-103.14
 L -105.852,-103.19 L -105.964,-103.247 L -106.072,-103.311 L -106.176,-103.382 L -106.275,-103.459 L -106.369,-103.542
 L -106.458,-103.631 L -106.541,-103.725 L -106.618,-103.824 L -106.689,-103.928 L -106.753,-104.036 L -106.81,-104.148
 L -106.86,-104.264 L -106.902,-104.382 L -106.937,-104.503 L -106.965,-104.625 L -106.984,-104.749 L -106.996,-104.874
 L -107,-105 L -106.996,-105.126 L -106.984,-105.251 L -106.965,-105.375 L -106.937,-105.497 L -106.902,-105.618
 L -106.86,-105.736 L -106.81,-105.852 L -106.753,-105.964 L -106.689,-106.072 L -106.618,-106.176 L -106.541,-106.275
 L -106.458,-106.369 L -106.369,-106.458 L -106.275,-106.541 L -106.176,-106.618 L -106.072,-106.689 L -105.964,-106.753
 L -105.852,-106.81 L -105.736,-106.86 L -105.618,-106.902 L -105.497,-106.937 L -105.375,-106.965 L -105.251,-106.984
 L -105.126,-106.996 L -105,-107 L -104.874,-106.996 L -104.749,-106.984 L -104.625,-106.965 L -104.503,-106.937
 L -104.382,-106.902 L -104.264,-106.86 L -104.148,-106.81 L -104.036,-106.753 L -103.928,-106.689 L -103.824,-106.618
 L -103.725,-106.541 L -103.631,-106.458 L -103.542,-106.369 L -103.459,-106.275 L -103.382,-106.176 L -103.311,-106.072
 L -103.247,-105.964 L -103.19,-105.852 L -103.14,-105.736 L -103.098,-105.618 L -103.063,-105.497 L -103.035,-105.375
 L -103.016,-105.251 L -103.004,-105.126 L -103,-105 L -103.004,-104.874 L -103.016,-104.749 L -103.035,-104.625
 L -103.063,-104.503 L -103.098,-104.382 L -103.14,-104.264 L -103.19,-104.148 L -103.247,-104.036 L -103.311,-103.928
 L -103.382,-103.824 L -103.459,-103.725 L -103.542,-103.631 L -103.631,-103.542 L -103.725,-103.459 L -103.824,-103.382
 L -103.928,-103.311 L -104.036,-103.247 L -104.148,-103.19 L -104.264,-103.14 L -104.382,-103.098 L -104.503,-103.063
 L -104.625,-103.035 L -104.749,-103.016 L -104.874,-103.004 L -105,-103 z
M 104.874,-103.004 L 104.749,-103.016 L 104.625,-103.035 L 104.503,-103.063 L 104.382,-103.098 L 104.264,-103.14
 L 104.148,-103.19 L 104.036,-103.247 L 103.928,-103.311 L 103.824,-103.382 L 103.725,-103.459 L 103.631,-103.542
 L 103.542,-103.631 L 103.459,-103.725 L 103.382,-103.824 L 103.311,-103.928 L 103.247,-104.036 L 103.19,-104.148
 L 103.14,-104.264 L 103.098,-104.382 L 103.063,-104.503 L 103.035,-104.625 L 103.016,-104.749 L 103.004,-104.874
 L 103,-105 L 103.004,-105.126 L 103.016,-105.251 L 103.035,-105.375 L 103.063,-105.497 L 103.098,-105.618
 L 103.14,-105.736 L 103.19,-105.852 L 103.247,-105.964 L 103.311,-106.072 L 103.382,-106.176 L 103.459,-106.275
 L 103.542,-106.369 L 103.631,-106.458 L 103.725,-106.541 L 103.824,-106.618 L 103.928,-106.689 L 104.036,-106.753
 L 104.148,-106.81 L 104.264,-106.86 L 104.382,-106.902 L 104.503,-106.937 L 104.625,-106.965 L 104.749,-106.984
 L 104.874,-106.996 L 105,-107 L 105.126,-106.996 L 105.251,-106.984 L 105.375,-106.965 L 105.497,-106.937
 L 105.618,-106.902 L 105.736,-106.86 L 105.852,-106.81 L 105.964,-106.753 L 106.072,-106.689 L 106.176,-106.618
 L 106.275,-106.541 L 106.369,-106.458 L 106.458,-106.369 L 106.541,-106.275 L 106.618,-106.176 L 106.689,-106.072
 L 106.753,-105.964 L 106.81,-105.852 L 106.86,-105.736 L 106.902,-105.618 L 106.937,-105.497 L 106.965,-105.375
 L 106.984,-105.251 L 106.996,-105.126 L 107,-105 L 106.996,-104.874 L 106.984,-104.749 L 106.965,-104.625
 L 106.937,-104.503 L 106.902,-104.382 L 106.86,-104.264 L 106.81,-104.148 L 106.753,-104.036 L 106.689,-103.928
 L 106.618,-103.824 L 106.541,-103.725 L 106.458,-103.631 L 106.369,-103.542 L 106.275,-103.459 L 106.176,-103.382
 L 106.072,-103.311 L 105.964,-103.247 L 105.852,-103.19 L 105.736,-103.14 L 105.618,-103.098 L 105.497,-103.063
 L 105.375,-103.035 L 105.251,-103.016 L 105.126,-103.004 L 105,-103 z
M 59.0077,-59.7816 L 58.8853,-59.7969 L 58.7638,-59.8204 L 58.6435,-59.8523 L 58.5241,-59.8924 L 58.4058,-59.9408
 L 58.2885,-59.9975 L 58.1723,-60.0624 L 58.0571,-60.1357 L 57.9429,-60.2172 L 57.8298,-60.307 L 57.7177,-60.4051
 L 57.6067,-60.5115 L 57.4882,-60.6362 L 57.3805,-60.7628 L 57.2835,-60.8913 L 57.1971,-61.0216 L 57.1215,-61.1538
 L 57.0566,-61.2878 L 57.0023,-61.4238 L 56.9588,-61.5616 L 56.926,-61.7012 L 56.9039,-61.8428 L 56.8924,-61.9861
 L 56.8917,-62.1314 L 56.9017,-62.2785 L 56.9234,-62.4282 L 56.9576,-62.5808 L 57.0042,-62.7363 L 57.0633,-62.8948
 L 57.1349,-63.0563 L 57.219,-63.2207 L 57.3155,-63.3881 L 57.4245,-63.5584 L 57.5461,-63.7317 L 57.68,-63.9079
 L 57.8265,-64.0871 L 57.9854,-64.2692 L 58.1568,-64.4543 L 59.3066,-65.6422 L 59.0223,-65.9265 L 58.925,-66.0207
 L 58.8287,-66.1073 L 58.7335,-66.1866 L 58.6394,-66.2583 L 58.5464,-66.3225 L 58.4545,-66.3793 L 58.3636,-66.4286
 L 58.2739,-66.4704 L 58.1852,-66.5047 L 58.0976,-66.5315 L 58.0112,-66.5509 L 57.9258,-66.5627 L 57.8414,-66.5671
 L 57.7575,-66.5646 L 57.6731,-66.5551 L 57.5884,-66.5387 L 57.5033,-66.5154 L 57.4177,-66.4852 L 57.3318,-66.4481
 L 57.2455,-66.4041 L 57.1588,-66.3532 L 57.0716,-66.2954 L 56.9841,-66.2307 L 56.8962,-66.159 L 56.808,-66.0805
 L 56.7193,-65.9951 L 56.6326,-65.906 L 56.552,-65.8184 L 56.4776,-65.7322 L 56.4093,-65.6473 L 56.3471,-65.5639
 L 56.291,-65.4819 L 56.2411,-65.4013 L 56.1973,-65.3221 L 56.1596,-65.2443 L 56.1281,-65.1679 L 56.1026,-65.0929
 L 56.0833,-65.0193 L 56.0702,-64.9472 L 56.0628,-64.8756 L 56.0608,-64.8038 L 56.0641,-64.7316 L 56.0727,-64.6591
 L 56.0866,-64.5864 L 56.1059,-64.5133 L 56.1305,-64.4398 L 56.1604,-64.3661 L 56.1956,-64.292 L 56.2362,-64.2176
 L 56.282,-64.1429 L 56.3333,-64.0679 L 56.3898,-63.9926 L 55.4062,-63.173 L 55.2412,-63.4256 L 55.1123,-63.6809
 L 55.0196,-63.939 L 54.9631,-64.1998 L 54.9427,-64.4634 L 54.9585,-64.7297 L 55.0105,-64.9988 L 55.0986,-65.2706
 L 55.2228,-65.5452 L 55.3832,-65.8225 L 55.5798,-66.1026 L 55.8126,-66.3855 L 56.0815,-66.6711 L 56.232,-66.8163
 L 56.3822,-66.9505 L 56.5319,-67.0737 L 56.6812,-67.1858 L 56.83,-67.2868 L 56.9784,-67.3768 L 57.1264,-67.4557
 L 57.274,-67.5236 L 57.4212,-67.5804 L 57.5679,-67.6261 L 57.7142,-67.6608 L 57.8601,-67.6845 L 58.0055,-67.6971
 L 58.1503,-67.699 L 58.2939,-67.6902 L 58.4365,-67.6709 L 58.5779,-67.6409 L 58.7182,-67.6004 L 58.8573,-67.5492
 L 58.9954,-67.4874 L 59.1323,-67.415 L 59.2681,-67.332 L 59.4028,-67.2384 L 59.5364,-67.1341 L 59.6688,-67.0193
 L 59.8001,-66.8938 L 62.0968,-64.5984 L 62.2109,-64.4938 L 62.3208,-64.403 L 62.3742,-64.3628 L 62.4265,-64.326
 L 62.4778,-64.2927 L 62.528,-64.2628 L 62.5772,-64.2364 L 62.6253,-64.2134 L 62.6724,-64.1939 L 62.7184,-64.1778
 L 62.7638,-64.1657 L 62.809,-64.158 L 62.8542,-64.1548 L 62.8991,-64.1561 L 62.944,-64.1618 L 62.9886,-64.172
 L 63.0332,-64.1866 L 63.0776,-64.2057 L 63.1219,-64.2292 L 63.166,-64.2572 L 63.2099,-64.2897 L 63.2538,-64.3266
 L 63.2975,-64.368 L 63.3553,-64.4293 L 63.4515,-64.5473 L 63.5478,-64.6848 L 64.0845,-64.1481 L 64.0455,-64.0864
 L 63.9644,-63.9651 L 63.879,-63.8469 L 63.7892,-63.7316 L 63.6952,-63.6192 L 63.5968,-63.5099 L 63.494,-63.4035
 L 63.4202,-63.3327 L 63.3465,-63.268 L 63.2729,-63.2093 L 63.1995,-63.1568 L 63.1261,-63.1103 L 63.0528,-63.0699
 L 62.9797,-63.0355 L 62.9066,-63.0073 L 62.8337,-62.9851 L 62.7608,-62.9691 L 62.6881,-62.9591 L 62.6155,-62.9552
 L 62.543,-62.9574 L 62.4699,-62.9655 L 62.3956,-62.9793 L 62.3202,-62.9987 L 62.2437,-63.0237 L 62.166,-63.0543
 L 62.0872,-63.0906 L 62.0072,-63.1324 L 61.9261,-63.1799 L 61.8439,-63.2331 L 61.7605,-63.2918 L 61.676,-63.3562
 L 61.5903,-63.4262 L 61.5036,-63.5018 L 61.4746,-63.4728 L 61.5125,-63.3316 L 61.5449,-63.1933 L 61.572,-63.0577
 L 61.5936,-62.925 L 61.6099,-62.7951 L 61.6207,-62.668 L 61.6262,-62.5438 L 61.6262,-62.4224 L 61.6208,-62.3038
 L 61.61,-62.1881 L 61.5939,-62.0752 L 61.5723,-61.9651 L 61.5453,-61.8578 L 61.513,-61.7525 L 61.4755,-61.6479
 L 61.4329,-61.5439 L 61.3851,-61.4406 L 61.3321,-61.338 L 61.274,-61.2361 L 61.2107,-61.1348 L 61.1422,-61.0342
 L 61.0685,-60.9342 L 60.9897,-60.835 L 60.9057,-60.7364 L 60.8165,-60.6384 L 60.7222,-60.5412 L 60.6014,-60.4253
 L 60.4804,-60.3189 L 60.3591,-60.222 L 60.2375,-60.1345 L 60.1156,-60.0566 L 59.9935,-59.9881 L 59.8711,-59.9292
 L 59.7485,-59.8797 L 59.6256,-59.8397 L 59.5024,-59.8092 L 59.3789,-59.7882 L 59.2552,-59.7767 L 59.1312,-59.7747
 z
M 59.459,-60.9636 L 59.529,-60.971 L 59.5985,-60.9835 L 59.6677,-61.0009 L 59.7364,-61.0234 L 59.8047,-61.0509
 L 59.8726,-61.0834 L 59.94,-61.121 L 60.0071,-61.1636 L 60.0737,-61.2112 L 60.1399,-61.2638 L 60.2057,-61.3214
 L 60.2711,-61.384 L 60.3425,-61.458 L 60.4101,-61.5333 L 60.4739,-61.6098 L 60.5339,-61.6877 L 60.5901,-61.7669
 L 60.6425,-61.8473 L 60.691,-61.9291 L 60.7358,-62.0121 L 60.7768,-62.0965 L 60.8139,-62.1821 L 60.8472,-62.2691
 L 60.8768,-62.3573 L 60.9025,-62.4468 L 60.9246,-62.5371 L 60.9429,-62.6275 L 60.9574,-62.7179 L 60.9682,-62.8083
 L 60.9752,-62.8988 L 60.9785,-62.9893 L 60.978,-63.0799 L 60.9737,-63.1705 L 60.9657,-63.2612 L 60.954,-63.3518
 L 60.9385,-63.4426 L 60.9192,-63.5333 L 60.8961,-63.6241 L 60.8698,-63.7139 L 60.8407,-63.8013 L 60.8089,-63.8864
 L 60.7742,-63.9692 L 60.7368,-64.0498 L 60.6965,-64.1281 L 60.6535,-64.2041 L 60.6077,-64.2777 L 60.5591,-64.3492
 L 60.5077,-64.4183 L 60.4535,-64.4852 L 60.3966,-64.5497 L 60.3368,-64.612 L 59.9104,-65.0384 L 58.8911,-63.9766
 L 58.725,-63.7943 L 58.649,-63.7066 L 58.5778,-63.6212 L 58.5114,-63.538 L 58.4497,-63.457 L 58.3928,-63.3784
 L 58.3406,-63.302 L 58.2932,-63.2278 L 58.2505,-63.1559 L 58.2126,-63.0862 L 58.1794,-63.0189 L 58.1502,-62.9529
 L 58.1241,-62.8871 L 58.1012,-62.8216 L 58.0816,-62.7563 L 58.0651,-62.6913 L 58.0519,-62.6265 L 58.0419,-62.562
 L 58.0351,-62.4978 L 58.0315,-62.4338 L 58.0312,-62.37 L 58.034,-62.3065 L 58.0401,-62.2432 L 58.0493,-62.1803
 L 58.0621,-62.1177 L 58.0786,-62.0554 L 58.0989,-61.9933 L 58.1229,-61.9314 L 58.1507,-61.8698 L 58.1823,-61.8083
 L 58.2175,-61.7472 L 58.2566,-61.6862 L 58.2994,-61.6255 L 58.346,-61.5649 L 58.3963,-61.5047 L 58.4504,-61.4446
 L 58.5082,-61.3848 L 58.5734,-61.3223 L 58.639,-61.2648 L 58.705,-61.2123 L 58.7715,-61.1648 L 58.8383,-61.1223
 L 58.9056,-61.0847 L 58.9733,-61.0521 L 59.0415,-61.0245 L 59.11,-61.0019 L 59.179,-60.9843 L 59.2485,-60.9716
 L 59.3183,-60.9639 L 59.3886,-60.9612 z
M 50.0586,-64.2686 L 50.9219,-65.1319 L 51.7464,-64.3074 L 50.883,-63.4441 z
M 51.9593,-62.3679 L 52.8226,-63.2312 L 58.0269,-58.0269 L 57.1636,-57.1636 z
M 51.6545,-52.6013 L 51.482,-52.6247 L 51.3074,-52.662 L 51.1302,-52.7129 L 50.9505,-52.7774 L 50.7682,-52.8554
 L 50.5833,-52.947 L 50.3958,-53.0521 L 50.2058,-53.1708 L 50.0131,-53.303 L 49.8179,-53.4488 L 49.6202,-53.6082
 L 49.4198,-53.7811 L 49.2169,-53.9675 L 49.0114,-54.1676 L 48.6208,-54.5808 L 48.285,-54.9845 L 48.0041,-55.3787
 L 47.778,-55.7634 L 47.6066,-56.1386 L 47.4901,-56.5043 L 47.4283,-56.8605 L 47.4214,-57.2073 L 47.4693,-57.5445
 L 47.572,-57.8722 L 47.7294,-58.1905 L 47.9417,-58.4992 L 48.2088,-58.7984 L 48.3,-58.887 L 48.3914,-58.9707
 L 48.483,-59.0495 L 48.5748,-59.1235 L 48.6669,-59.1925 L 48.7592,-59.2566 L 48.8517,-59.3159 L 48.9444,-59.3702
 L 49.0374,-59.4196 L 49.1306,-59.4642 L 49.224,-59.5038 L 49.3177,-59.5386 L 49.4116,-59.5685 L 49.5061,-59.5936
 L 49.6017,-59.6138 L 49.6986,-59.6293 L 49.7966,-59.6398 L 49.8958,-59.6456 L 49.9963,-59.6465 L 50.0979,-59.6426
 L 50.2007,-59.6339 L 50.3046,-59.6203 L 50.4098,-59.6018 L 50.5162,-59.5786 L 50.6237,-59.5505 L 50.7325,-59.5175
 L 50.7424,-59.5274 L 50.1569,-60.0931 L 48.02,-62.23 L 48.8834,-63.0934 L 55.042,-56.9351 L 55.4658,-56.5195
 L 55.7189,-56.2798 L 55.9165,-56.1018 L 56.0174,-56.0174 L 55.1922,-55.1922 L 55.0641,-55.2929 L 54.589,-55.712
 L 54.3033,-55.9848 L 54.2843,-55.9657 L 54.3215,-55.8527 L 54.3535,-55.7411 L 54.3803,-55.6311 L 54.4019,-55.5225
 L 54.4183,-55.4154 L 54.4295,-55.3098 L 54.4354,-55.2057 L 54.4362,-55.1031 L 54.4318,-55.002 L 54.4222,-54.9023
 L 54.4073,-54.8042 L 54.3873,-54.7075 L 54.362,-54.6123 L 54.3318,-54.5183 L 54.2967,-54.4245 L 54.2569,-54.3311
 L 54.2122,-54.2379 L 54.1627,-54.1451 L 54.1085,-54.0525 L 54.0494,-53.9603 L 53.9855,-53.8683 L 53.9169,-53.7767
 L 53.8434,-53.6853 L 53.7651,-53.5943 L 53.682,-53.5035 L 53.5941,-53.4131 L 53.4416,-53.2684 L 53.2875,-53.1378
 L 53.1317,-53.0211 L 52.9742,-52.9185 L 52.8151,-52.8298 L 52.6543,-52.7552 L 52.4918,-52.6945 L 52.3277,-52.6479
 L 52.1618,-52.6152 L 51.9944,-52.5966 L 51.8252,-52.5919 z
M 52.1949,-53.7982 L 52.3059,-53.8147 L 52.4156,-53.8409 L 52.524,-53.8769 L 52.6311,-53.9228 L 52.737,-53.9786
 L 52.8415,-54.0441 L 52.9447,-54.1195 L 53.0466,-54.2047 L 53.1472,-54.2998 L 53.2552,-54.4138 L 53.3523,-54.529
 L 53.4387,-54.6454 L 53.5142,-54.763 L 53.5789,-54.8819 L 53.6329,-55.0021 L 53.676,-55.1234 L 53.7084,-55.246
 L 53.7299,-55.3698 L 53.7406,-55.4949 L 53.7405,-55.6211 L 53.7297,-55.7486 L 53.708,-55.8773 L 53.6755,-56.0082
 L 53.6324,-56.1417 L 53.5788,-56.2779 L 53.5146,-56.4169 L 53.4398,-56.5585 L 53.3544,-56.7029 L 53.2584,-56.85
 L 53.1519,-56.9998 L 53.0348,-57.1523 L 52.9071,-57.3075 L 52.7689,-57.4654 L 52.62,-57.626 L 52.4606,-57.7894
 L 52.3031,-57.943 L 52.1482,-58.0861 L 51.9958,-58.2188 L 51.8461,-58.3409 L 51.699,-58.4527 L 51.5545,-58.5539
 L 51.4126,-58.6447 L 51.2733,-58.725 L 51.1366,-58.7948 L 51.0025,-58.8542 L 50.871,-58.9031 L 50.7421,-58.9416
 L 50.6158,-58.9695 L 50.4913,-58.9871 L 50.3678,-58.9943 L 50.2453,-58.9911 L 50.1239,-58.9777 L 50.0035,-58.9538
 L 49.884,-58.9196 L 49.7656,-58.8751 L 49.6482,-58.8202 L 49.5318,-58.7549 L 49.4165,-58.6793 L 49.3021,-58.5934
 L 49.1888,-58.4971 L 49.0764,-58.3904 L 48.9807,-58.289 L 48.895,-58.1861 L 48.8193,-58.0818 L 48.7536,-57.9762
 L 48.6979,-57.869 L 48.6523,-57.7605 L 48.6167,-57.6506 L 48.591,-57.5393 L 48.5755,-57.4265 L 48.5699,-57.3123
 L 48.5743,-57.1968 L 48.5888,-57.0798 L 48.6133,-56.9613 L 48.6479,-56.8405 L 48.6932,-56.716 L 48.749,-56.5877
 L 48.8154,-56.4558 L 48.8923,-56.3203 L 48.9799,-56.181 L 49.078,-56.0381 L 49.1867,-55.8914 L 49.306,-55.7411
 L 49.4358,-55.5871 L 49.5763,-55.4295 L 49.7273,-55.2681 L 49.8889,-55.1031 L 50.0546,-54.9408 L 50.2163,-54.7893
 L 50.3742,-54.6485 L 50.5282,-54.5184 L 50.6782,-54.3991 L 50.8244,-54.2905 L 50.9666,-54.1926 L 51.1049,-54.1055
 L 51.2394,-54.0291 L 51.3699,-53.9635 L 51.4965,-53.9086 L 51.6192,-53.8644 L 51.738,-53.831 L 51.8541,-53.808
 L 51.969,-53.795 L 52.0826,-53.7917 z
M 46.2685,-47.4593 L 46.0697,-47.4796 L 45.8701,-47.515 L 45.6698,-47.5654 L 45.4687,-47.6309 L 45.2669,-47.7114
 L 45.0643,-47.807 L 44.8609,-47.9175 L 44.6567,-48.0432 L 44.4518,-48.1838 L 44.2462,-48.3395 L 44.0398,-48.5102
 L 43.8326,-48.696 L 43.6246,-48.8968 L 43.4339,-49.0947 L 43.2574,-49.2926 L 43.0951,-49.4906 L 42.9471,-49.6886
 L 42.8133,-49.8866 L 42.6937,-50.0847 L 42.5884,-50.2828 L 42.4973,-50.4809 L 42.4205,-50.6791 L 42.358,-50.8773
 L 42.3096,-51.0755 L 42.2755,-51.2738 L 42.2557,-51.4721 L 42.25,-51.6695 L 42.2585,-51.8649 L 42.2813,-52.0583
 L 42.3183,-52.2497 L 42.3695,-52.4391 L 42.435,-52.6265 L 42.5148,-52.8119 L 42.6087,-52.9952 L 42.717,-53.1766
 L 42.8394,-53.3559 L 42.9762,-53.5333 L 43.1271,-53.7086 L 43.2923,-53.8819 L 43.6479,-54.2048 L 44.009,-54.4678
 L 44.3757,-54.671 L 44.748,-54.8143 L 45.1259,-54.8978 L 45.5094,-54.9214 L 45.8984,-54.8852 L 46.293,-54.7891
 L 46.6931,-54.6332 L 47.0989,-54.4174 L 47.5102,-54.1418 L 47.9271,-53.8063 L 48.3495,-53.411 L 48.4648,-53.2957
 L 44.7518,-49.5827 L 44.8886,-49.4502 L 45.0251,-49.327 L 45.1611,-49.2129 L 45.2966,-49.108 L 45.4318,-49.0123
 L 45.5665,-48.9258 L 45.7008,-48.8485 L 45.8347,-48.7804 L 45.9681,-48.7215 L 46.1011,-48.6718 L 46.2337,-48.6313
 L 46.3659,-48.6 L 46.4976,-48.5779 L 46.6283,-48.5655 L 46.7573,-48.5628 L 46.8846,-48.5699 L 47.0102,-48.5868
 L 47.1341,-48.6134 L 47.2563,-48.6497 L 47.3769,-48.6959 L 47.4957,-48.7518 L 47.6129,-48.8174 L 47.7283,-48.8928
 L 47.8421,-48.978 L 47.9542,-49.0729 L 48.0646,-49.1775 L 48.1486,-49.2643 L 48.2273,-49.351 L 48.3006,-49.4378
 L 48.3687,-49.5246 L 48.4313,-49.6115 L 48.4887,-49.6984 L 48.5407,-49.7853 L 48.5873,-49.8722 L 48.6287,-49.9592
 L 48.6646,-50.0462 L 48.6953,-50.1333 L 48.7206,-50.2204 L 48.7406,-50.3075 L 48.7558,-50.394 L 48.7671,-50.4794
 L 48.7744,-50.5636 L 48.7776,-50.6467 L 48.7768,-50.7285 L 48.772,-50.8092 L 48.7632,-50.8887 L 48.7504,-50.9671
 L 48.7336,-51.0443 L 48.7127,-51.1203 L 48.6878,-51.1951 L 48.6589,-51.2688 L 48.626,-51.3413 L 49.5997,-51.8822
 L 49.7032,-51.6213 L 49.778,-51.3609 L 49.8243,-51.101 L 49.8419,-50.8416 L 49.8308,-50.5827 L 49.7911,-50.3244
 L 49.7228,-50.0666 L 49.6259,-49.8093 L 49.5003,-49.5525 L 49.346,-49.2962 L 49.1632,-49.0405 L 48.9517,-48.7852
 L 48.7115,-48.5305 L 48.5332,-48.3603 L 48.3533,-48.2047 L 48.1718,-48.0638 L 47.9886,-47.9375 L 47.8039,-47.8258
 L 47.6176,-47.7287 L 47.4296,-47.6463 L 47.2401,-47.5786 L 47.049,-47.5254 L 46.8563,-47.4869 L 46.662,-47.4631
 L 46.466,-47.4539 z
M 46.9106,-53.0652 L 46.7737,-53.1766 L 46.6389,-53.2794 L 46.5062,-53.3737 L 46.3754,-53.4595 L 46.2467,-53.5367
 L 46.12,-53.6054 L 45.9954,-53.6656 L 45.8727,-53.7172 L 45.7521,-53.7603 L 45.6335,-53.7948 L 45.5169,-53.8208
 L 45.4024,-53.8383 L 45.2899,-53.8473 L 45.1788,-53.8481 L 45.0686,-53.8409 L 44.9594,-53.8257 L 44.851,-53.8023
 L 44.7434,-53.7709 L 44.6368,-53.7314 L 44.5311,-53.6839 L 44.4262,-53.6283 L 44.3223,-53.5646 L 44.2192,-53.4929
 L 44.117,-53.4131 L 44.0157,-53.3252 L 43.9153,-53.2293 L 43.8224,-53.1314 L 43.7376,-53.0316 L 43.6608,-52.93
 L 43.5922,-52.8264 L 43.5317,-52.721 L 43.4792,-52.6136 L 43.4348,-52.5044 L 43.3985,-52.3933 L 43.3703,-52.2803
 L 43.3502,-52.1654 L 43.3381,-52.0486 L 43.3342,-51.93 L 43.3383,-51.8094 L 43.3503,-51.688 L 43.3701,-51.5669
 L 43.3976,-51.4461 L 43.4329,-51.3256 L 43.4759,-51.2054 L 43.5267,-51.0854 L 43.5852,-50.9658 L 43.6515,-50.8464
 L 43.7255,-50.7273 L 43.8073,-50.6085 L 43.8968,-50.4899 L 43.9941,-50.3717 L 44.0991,-50.2538 z
M 34.1773,-42.8899 L 33.7464,-43.3098 L 33.5074,-43.5334 L 33.3882,-43.6389 L 33.301,-43.7096 L 34.1163,-44.5249
 L 35.0497,-43.6693 L 35.0638,-43.6834 L 35.0242,-43.8098 L 34.9895,-43.9331 L 34.9597,-44.0533 L 34.9349,-44.1706
 L 34.915,-44.2849 L 34.9001,-44.3962 L 34.8901,-44.5044 L 34.885,-44.6096 L 34.8849,-44.7118 L 34.8897,-44.8111
 L 34.8994,-44.9072 L 34.9141,-45.0004 L 34.9337,-45.0906 L 34.958,-45.1789 L 34.9868,-45.2665 L 35.02,-45.3535
 L 35.0576,-45.4398 L 35.0997,-45.5254 L 35.1462,-45.6103 L 35.1972,-45.6946 L 35.2526,-45.7782 L 35.3124,-45.8611
 L 35.3767,-45.9433 L 35.4455,-46.0248 L 35.5186,-46.1057 L 35.5963,-46.1859 L 35.687,-46.2739 L 35.7777,-46.3561
 L 35.8681,-46.4327 L 35.9585,-46.5035 L 36.0487,-46.5686 L 36.1387,-46.628 L 36.2286,-46.6817 L 36.3184,-46.7297
 L 36.408,-46.7719 L 36.4975,-46.8085 L 36.5869,-46.8393 L 36.6761,-46.8644 L 36.7651,-46.8838 L 36.8546,-46.8976
 L 36.9449,-46.9055 L 37.0361,-46.9077 L 37.1281,-46.9042 L 37.2208,-46.8949 L 37.3145,-46.8797 L 37.4089,-46.8589
 L 37.5041,-46.8322 L 37.6002,-46.7998 L 37.6971,-46.7615 L 37.7948,-46.7176 L 37.8933,-46.6678 L 37.9927,-46.6123
 L 38.0068,-46.6264 L 37.97,-46.7474 L 37.9381,-46.8663 L 37.9109,-46.9829 L 37.8886,-47.0975 L 37.871,-47.2099
 L 37.8583,-47.3202 L 37.8503,-47.4283 L 37.8472,-47.5343 L 37.8489,-47.6382 L 37.8553,-47.7399 L 37.8666,-47.8394
 L 37.8827,-47.9369 L 37.9036,-48.0322 L 37.9291,-48.1259 L 37.9594,-48.2189 L 37.9942,-48.3111 L 38.0337,-48.4023
 L 38.0778,-48.4928 L 38.1265,-48.5825 L 38.1799,-48.6713 L 38.2379,-48.7593 L 38.3005,-48.8465 L 38.3677,-48.9328
 L 38.4396,-49.0183 L 38.5161,-49.103 L 38.5972,-49.1868 L 38.7184,-49.303 L 38.8396,-49.4089 L 38.9607,-49.5047
 L 39.0818,-49.5904 L 39.2029,-49.6659 L 39.3239,-49.7313 L 39.4449,-49.7865 L 39.5659,-49.8315 L 39.6869,-49.8665
 L 39.8078,-49.8912 L 39.9288,-49.9058 L 40.0497,-49.9102 L 40.1705,-49.9046 L 40.2924,-49.8885 L 40.4166,-49.8618
 L 40.543,-49.8243 L 40.6716,-49.7761 L 40.8026,-49.7172 L 40.9357,-49.6475 L 41.0712,-49.5671 L 41.2089,-49.476
 L 41.3488,-49.3741 L 41.491,-49.2616 L 41.6355,-49.1382 L 41.7823,-49.0042 L 41.9312,-48.8595 L 45.3954,-45.3954
 L 44.5419,-44.5419 L 41.2453,-47.8384 L 41.1308,-47.9505 L 41.0193,-48.0546 L 40.9109,-48.1508 L 40.8056,-48.239
 L 40.7034,-48.3193 L 40.6042,-48.3916 L 40.5081,-48.4559 L 40.415,-48.5123 L 40.3251,-48.5608 L 40.2382,-48.6012
 L 40.1543,-48.6337 L 40.0736,-48.6583 L 39.9959,-48.6749 L 39.9195,-48.6838 L 39.8425,-48.6854 L 39.7651,-48.6797
 L 39.6871,-48.6666 L 39.6087,-48.6462 L 39.5296,-48.6184 L 39.4501,-48.5832 L 39.3701,-48.5407 L 39.2895,-48.4909
 L 39.2085,-48.4337 L 39.1268,-48.3692 L 39.0447,-48.2973 L 38.9621,-48.2181 L 38.8788,-48.1299 L 38.8035,-48.0396
 L 38.7362,-47.9474 L 38.6768,-47.8532 L 38.6255,-47.757 L 38.582,-47.6588 L 38.5466,-47.5586 L 38.5191,-47.4564
 L 38.4995,-47.3522 L 38.488,-47.2461 L 38.4844,-47.1379 L 38.4887,-47.0278 L 38.5011,-46.9156 L 38.5212,-46.8024
 L 38.5493,-46.6886 L 38.5853,-46.5744 L 38.6292,-46.4597 L 38.6811,-46.3446 L 38.7408,-46.229 L 38.8085,-46.1129
 L 38.8841,-45.9964 L 38.9676,-45.8794 L 39.059,-45.7619 L 39.1583,-45.644 L 39.2655,-45.5255 L 39.3807,-45.4067
 L 42.3937,-42.3937 L 41.5402,-41.5402 L 38.2437,-44.8367 L 38.1291,-44.9488 L 38.0177,-45.053 L 37.9093,-45.1491
 L 37.804,-45.2374 L 37.7017,-45.3176 L 37.6025,-45.3899 L 37.5064,-45.4543 L 37.4134,-45.5107 L 37.3234,-45.5591
 L 37.2365,-45.5996 L 37.1527,-45.6321 L 37.0719,-45.6566 L 36.9942,-45.6732 L 36.9178,-45.6822 L 36.8409,-45.6838
 L 36.7635,-45.6781 L 36.6855,-45.665 L 36.6071,-45.6446 L 36.5281,-45.6169 L 36.4487,-45.5818 L 36.3687,-45.5394
 L 36.2882,-45.4896 L 36.2072,-45.4325 L 36.1257,-45.3681 L 36.0437,-45.2963 L 35.9611,-45.2172 L 35.8799,-45.131
 L 35.8065,-45.0425 L 35.7408,-44.9518 L 35.6828,-44.8587 L 35.6326,-44.7635 L 35.59,-44.6659 L 35.5553,-44.5661
 L 35.5283,-44.464 L 35.509,-44.3597 L 35.4975,-44.2531 L 35.4937,-44.1442 L 35.4976,-44.033 L 35.5093,-43.9196
 L 35.5288,-43.8049 L 35.5562,-43.6899 L 35.5916,-43.5746 L 35.6348,-43.4591 L 35.6859,-43.3432 L 35.745,-43.227
 L 35.8119,-43.1106 L 35.8868,-42.9938 L 35.9696,-42.8768 L 36.0603,-42.7594 L 36.1588,-42.6418 L 36.2653,-42.5239
 L 36.3797,-42.4057 L 39.3927,-39.3927 L 38.5343,-38.5343 z
M 32.9107,-34.117 L 32.7144,-34.1414 L 32.5176,-34.18 L 32.3204,-34.2327 L 32.1228,-34.2996 L 31.9248,-34.3807
 L 31.7263,-34.476 L 31.5275,-34.5854 L 31.3282,-34.709 L 31.1285,-34.8468 L 30.9284,-34.9988 L 30.7278,-35.1649
 L 30.5269,-35.3452 L 30.3255,-35.5397 L 29.9417,-35.9511 L 29.6173,-36.3583 L 29.3523,-36.7612 L 29.1467,-37.16
 L 29.0005,-37.5545 L 28.9137,-37.9448 L 28.8863,-38.3308 L 28.9183,-38.7127 L 29.0096,-39.0903 L 29.1604,-39.4638
 L 29.3706,-39.833 L 29.6402,-40.198 L 29.9691,-40.5587 L 30.1527,-40.7346 L 30.3366,-40.8952 L 30.5207,-41.0405
 L 30.7052,-41.1707 L 30.89,-41.2856 L 31.075,-41.3854 L 31.2604,-41.4699 L 31.4461,-41.5392 L 31.6321,-41.5933
 L 31.8183,-41.6322 L 32.0049,-41.6559 L 32.1918,-41.6644 L 32.379,-41.6576 L 32.5672,-41.6358 L 32.7574,-41.5989
 L 32.9495,-41.5467 L 33.1434,-41.4793 L 33.3392,-41.3967 L 33.537,-41.2989 L 33.7366,-41.1859 L 33.9381,-41.0576
 L 34.1415,-40.9142 L 34.3468,-40.7555 L 34.554,-40.5816 L 34.7631,-40.3925 L 34.974,-40.1882 L 35.1761,-39.979
 L 35.3628,-39.771 L 35.5342,-39.5641 L 35.6902,-39.3582 L 35.8309,-39.1535 L 35.9562,-38.95 L 36.0662,-38.7475
 L 36.1608,-38.5462 L 36.2401,-38.346 L 36.3041,-38.1469 L 36.3527,-37.9489 L 36.3859,-37.7521 L 36.4038,-37.5564
 L 36.4068,-37.3621 L 36.3954,-37.1692 L 36.3697,-36.9778 L 36.3297,-36.7879 L 36.2754,-36.5994 L 36.2068,-36.4124
 L 36.1238,-36.2269 L 36.0266,-36.0428 L 35.915,-35.8602 L 35.7891,-35.6791 L 35.6488,-35.4994 L 35.4943,-35.3212
 L 35.3255,-35.1445 L 35.1494,-34.9766 L 34.9717,-34.8236 L 34.7924,-34.6853 L 34.6115,-34.5619 L 34.429,-34.4532
 L 34.2449,-34.3594 L 34.0591,-34.2803 L 33.8717,-34.2161 L 33.6828,-34.1667 L 33.4922,-34.1321 L 33.3,-34.1123
 L 33.1061,-34.1072 z
M 33.621,-35.2104 L 33.7448,-35.2303 L 33.867,-35.2609 L 33.9877,-35.3022 L 34.1067,-35.354 L 34.2242,-35.4165
 L 34.3401,-35.4897 L 34.4545,-35.5735 L 34.5673,-35.668 L 34.6785,-35.7731 L 34.7929,-35.8934 L 34.8961,-36.0143
 L 34.9881,-36.1359 L 35.069,-36.2581 L 35.1387,-36.381 L 35.1972,-36.5044 L 35.2445,-36.6286 L 35.2806,-36.7533
 L 35.3056,-36.8787 L 35.3194,-37.0048 L 35.322,-37.1314 L 35.3134,-37.2587 L 35.2936,-37.3867 L 35.263,-37.5163
 L 35.2217,-37.6486 L 35.1699,-37.7836 L 35.1074,-37.9213 L 35.0343,-38.0616 L 34.9506,-38.2047 L 34.8562,-38.3505
 L 34.7513,-38.499 L 34.6358,-38.6501 L 34.5096,-38.804 L 34.3729,-38.9605 L 34.2255,-39.1198 L 34.0675,-39.2817
 L 33.9036,-39.4418 L 33.743,-39.5911 L 33.5854,-39.7297 L 33.431,-39.8575 L 33.2799,-39.9746 L 33.1319,-40.0809
 L 32.987,-40.1765 L 32.8453,-40.2613 L 32.7068,-40.3354 L 32.5715,-40.3987 L 32.4393,-40.4513 L 32.3103,-40.4931
 L 32.1845,-40.5241 L 32.0607,-40.5444 L 31.9375,-40.5538 L 31.8148,-40.5523 L 31.6928,-40.5398 L 31.5714,-40.5164
 L 31.4506,-40.4821 L 31.3304,-40.4368 L 31.2108,-40.3806 L 31.0918,-40.3135 L 30.9734,-40.2355 L 30.8556,-40.1465
 L 30.7384,-40.0466 L 30.6218,-39.9358 L 30.5102,-39.8183 L 30.4094,-39.6999 L 30.3195,-39.5806 L 30.2405,-39.4604
 L 30.1724,-39.3393 L 30.1151,-39.2173 L 30.0687,-39.0945 L 30.0332,-38.9707 L 30.0086,-38.8461 L 29.9948,-38.7205
 L 29.9919,-38.594 L 29.9998,-38.4667 L 30.0186,-38.3384 L 30.0481,-38.2086 L 30.0882,-38.076 L 30.139,-37.9409
 L 30.2004,-37.8032 L 30.2724,-37.6629 L 30.3551,-37.5199 L 30.4485,-37.3744 L 30.5524,-37.2262 L 30.6671,-37.0754
 L 30.7923,-36.922 L 30.9283,-36.7661 L 31.0748,-36.6074 L 31.232,-36.4462 L 31.3891,-36.2932 L 31.544,-36.1501
 L 31.6968,-36.0171 L 31.8476,-35.894 L 31.9962,-35.781 L 32.1428,-35.678 L 32.2872,-35.585 L 32.4296,-35.502
 L 32.5699,-35.429 L 32.7081,-35.366 L 32.8442,-35.313 L 32.9782,-35.27 L 33.1101,-35.2371 L 33.2402,-35.2144
 L 33.3687,-35.2024 L 33.4956,-35.2011 z
M 27.7351,-27.9204 L 27.6233,-28.046 L 27.4042,-28.2806 L 27.016,-28.6797 L 20.7435,-34.9535 L 21.6062,-35.8162
 L 23.6193,-33.8031 L 23.8708,-33.5459 L 24.3286,-33.0557 L 24.3477,-33.0748 L 24.3104,-33.1878 L 24.2784,-33.2993
 L 24.2516,-33.4093 L 24.23,-33.5179 L 24.2136,-33.6249 L 24.2025,-33.7304 L 24.1965,-33.8344 L 24.1957,-33.9369
 L 24.2001,-34.0379 L 24.2098,-34.1373 L 24.2246,-34.2353 L 24.2446,-34.3318 L 24.2699,-34.4267 L 24.3001,-34.521
 L 24.3352,-34.615 L 24.375,-34.7086 L 24.4197,-34.8019 L 24.4692,-34.8949 L 24.5234,-34.9876 L 24.5825,-35.0799
 L 24.6464,-35.172 L 24.7151,-35.2637 L 24.7885,-35.3551 L 24.8668,-35.4462 L 24.9499,-35.537 L 25.0378,-35.6274
 L 25.1904,-35.7722 L 25.3446,-35.9029 L 25.5005,-36.0196 L 25.6581,-36.1222 L 25.8173,-36.2109 L 25.9782,-36.2855
 L 26.1407,-36.3461 L 26.3049,-36.3927 L 26.4707,-36.4252 L 26.6382,-36.4437 L 26.8074,-36.4482 L 26.9782,-36.4387
 L 27.1506,-36.4151 L 27.3252,-36.378 L 27.5024,-36.3273 L 27.6821,-36.263 L 27.8644,-36.1852 L 28.0493,-36.0937
 L 28.2368,-35.9887 L 28.4268,-35.8701 L 28.6195,-35.738 L 28.8147,-35.5923 L 29.0125,-35.433 L 29.2128,-35.2601
 L 29.4157,-35.0737 L 29.6213,-34.8736 L 30.0118,-34.4604 L 30.3475,-34.0567 L 30.6285,-33.6625 L 30.8546,-33.2777
 L 31.0259,-32.9025 L 31.1424,-32.5367 L 31.2041,-32.1804 L 31.2109,-31.8337 L 31.163,-31.4964 L 31.0602,-31.1686
 L 30.9027,-30.8503 L 30.6903,-30.5414 L 30.4231,-30.2421 L 30.332,-30.1535 L 30.2407,-30.0698 L 30.1492,-29.9909
 L 30.0576,-29.917 L 29.9657,-29.8479 L 29.8738,-29.7838 L 29.7816,-29.7245 L 29.6893,-29.6701 L 29.5969,-29.6205
 L 29.5042,-29.5759 L 29.4114,-29.5362 L 29.3184,-29.5013 L 29.2253,-29.4713 L 29.1315,-29.4464 L 29.0363,-29.4262
 L 28.9398,-29.4108 L 28.8419,-29.4003 L 28.7426,-29.3946 L 28.642,-29.3938 L 28.54,-29.3978 L 28.4367,-29.4065
 L 28.332,-29.4202 L 28.2259,-29.4386 L 28.1184,-29.4619 L 28.0096,-29.49 L 27.8995,-29.523 L 27.8896,-29.5131
 L 27.9949,-29.4041 L 28.4468,-28.901 L 28.6539,-28.6539 L 27.8195,-27.8195 z
M 28.3759,-30.0471 L 28.498,-30.0596 L 28.6192,-30.0828 L 28.7395,-30.1166 L 28.8588,-30.161 L 28.9772,-30.216
 L 29.0947,-30.2816 L 29.2113,-30.3578 L 29.327,-30.4446 L 29.4417,-30.5421 L 29.5555,-30.6501 L 29.6513,-30.7516
 L 29.7372,-30.8546 L 29.813,-30.9589 L 29.8787,-31.0647 L 29.9345,-31.1718 L 29.9803,-31.2803 L 30.016,-31.3902
 L 30.0417,-31.5016 L 30.0574,-31.6143 L 30.0631,-31.7284 L 30.0588,-31.8439 L 30.0444,-31.9608 L 30.0201,-32.0792
 L 29.9853,-32.2001 L 29.94,-32.3248 L 29.8841,-32.453 L 29.8176,-32.585 L 29.7405,-32.7207 L 29.6529,-32.86
 L 29.5548,-33.003 L 29.446,-33.1497 L 29.3267,-33.3 L 29.1968,-33.454 L 29.0564,-33.6117 L 28.9053,-33.7731
 L 28.7437,-33.9381 L 28.578,-34.1004 L 28.4163,-34.2519 L 28.2584,-34.3927 L 28.1045,-34.5227 L 27.9544,-34.6419
 L 27.8083,-34.7504 L 27.666,-34.8482 L 27.5277,-34.9352 L 27.3933,-35.0114 L 27.2627,-35.0769 L 27.1361,-35.1316
 L 27.0134,-35.1756 L 26.8947,-35.2088 L 26.7785,-35.2319 L 26.6636,-35.2452 L 26.5499,-35.2486 L 26.4376,-35.2422
 L 26.3266,-35.2259 L 26.2168,-35.1998 L 26.1084,-35.1638 L 26.0012,-35.1179 L 25.8953,-35.0622 L 25.7907,-34.9966
 L 25.6874,-34.9212 L 25.5854,-34.8359 L 25.4847,-34.7407 L 25.3774,-34.6275 L 25.2807,-34.5131 L 25.1946,-34.3975
 L 25.1191,-34.2806 L 25.0543,-34.1626 L 25,-34.0433 L 24.9563,-33.9228 L 24.9232,-33.8011 L 24.9007,-33.6782
 L 24.8889,-33.5541 L 24.8876,-33.4288 L 24.8969,-33.3022 L 24.9169,-33.1745 L 24.9477,-33.0447 L 24.9894,-32.912
 L 25.042,-32.7763 L 25.1054,-32.6376 L 25.1798,-32.4959 L 25.2651,-32.3513 L 25.3612,-32.2037 L 25.4683,-32.0531
 L 25.5863,-31.8995 L 25.7151,-31.7429 L 25.8549,-31.5834 L 26.0055,-31.4209 L 26.167,-31.2554 L 26.3231,-31.1032
 L 26.4767,-30.9612 L 26.6279,-30.8294 L 26.7766,-30.7078 L 26.9228,-30.5965 L 27.0666,-30.4953 L 27.2079,-30.4044
 L 27.3467,-30.3236 L 27.4831,-30.2531 L 27.6171,-30.1928 L 27.7485,-30.1427 L 27.8776,-30.1028 L 28.0041,-30.0731
 L 28.129,-30.0538 L 28.2529,-30.0452 z
M 22.2188,-22.9928 L 22.0964,-23.008 L 21.9749,-23.0316 L 21.8546,-23.0634 L 21.7352,-23.1035 L 21.6169,-23.1519
 L 21.4996,-23.2086 L 21.3834,-23.2735 L 21.2682,-23.3468 L 21.1541,-23.4283 L 21.0409,-23.5181 L 20.9288,-23.6162
 L 20.8178,-23.7226 L 20.6994,-23.8473 L 20.5916,-23.9739 L 20.4946,-24.1024 L 20.4082,-24.2327 L 20.3326,-24.3649
 L 20.2677,-24.499 L 20.2134,-24.6349 L 20.1699,-24.7727 L 20.1371,-24.9123 L 20.115,-25.0539 L 20.1035,-25.1973
 L 20.1028,-25.3425 L 20.1128,-25.4896 L 20.1345,-25.6393 L 20.1687,-25.7919 L 20.2153,-25.9474 L 20.2744,-26.1059
 L 20.346,-26.2674 L 20.4301,-26.4318 L 20.5266,-26.5992 L 20.6357,-26.7695 L 20.7572,-26.9428 L 20.8911,-27.119
 L 21.0376,-27.2982 L 21.1965,-27.4803 L 21.3679,-27.6654 L 22.5177,-28.8534 L 22.2334,-29.1376 L 22.1361,-29.2318
 L 22.0398,-29.3185 L 21.9446,-29.3977 L 21.8505,-29.4694 L 21.7575,-29.5336 L 21.6656,-29.5904 L 21.5747,-29.6397
 L 21.485,-29.6815 L 21.3963,-29.7158 L 21.3087,-29.7426 L 21.2223,-29.762 L 21.1369,-29.7738 L 21.0526,-29.7783
 L 20.9686,-29.7757 L 20.8842,-29.7662 L 20.7995,-29.7498 L 20.7144,-29.7265 L 20.6288,-29.6963 L 20.5429,-29.6592
 L 20.4566,-29.6152 L 20.3699,-29.5643 L 20.2827,-29.5065 L 20.1953,-29.4418 L 20.1073,-29.3701 L 20.0191,-29.2916
 L 19.9304,-29.2062 L 19.8437,-29.1172 L 19.7631,-29.0295 L 19.6887,-28.9433 L 19.6204,-28.8585 L 19.5582,-28.775
 L 19.5022,-28.693 L 19.4522,-28.6124 L 19.4084,-28.5332 L 19.3707,-28.4554 L 19.3392,-28.379 L 19.3137,-28.304
 L 19.2944,-28.2304 L 19.2813,-28.1583 L 19.2739,-28.0867 L 19.2719,-28.0149 L 19.2752,-27.9427 L 19.2838,-27.8703
 L 19.2977,-27.7975 L 19.317,-27.7244 L 19.3416,-27.6509 L 19.3715,-27.5772 L 19.4067,-27.5031 L 19.4473,-27.4287
 L 19.4932,-27.354 L 19.5444,-27.279 L 19.6009,-27.2037 L 18.6173,-26.3841 L 18.4523,-26.6367 L 18.3234,-26.892
 L 18.2307,-27.1501 L 18.1742,-27.4109 L 18.1538,-27.6745 L 18.1696,-27.9408 L 18.2216,-28.2099 L 18.3097,-28.4817
 L 18.4339,-28.7563 L 18.5944,-29.0337 L 18.7909,-29.3138 L 19.0237,-29.5966 L 19.2926,-29.8822 L 19.4431,-30.0275
 L 19.5933,-30.1616 L 19.743,-30.2848 L 19.8923,-30.3969 L 20.0411,-30.4979 L 20.1896,-30.5879 L 20.3376,-30.6668
 L 20.4851,-30.7347 L 20.6323,-30.7915 L 20.779,-30.8372 L 20.9253,-30.8719 L 21.0712,-30.8956 L 21.2166,-30.9082
 L 21.3614,-30.9101 L 21.5051,-30.9013 L 21.6476,-30.882 L 21.789,-30.852 L 21.9293,-30.8115 L 22.0685,-30.7603
 L 22.2065,-30.6985 L 22.3434,-30.6261 L 22.4792,-30.5431 L 22.6139,-30.4495 L 22.7475,-30.3452 L 22.8799,-30.2304
 L 23.0112,-30.1049 L 25.3079,-27.8095 L 25.422,-27.7049 L 25.532,-27.6141 L 25.5853,-27.5739 L 25.6377,-27.5372
 L 25.6889,-27.5038 L 25.7392,-27.474 L 25.7883,-27.4475 L 25.8364,-27.4245 L 25.8835,-27.405 L 25.9295,-27.3889
 L 25.9749,-27.3768 L 26.0201,-27.3691 L 26.0653,-27.3659 L 26.1102,-27.3672 L 26.1551,-27.3729 L 26.1998,-27.3831
 L 26.2443,-27.3977 L 26.2887,-27.4168 L 26.333,-27.4403 L 26.3771,-27.4684 L 26.4211,-27.5008 L 26.4649,-27.5378
 L 26.5086,-27.5791 L 26.5664,-27.6404 L 26.6626,-27.7584 L 26.7589,-27.8959 L 27.2956,-27.3592 L 27.2567,-27.2975
 L 27.1756,-27.1762 L 27.0901,-27.058 L 27.0004,-26.9427 L 26.9063,-26.8304 L 26.8079,-26.721 L 26.7052,-26.6147
 L 26.6313,-26.5439 L 26.5576,-26.4791 L 26.4841,-26.4204 L 26.4106,-26.3679 L 26.3372,-26.3214 L 26.2639,-26.281
 L 26.1908,-26.2466 L 26.1177,-26.2184 L 26.0448,-26.1962 L 25.972,-26.1802 L 25.8992,-26.1702 L 25.8266,-26.1663
 L 25.7541,-26.1685 L 25.681,-26.1766 L 25.6067,-26.1904 L 25.5313,-26.2098 L 25.4548,-26.2348 L 25.3771,-26.2654
 L 25.2983,-26.3017 L 25.2183,-26.3436 L 25.1372,-26.3911 L 25.055,-26.4442 L 24.9716,-26.5029 L 24.8871,-26.5673
 L 24.8015,-26.6373 L 24.7147,-26.7129 L 24.6857,-26.6839 L 24.7236,-26.5428 L 24.756,-26.4044 L 24.7831,-26.2688
 L 24.8047,-26.1361 L 24.821,-26.0062 L 24.8318,-25.8792 L 24.8373,-25.7549 L 24.8373,-25.6335 L 24.8319,-25.5149
 L 24.8212,-25.3992 L 24.805,-25.2863 L 24.7834,-25.1762 L 24.7564,-25.0689 L 24.7241,-24.9636 L 24.6866,-24.859
 L 24.644,-24.755 L 24.5962,-24.6517 L 24.5433,-24.5491 L 24.4851,-24.4472 L 24.4218,-24.3459 L 24.3533,-24.2453
 L 24.2796,-24.1454 L 24.2008,-24.0461 L 24.1168,-23.9475 L 24.0276,-23.8496 L 23.9333,-23.7523 L 23.8125,-23.6364
 L 23.6915,-23.53 L 23.5702,-23.4331 L 23.4486,-23.3456 L 23.3267,-23.2677 L 23.2046,-23.1992 L 23.0823,-23.1403
 L 22.9596,-23.0908 L 22.8367,-23.0508 L 22.7135,-23.0203 L 22.59,-22.9993 L 22.4663,-22.9878 L 22.3423,-22.9858
 z
M 22.6701,-24.1747 L 22.7401,-24.1821 L 22.8096,-24.1946 L 22.8788,-24.2121 L 22.9475,-24.2345 L 23.0158,-24.262
 L 23.0837,-24.2946 L 23.1511,-24.3321 L 23.2182,-24.3747 L 23.2848,-24.4223 L 23.351,-24.4749 L 23.4168,-24.5325
 L 23.4822,-24.5952 L 23.5536,-24.6691 L 23.6212,-24.7444 L 23.685,-24.821 L 23.745,-24.8988 L 23.8012,-24.978
 L 23.8536,-25.0584 L 23.9021,-25.1402 L 23.9469,-25.2232 L 23.9879,-25.3076 L 24.025,-25.3932 L 24.0584,-25.4802
 L 24.0879,-25.5684 L 24.1136,-25.6579 L 24.1357,-25.7483 L 24.154,-25.8386 L 24.1685,-25.929 L 24.1793,-26.0194
 L 24.1863,-26.1099 L 24.1896,-26.2005 L 24.1891,-26.291 L 24.1849,-26.3816 L 24.1769,-26.4723 L 24.1651,-26.563
 L 24.1496,-26.6537 L 24.1303,-26.7445 L 24.1073,-26.8353 L 24.081,-26.925 L 24.0519,-27.0124 L 24.02,-27.0975
 L 23.9853,-27.1803 L 23.9479,-27.2609 L 23.9076,-27.3392 L 23.8646,-27.4152 L 23.8188,-27.4889 L 23.7702,-27.5603
 L 23.7188,-27.6294 L 23.6646,-27.6963 L 23.6077,-27.7608 L 23.5479,-27.8231 L 23.1216,-28.2495 L 22.1022,-27.1877
 L 21.9361,-27.0055 L 21.8601,-26.9177 L 21.789,-26.8323 L 21.7225,-26.7491 L 21.6608,-26.6682 L 21.6039,-26.5895
 L 21.5517,-26.5131 L 21.5043,-26.4389 L 21.4617,-26.367 L 21.4237,-26.2974 L 21.3905,-26.23 L 21.3613,-26.164
 L 21.3352,-26.0982 L 21.3123,-26.0327 L 21.2927,-25.9674 L 21.2762,-25.9024 L 21.263,-25.8377 L 21.253,-25.7731
 L 21.2462,-25.7089 L 21.2426,-25.6449 L 21.2423,-25.5811 L 21.2451,-25.5176 L 21.2512,-25.4544 L 21.2605,-25.3914
 L 21.2732,-25.3288 L 21.2897,-25.2665 L 21.31,-25.2044 L 21.334,-25.1425 L 21.3618,-25.0809 L 21.3934,-25.0195
 L 21.4286,-24.9583 L 21.4677,-24.8973 L 21.5105,-24.8366 L 21.5571,-24.776 L 21.6074,-24.7158 L 21.6615,-24.6557
 L 21.7194,-24.5959 L 21.7845,-24.5334 L 21.8501,-24.4759 L 21.9161,-24.4234 L 21.9826,-24.3759 L 22.0494,-24.3334
 L 22.1167,-24.2958 L 22.1844,-24.2632 L 22.2526,-24.2356 L 22.3212,-24.213 L 22.3902,-24.1954 L 22.4596,-24.1827
 L 22.5294,-24.175 L 22.5997,-24.1723 z
M 10.5825,-24.0684 L 11.4982,-24.9841 L 17.493,-18.9892 L 20.9189,-22.4152 L 21.6671,-21.6671 L 17.3254,-17.3254
 z
M 2.09682,-16.3068 L 2.96017,-17.1702 L 4.88744,-15.2421 L 5.24632,-14.864 L 5.71649,-14.3361 L 5.73134,-14.351
 L 5.69824,-14.4713 L 5.66971,-14.5898 L 5.64572,-14.7064 L 5.62627,-14.8211 L 5.61134,-14.9339 L 5.60098,-15.0448
 L 5.59517,-15.1539 L 5.5939,-15.2611 L 5.59715,-15.3664 L 5.60498,-15.4698 L 5.61734,-15.5713 L 5.63423,-15.6709
 L 5.65569,-15.7687 L 5.68202,-15.8656 L 5.71368,-15.9621 L 5.75063,-16.0582 L 5.79283,-16.154 L 5.84036,-16.2495
 L 5.89316,-16.3446 L 5.95125,-16.4393 L 6.01463,-16.5338 L 6.0833,-16.6278 L 6.15726,-16.7215 L 6.23651,-16.8148
 L 6.32104,-16.9078 L 6.41087,-17.0005 L 6.54105,-17.1257 L 6.67093,-17.2406 L 6.80052,-17.3453 L 6.92982,-17.4398
 L 7.05882,-17.524 L 7.18753,-17.5979 L 7.31596,-17.6616 L 7.44409,-17.715 L 7.57193,-17.7583 L 7.69946,-17.7912
 L 7.82672,-17.8139 L 7.95367,-17.8263 L 8.08034,-17.8285 L 8.20775,-17.8199 L 8.33714,-17.7999 L 8.46852,-17.7683
 L 8.60191,-17.7252 L 8.73729,-17.6706 L 8.87465,-17.6046 L 9.01399,-17.527 L 9.15533,-17.4379 L 9.29869,-17.3374
 L 9.444,-17.2253 L 9.59134,-17.1018 L 9.74065,-16.9667 L 9.89195,-16.8202 L 13.3561,-13.3561 L 12.4884,-12.4884
 L 9.19191,-15.785 L 9.02756,-15.9445 L 8.87175,-16.086 L 8.79704,-16.1499 L 8.72447,-16.2093 L 8.65404,-16.2642
 L 8.58572,-16.3146 L 8.51955,-16.3604 L 8.45552,-16.4017 L 8.39362,-16.4385 L 8.33385,-16.4707 L 8.2762,-16.4984
 L 8.2196,-16.5224 L 8.16315,-16.5431 L 8.10686,-16.5606 L 8.0507,-16.5749 L 7.99472,-16.5859 L 7.93886,-16.5937
 L 7.88316,-16.5983 L 7.82762,-16.5996 L 7.77222,-16.5977 L 7.71696,-16.5926 L 7.66188,-16.5842 L 7.60692,-16.5726
 L 7.55214,-16.5578 L 7.49699,-16.5397 L 7.44122,-16.518 L 7.38483,-16.4927 L 7.3278,-16.4638 L 7.27016,-16.4314
 L 7.21187,-16.3953 L 7.15295,-16.3557 L 7.09343,-16.3124 L 7.03326,-16.2656 L 6.97247,-16.2152 L 6.91106,-16.1611
 L 6.84901,-16.1035 L 6.78633,-16.0424 L 6.69608,-15.9471 L 6.61369,-15.8497 L 6.53922,-15.7502 L 6.47264,-15.6486
 L 6.41393,-15.5448 L 6.36313,-15.439 L 6.32021,-15.331 L 6.28519,-15.2209 L 6.25806,-15.1087 L 6.2388,-14.9944
 L 6.22746,-14.878 L 6.22398,-14.7594 L 6.22842,-14.6387 L 6.24072,-14.5175 L 6.26085,-14.3971 L 6.2888,-14.2775
 L 6.3246,-14.1589 L 6.36823,-14.0412 L 6.41968,-13.9243 L 6.47897,-13.8084 L 6.54608,-13.6933 L 6.62103,-13.5791
 L 6.70383,-13.4658 L 6.79443,-13.3534 L 6.8929,-13.2418 L 6.99918,-13.1312 L 10.0652,-10.0652 L 9.20181,-9.20181
 z
M 6.56644,-7.071 L 6.39445,-7.10887 L 6.22066,-7.17294 L 6.04507,-7.26318 L 5.86768,-7.37962 L 5.68848,-7.52223
 L 5.50749,-7.69102 L 2.02287,-11.1756 L 1.42325,-10.576 L 0.795334,-11.2039 L 1.42821,-11.8368 L 0.506134,-13.268
 L 1.08171,-13.8436 L 2.25835,-12.6669 L 3.20729,-13.6159 L 3.83519,-12.988 L 2.88625,-12.039 L 6.18631,-8.73895
 L 6.2437,-8.68303 L 6.29984,-8.63118 L 6.35472,-8.58342 L 6.4084,-8.53976 L 6.46086,-8.5002 L 6.51207,-8.46474
 L 6.56206,-8.43335 L 6.61081,-8.40605 L 6.65834,-8.38284 L 6.70465,-8.36374 L 6.74971,-8.34872 L 6.79355,-8.33778
 L 6.83615,-8.33096 L 6.8783,-8.32814 L 6.92078,-8.32922 L 6.96355,-8.33421 L 7.00665,-8.34314 L 7.05008,-8.35599
 L 7.09383,-8.37274 L 7.13788,-8.3934 L 7.18225,-8.41798 L 7.22694,-8.4465 L 7.27196,-8.47891 L 7.31729,-8.51524
 L 7.36295,-8.5555 L 7.43562,-8.62718 L 7.49211,-8.69002 L 7.58444,-8.80382 L 7.68587,-8.94102 L 7.83528,-9.1604
 L 8.4731,-8.52258 L 8.42476,-8.44016 L 8.32327,-8.27867 L 8.21541,-8.1217 L 8.10117,-7.96925 L 7.9805,-7.82132
 L 7.85345,-7.67792 L 7.72002,-7.53902 L 7.56062,-7.3936 L 7.39943,-7.27438 L 7.23642,-7.18134 L 7.07162,-7.11447
 L 6.90504,-7.07379 L 6.73663,-7.05931 z
M -2.72722,-11.4828 L -1.86385,-12.3461 L -1.03935,-11.5217 L -1.90274,-10.6583 z
M -0.826523,-9.58206 L 0.03685,-10.4454 L 5.24115,-5.24115 L 4.37776,-4.37776 z
M -8.42078,-1.98781 L -7.56729,-2.84128 L -2.97629,-0.0791168 L -1.98965,0.561295 L -2.26401,0.122894 L -5.31163,-5.09695
 L -4.38603,-6.02254 L 0.097702,-3.35463 L 1.23332,-2.66167 L 0.713593,-3.47978 L -2.12117,-8.2874 L -1.2776,-9.13098
 L 2.43611,-2.43611 L 1.43413,-1.43413 L -3.15567,-4.2081 L -4.14209,-4.84805 L -3.50226,-3.84558 L -2.88025,-2.80901
 L -0.762115,0.762115 L -1.75984,1.75984 z
M -9.004,11.6769 L -8.9713,11.6527 L -8.83936,11.5482 L -8.70554,11.4309 L -8.56982,11.3007 L -8.45418,11.171
 L -8.35651,11.0313 L -8.27687,10.8816 L -8.21523,10.7219 L -8.1716,10.5522 L -8.14598,10.3725 L -8.13835,10.1828
 L -8.14874,9.98306 L -8.17715,9.77333 L -8.22356,9.55357 L -8.28798,9.32382 L -8.37041,9.08405 L -8.47084,8.83429
 L -8.59457,8.54649 L -15.8431,5.43452 L -14.9225,4.51387 L -10.9422,6.29083 L -9.35159,7.06418 L -9.08319,7.2037
 L -9.69342,5.91748 L -11.8649,1.45634 L -10.9535,0.544891 L -7.75523,7.75523 L -7.60847,8.0984 L -7.54182,8.26169
 L -7.47969,8.41946 L -7.42207,8.57172 L -7.36896,8.71844 L -7.32033,8.85965 L -7.2762,8.99532 L -7.23657,9.12549
 L -7.20145,9.25012 L -7.17084,9.36923 L -7.14471,9.48282 L -7.12309,9.5909 L -7.1053,9.69533 L -7.09068,9.79803
 L -7.07921,9.899 L -7.07088,9.99825 L -7.06572,10.0958 L -7.06371,10.1915 L -7.06485,10.2856 L -7.06914,10.3779
 L -7.0766,10.4685 L -7.0872,10.5573 L -7.10095,10.6444 L -7.11787,10.7298 L -7.13794,10.8135 L -7.1613,10.8956
 L -7.18805,10.9765 L -7.21822,11.056 L -7.25179,11.1342 L -7.28876,11.2112 L -7.32913,11.2868 L -7.37292,11.3612
 L -7.42012,11.4342 L -7.47072,11.506 L -7.52473,11.5765 L -7.58214,11.6456 L -7.64294,11.7135 L -7.70717,11.7801
 L -7.81532,11.8857 L -7.972,12.0292 L -8.07271,12.1149 L -8.17046,12.1925 L -8.26521,12.2622 L -8.35699,12.3239
 z
M -15.5179,14.571 L -15.6904,14.5477 L -15.865,14.5103 L -16.0421,14.4595 L -16.2218,14.395 L -16.4042,14.317
 L -16.5891,14.2254 L -16.7765,14.1203 L -16.9666,14.0016 L -17.1592,13.8693 L -17.3544,13.7235 L -17.5522,13.5642
 L -17.7525,13.3913 L -17.9555,13.2048 L -18.161,13.0048 L -18.5516,12.5916 L -18.8873,12.1879 L -19.1682,11.7937
 L -19.3944,11.409 L -19.5657,11.0337 L -19.6823,10.668 L -19.744,10.3118 L -19.7509,9.96509 L -19.7031,9.62785
 L -19.6004,9.30014 L -19.4429,8.9819 L -19.2306,8.67317 L -18.9636,8.37395 L -18.8724,8.28534 L -18.781,8.20163
 L -18.6894,8.12282 L -18.5975,8.0489 L -18.5055,7.97987 L -18.4132,7.91574 L -18.3207,7.85651 L -18.2279,7.80217
 L -18.1349,7.75273 L -18.0417,7.70818 L -17.9483,7.66852 L -17.8547,7.63376 L -17.7608,7.6039 L -17.6663,7.57881
 L -17.5706,7.55853 L -17.4738,7.54311 L -17.3757,7.53252 L -17.2765,7.52676 L -17.1761,7.52585 L -17.0745,7.52975
 L -16.9717,7.53851 L -16.8677,7.55209 L -16.7625,7.57053 L -16.6562,7.59378 L -16.5486,7.62189 L -16.4399,7.65482
 L -16.43,7.64491 L -17.0155,7.07924 L -19.1524,4.94235 L -18.289,4.07898 L -12.1303,10.2373 L -11.7065,10.6528
 L -11.4535,10.8925 L -11.2559,11.0706 L -11.155,11.155 L -11.9802,11.9802 L -12.1082,11.8795 L -12.5834,11.4603
 L -12.869,11.1875 L -12.8881,11.2066 L -12.8509,11.3197 L -12.8189,11.4312 L -12.7921,11.5413 L -12.7705,11.6499
 L -12.7541,11.7569 L -12.7429,11.8625 L -12.7369,11.9667 L -12.7361,12.0693 L -12.7406,12.1704 L -12.7502,12.27
 L -12.765,12.3682 L -12.7851,12.4648 L -12.8103,12.56 L -12.8406,12.6541 L -12.8756,12.7478 L -12.9155,12.8413
 L -12.9601,12.9344 L -13.0096,13.0273 L -13.0639,13.1198 L -13.123,13.2121 L -13.1868,13.304 L -13.2555,13.3957
 L -13.329,13.487 L -13.4073,13.5781 L -13.4904,13.6688 L -13.5782,13.7593 L -13.7307,13.9039 L -13.8849,14.0346
 L -14.0407,14.1512 L -14.1982,14.2539 L -14.3573,14.3425 L -14.5181,14.4172 L -14.6806,14.4778 L -14.8447,14.5244
 L -15.0105,14.5571 L -15.178,14.5757 L -15.3471,14.5804 z
M -14.9774,13.3741 L -14.8664,13.3577 L -14.7567,13.3315 L -14.6483,13.2954 L -14.5412,13.2495 L -14.4354,13.1938
 L -14.3309,13.1282 L -14.2277,13.0528 L -14.1257,12.9676 L -14.0251,12.8726 L -13.9172,12.7586 L -13.82,12.6434
 L -13.7337,12.527 L -13.6581,12.4093 L -13.5934,12.2904 L -13.5395,12.1703 L -13.4963,12.049 L -13.464,11.9264
 L -13.4425,11.8026 L -13.4317,11.6775 L -13.4318,11.5512 L -13.4427,11.4237 L -13.4644,11.295 L -13.4969,11.1642
 L -13.5399,11.0307 L -13.5936,10.8944 L -13.6578,10.7555 L -13.7326,10.6138 L -13.818,10.4695 L -13.9139,10.3224
 L -14.0204,10.1726 L -14.1375,10.0201 L -14.2652,9.86488 L -14.4035,9.70697 L -14.5523,9.54633 L -14.7117,9.383
 L -14.8693,9.22939 L -15.0242,9.08627 L -15.1765,8.95361 L -15.3262,8.83142 L -15.4733,8.7197 L -15.6178,8.61845
 L -15.7598,8.52768 L -15.8991,8.44737 L -16.0358,8.37752 L -16.1699,8.31815 L -16.3014,8.26924 L -16.4303,8.23079
 L -16.5566,8.20282 L -16.6811,8.18527 L -16.8045,8.17805 L -16.927,8.1812 L -17.0485,8.19469 L -17.1689,8.21854
 L -17.2883,8.25273 L -17.4067,8.29727 L -17.5241,8.35219 L -17.6405,8.41743 L -17.7559,8.49303 L -17.8703,8.57899
 L -17.9836,8.67529 L -18.0959,8.78195 L -18.1917,8.88339 L -18.2774,8.98625 L -18.3531,9.09052 L -18.4188,9.1962
 L -18.4744,9.30331 L -18.5201,9.4118 L -18.5557,9.52174 L -18.5813,9.63309 L -18.5969,9.74585 L -18.6025,9.86
 L -18.598,9.9756 L -18.5836,10.0926 L -18.5591,10.211 L -18.5244,10.3319 L -18.4792,10.4564 L -18.4234,10.5846
 L -18.357,10.7165 L -18.28,10.8521 L -18.1925,10.9913 L -18.0944,11.1343 L -17.9857,11.2809 L -17.8664,11.4312
 L -17.7365,11.5852 L -17.5961,11.7429 L -17.4451,11.9043 L -17.2835,12.0693 L -17.1178,12.2316 L -16.956,12.3831
 L -16.7981,12.5239 L -16.6442,12.6539 L -16.4941,12.7733 L -16.348,12.8819 L -16.2057,12.9797 L -16.0674,13.0668
 L -15.933,13.1432 L -15.8025,13.2089 L -15.6759,13.2638 L -15.5532,13.3079 L -15.4344,13.3414 L -15.3182,13.3643
 L -15.2033,13.3774 L -15.0897,13.3807 z
M -25.0049,16.2923 L -25.4358,15.8724 L -25.6747,15.6488 L -25.794,15.5433 L -25.8812,15.4726 L -25.0659,14.6573
 L -24.1332,15.5136 L -24.1191,15.4995 L -24.1535,15.372 L -24.1832,15.2473 L -24.2079,15.1251 L -24.2279,15.0056
 L -24.243,14.8886 L -24.2533,14.7743 L -24.2587,14.6626 L -24.2593,14.5534 L -24.2551,14.4469 L -24.246,14.343
 L -24.2321,14.2418 L -24.2133,14.1431 L -24.1898,14.047 L -24.1613,13.9525 L -24.128,13.8583 L -24.0898,13.7646
 L -24.0467,13.6712 L -23.9987,13.5783 L -23.9458,13.4857 L -23.888,13.3936 L -23.8254,13.3019 L -23.7578,13.2105
 L -23.6854,13.1196 L -23.6081,13.0291 L -23.5259,12.9389 L -23.4388,12.8492 L -23.3073,12.7227 L -23.1761,12.6067
 L -23.0454,12.5011 L -22.9151,12.4061 L -22.7852,12.3215 L -22.6556,12.2473 L -22.5265,12.1837 L -22.3978,12.1306
 L -22.2694,12.0879 L -22.1415,12.0557 L -22.014,12.0339 L -21.8869,12.0227 L -21.7601,12.0219 L -21.6327,12.0318
 L -21.5034,12.0529 L -21.3722,12.0853 L -21.2392,12.129 L -21.1042,12.184 L -20.9675,12.2502 L -20.8288,12.3277
 L -20.6883,12.4165 L -20.5459,12.5166 L -20.4017,12.6279 L -20.2556,12.7505 L -20.1076,12.8844 L -19.9577,13.0295
 L -16.4936,16.4936 L -17.3613,17.3613 L -20.7362,13.9875 L -20.8884,13.8448 L -21.0345,13.7179 L -21.1052,13.6603
 L -21.1744,13.6067 L -21.2421,13.557 L -21.3082,13.5112 L -21.3727,13.4694 L -21.4358,13.4315 L -21.4973,13.3975
 L -21.5572,13.3675 L -21.6162,13.3411 L -21.6747,13.318 L -21.7327,13.2982 L -21.7903,13.2818 L -21.8475,13.2686
 L -21.9042,13.2588 L -21.9604,13.2522 L -22.0162,13.249 L -22.0715,13.2491 L -22.1264,13.2525 L -22.1808,13.2593
 L -22.2348,13.2693 L -22.2884,13.2827 L -22.3421,13.2994 L -22.3969,13.3201 L -22.4527,13.3447 L -22.5094,13.3733
 L -22.567,13.4058 L -22.6257,13.4422 L -22.6853,13.4826 L -22.7459,13.5269 L -22.8074,13.5751 L -22.8699,13.6273
 L -22.9334,13.6833 L -22.9979,13.7434 L -23.0634,13.8073 L -23.1556,13.9047 L -23.2397,14.004 L -23.3156,14.1051
 L -23.3833,14.2083 L -23.4428,14.3133 L -23.494,14.4203 L -23.5371,14.5292 L -23.572,14.64 L -23.5987,14.7527
 L -23.6172,14.8674 L -23.6274,14.984 L -23.6295,15.1025 L -23.6234,15.223 L -23.6091,15.3442 L -23.5865,15.4651
 L -23.5558,15.5856 L -23.5169,15.7058 L -23.4697,15.8256 L -23.4144,15.9451 L -23.3509,16.0642 L -23.2791,16.183
 L -23.1992,16.3014 L -23.1111,16.4194 L -23.0147,16.5372 L -22.9102,16.6545 L -22.7975,16.7715 L -19.7845,19.7845
 L -20.6479,20.6479 z
M -26.0899,25.2835 L -26.2192,25.2621 L -26.3504,25.2295 L -26.4835,25.1857 L -26.6184,25.1306 L -26.7552,25.0642
 L -26.8938,24.9866 L -27.0343,24.8977 L -27.1767,24.7976 L -27.321,24.6862 L -27.4671,24.5636 L -27.615,24.4297
 L -27.7649,24.2845 L -31.229,20.8204 L -30.3614,19.9528 L -26.9864,23.3265 L -26.8342,23.4692 L -26.6881,23.5961
 L -26.6174,23.6537 L -26.5482,23.7073 L -26.4805,23.757 L -26.4144,23.8028 L -26.3499,23.8446 L -26.2868,23.8825
 L -26.2254,23.9165 L -26.1654,23.9465 L -26.1064,23.9729 L -26.0479,23.996 L -25.9899,24.0159 L -25.9323,24.0324
 L -25.8752,24.0456 L -25.8185,24.0556 L -25.7622,24.0622 L -25.7064,24.0655 L -25.6511,24.0656 L -25.5962,24.0623
 L -25.5418,24.0558 L -25.4878,24.0459 L -25.4342,24.0328 L -25.3805,24.0158 L -25.3257,23.9949 L -25.27,23.9701
 L -25.2133,23.9414 L -25.1556,23.9088 L -25.097,23.8722 L -25.0373,23.8318 L -24.9768,23.7874 L -24.9152,23.7391
 L -24.8527,23.6868 L -24.7892,23.6307 L -24.7247,23.5707 L -24.6593,23.5067 L -24.567,23.4093 L -24.4829,23.3101
 L -24.407,23.2089 L -24.3393,23.1058 L -24.2799,23.0007 L -24.2286,22.8938 L -24.1855,22.7849 L -24.1506,22.674
 L -24.1239,22.5613 L -24.1055,22.4466 L -24.0952,22.33 L -24.0931,22.2115 L -24.0992,22.0911 L -24.1136,21.9698
 L -24.1361,21.849 L -24.1668,21.7284 L -24.2057,21.6083 L -24.2529,21.4884 L -24.3082,21.369 L -24.3717,21.2498
 L -24.4435,21.1311 L -24.5234,21.0127 L -24.6115,20.8946 L -24.7079,20.7769 L -24.8124,20.6595 L -24.9251,20.5425
 L -27.9381,17.5295 L -27.0747,16.6662 L -22.7178,21.0218 L -22.2869,21.4417 L -22.0479,21.6652 L -21.9286,21.7708
 L -21.8414,21.8414 L -22.6568,22.6568 L -23.588,21.8019 L -23.6021,21.816 L -23.5678,21.9433 L -23.5383,22.068
 L -23.5136,22.19 L -23.4937,22.3095 L -23.4787,22.4264 L -23.4684,22.5407 L -23.463,22.6523 L -23.4625,22.7614
 L -23.4668,22.8679 L -23.4759,22.9717 L -23.4898,23.073 L -23.5085,23.1716 L -23.5321,23.2677 L -23.5607,23.3621
 L -23.5941,23.4562 L -23.6324,23.5499 L -23.6756,23.6431 L -23.7237,23.736 L -23.7766,23.8285 L -23.8344,23.9205
 L -23.8971,24.0122 L -23.9647,24.1035 L -24.0372,24.1945 L -24.1145,24.285 L -24.1967,24.3751 L -24.2838,24.4648
 L -24.4153,24.5913 L -24.5465,24.7074 L -24.6772,24.813 L -24.8076,24.9081 L -24.9375,24.9928 L -25.067,25.067
 L -25.1961,25.1307 L -25.3249,25.184 L -25.4532,25.2268 L -25.5811,25.2592 L -25.7086,25.2811 L -25.8358,25.2926
 L -25.9625,25.2935 z
M -38.9972,25.5112 L -36.5379,23.0519 L -36.1757,22.7091 L -35.8225,22.4137 L -35.4782,22.1658 L -35.1428,21.9654
 L -34.8163,21.8124 L -34.4988,21.707 L -34.1902,21.649 L -33.8905,21.6385 L -33.5997,21.6754 L -33.3178,21.7599
 L -33.0449,21.8918 L -32.7808,22.0713 L -32.5257,22.2982 L -32.4373,22.3906 L -32.355,22.4848 L -32.279,22.5807
 L -32.2092,22.6784 L -32.1457,22.7778 L -32.0884,22.8789 L -32.0373,22.9818 L -31.9925,23.0864 L -31.9538,23.1927
 L -31.9215,23.3008 L -31.8953,23.4105 L -31.8754,23.522 L -31.8618,23.6353 L -31.8546,23.7494 L -31.8538,23.8636
 L -31.8595,23.978 L -31.8716,24.0925 L -31.8902,24.2071 L -31.9152,24.3219 L -31.9467,24.4368 L -31.9847,24.5519
 L -32.0291,24.6671 L -32.0799,24.7825 L -32.1372,24.898 L -32.201,25.0136 L -32.2712,25.1294 L -32.1323,25.0242
 L -31.9936,24.9276 L -31.8553,24.8394 L -31.7172,24.7598 L -31.5793,24.6886 L -31.4417,24.626 L -31.3044,24.5719
 L -31.1673,24.5262 L -31.0304,24.4891 L -30.8939,24.4606 L -30.7576,24.4405 L -30.6215,24.4289 L -30.4857,24.4259
 L -30.3513,24.4308 L -30.2193,24.4437 L -30.0896,24.4646 L -29.9624,24.4934 L -29.8376,24.5301 L -29.7152,24.5748
 L -29.5952,24.6275 L -29.4776,24.6881 L -29.3624,24.7566 L -29.2497,24.8331 L -29.1393,24.9176 L -29.0314,25.01
 L -28.9259,25.1103 L -28.7932,25.2508 L -28.6731,25.3943 L -28.5655,25.5408 L -28.4704,25.6904 L -28.3878,25.8431
 L -28.3178,25.9988 L -28.2603,26.1576 L -28.2154,26.3194 L -28.1829,26.4843 L -28.163,26.6522 L -28.1556,26.8232
 L -28.1608,26.9973 L -28.1785,27.1744 L -28.2084,27.3529 L -28.2504,27.5315 L -28.3044,27.7103 L -28.3705,27.8892
 L -28.4485,28.0683 L -28.5387,28.2475 L -28.6408,28.4269 L -28.755,28.6064 L -28.8812,28.7861 L -29.0194,28.966
 L -29.1697,29.146 L -29.332,29.3261 L -29.5064,29.5064 L -32.2542,32.2542 z
M -33.6868,25.903 L -33.5774,25.7903 L -33.4756,25.6789 L -33.3815,25.5686 L -33.295,25.4595 L -33.2162,25.3516
 L -33.145,25.2449 L -33.0815,25.1394 L -33.0256,25.035 L -32.9774,24.9319 L -32.9368,24.8299 L -32.9038,24.7292
 L -32.8786,24.6296 L -32.8609,24.5312 L -32.8509,24.4337 L -32.8486,24.3371 L -32.854,24.2413 L -32.8673,24.1463
 L -32.8883,24.0522 L -32.917,23.959 L -32.9535,23.8666 L -32.9977,23.775 L -33.0498,23.6843 L -33.1095,23.5944
 L -33.1771,23.5054 L -33.2523,23.4172 L -33.3354,23.3298 L -33.419,23.2507 L -33.5034,23.1796 L -33.5886,23.1166
 L -33.6746,23.0617 L -33.7614,23.0149 L -33.849,22.9762 L -33.9374,22.9455 L -34.0266,22.923 L -34.1166,22.9086
 L -34.2073,22.9022 L -34.2989,22.904 L -34.3913,22.9138 L -34.4844,22.9317 L -34.5785,22.957 L -34.6738,22.989
 L -34.7703,23.0277 L -34.8681,23.0732 L -34.9671,23.1254 L -35.0674,23.1843 L -35.1689,23.25 L -35.2716,23.3225
 L -35.3756,23.4017 L -35.4808,23.4876 L -35.5873,23.5803 L -35.695,23.6797 L -35.8039,23.7859 L -37.3475,25.3295
 L -35.2304,27.4466 z
M -30.2885,28.8205 L -30.1636,28.6919 L -30.0477,28.565 L -29.9411,28.4398 L -29.8435,28.3163 L -29.755,28.1946
 L -29.6756,28.0745 L -29.6053,27.9561 L -29.5442,27.8395 L -29.4921,27.7246 L -29.4491,27.6113 L -29.4153,27.4998
 L -29.3905,27.39 L -29.3749,27.2818 L -29.3679,27.175 L -29.3691,27.0691 L -29.3785,26.9641 L -29.3961,26.86
 L -29.4219,26.7568 L -29.4559,26.6545 L -29.4981,26.5531 L -29.5485,26.4527 L -29.6071,26.3531 L -29.674,26.2544
 L -29.749,26.1566 L -29.8322,26.0598 L -29.9236,25.9638 L -30.1107,25.7966 L -30.3036,25.6634 L -30.5023,25.5644
 L -30.7066,25.4994 L -30.9168,25.4685 L -31.1326,25.4718 L -31.3542,25.5091 L -31.5816,25.5805 L -31.8146,25.686
 L -32.0535,25.8256 L -32.298,25.9992 L -32.5483,26.207 L -32.8043,26.4489 L -34.5163,28.1608 L -32.0725,30.6045
 z
M -42.8232,42.0493 L -42.9457,42.0341 L -43.0671,42.0105 L -43.1875,41.9787 L -43.3068,41.9386 L -43.4252,41.8902
 L -43.5424,41.8335 L -43.6586,41.7685 L -43.7738,41.6953 L -43.888,41.6138 L -44.0011,41.5239 L -44.1132,41.4258
 L -44.2242,41.3195 L -44.3427,41.1947 L -44.4504,41.0681 L -44.5475,40.9397 L -44.6338,40.8094 L -44.7095,40.6772
 L -44.7744,40.5431 L -44.8286,40.4072 L -44.8721,40.2694 L -44.905,40.1297 L -44.9271,39.9882 L -44.9385,39.8448
 L -44.9392,39.6995 L -44.9292,39.5524 L -44.9075,39.4028 L -44.8734,39.2502 L -44.8268,39.0946 L -44.7676,38.9361
 L -44.696,38.7747 L -44.612,38.6102 L -44.5154,38.4429 L -44.4064,38.2726 L -44.2849,38.0993 L -44.1509,37.9231
 L -44.0045,37.7439 L -43.8455,37.5617 L -43.6741,37.3766 L -42.5244,36.1887 L -42.8086,35.9044 L -42.906,35.8103
 L -43.0023,35.7236 L -43.0975,35.6444 L -43.1915,35.5727 L -43.2846,35.5084 L -43.3765,35.4517 L -43.4673,35.4024
 L -43.5571,35.3606 L -43.6457,35.3263 L -43.7333,35.2994 L -43.8198,35.2801 L -43.9052,35.2682 L -43.9895,35.2638
 L -44.0735,35.2664 L -44.1578,35.2759 L -44.2426,35.2923 L -44.3277,35.3156 L -44.4132,35.3457 L -44.4992,35.3828
 L -44.5855,35.4268 L -44.6722,35.4778 L -44.7593,35.5356 L -44.8468,35.6003 L -44.9347,35.6719 L -45.023,35.7504
 L -45.1117,35.8359 L -45.1984,35.9249 L -45.2789,36.0125 L -45.3534,36.0988 L -45.4217,36.1836 L -45.4838,36.267
 L -45.5399,36.349 L -45.5898,36.4297 L -45.6336,36.5089 L -45.6713,36.5867 L -45.7029,36.663 L -45.7283,36.738
 L -45.7476,36.8116 L -45.7608,36.8838 L -45.7681,36.9553 L -45.7702,37.0271 L -45.7669,37.0993 L -45.7583,37.1718
 L -45.7443,37.2446 L -45.7251,37.3177 L -45.7005,37.3911 L -45.6705,37.4649 L -45.6353,37.5389 L -45.5948,37.6133
 L -45.5489,37.688 L -45.4977,37.763 L -45.4412,37.8384 L -46.4248,38.6579 L -46.5898,38.4053 L -46.7186,38.15
 L -46.8113,37.892 L -46.8678,37.6312 L -46.8882,37.3676 L -46.8724,37.1012 L -46.8205,36.8322 L -46.7324,36.5603
 L -46.6081,36.2857 L -46.4477,36.0084 L -46.2511,35.7283 L -46.0184,35.4455 L -45.7495,35.1599 L -45.5989,35.0146
 L -45.4488,34.8804 L -45.2991,34.7573 L -45.1498,34.6452 L -45.0009,34.5442 L -44.8525,34.4542 L -44.7045,34.3753
 L -44.5569,34.3074 L -44.4098,34.2506 L -44.2631,34.2048 L -44.1167,34.1701 L -43.9709,34.1464 L -43.8255,34.1339
 L -43.6807,34.132 L -43.537,34.1407 L -43.3945,34.1601 L -43.2531,34.19 L -43.1128,34.2306 L -42.9736,34.2818
 L -42.8356,34.3436 L -42.6986,34.416 L -42.5628,34.499 L -42.4281,34.5926 L -42.2946,34.6968 L -42.1621,34.8117
 L -42.0308,34.9371 L -39.7342,37.2326 L -39.62,37.3371 L -39.5101,37.4279 L -39.4567,37.4681 L -39.4044,37.5049
 L -39.3531,37.5382 L -39.3029,37.5681 L -39.2538,37.5945 L -39.2056,37.6175 L -39.1586,37.637 L -39.1126,37.6531
 L -39.0672,37.6652 L -39.0219,37.6729 L -38.9768,37.6761 L -38.9318,37.6749 L -38.887,37.6692 L -38.8423,37.659
 L -38.7977,37.6444 L -38.7534,37.6253 L -38.7091,37.6017 L -38.665,37.5737 L -38.621,37.5412 L -38.5772,37.5043
 L -38.5335,37.4629 L -38.4757,37.4016 L -38.3794,37.2837 L -38.2831,37.1461 L -37.7595,37.6698 L -38.5632,33.2146
 L -42.8638,32.4552 L -41.9092,31.5006 L -38.5794,32.2211 L -39.3092,28.9006 L -38.3454,27.9368 L -37.5952,32.2268
 L -33.0301,33.0301 L -33.9939,33.9939 L -37.5358,33.2648 L -36.8152,36.8152 L -37.7458,37.7458 L -37.7548,37.696
 L -37.7854,37.7446 L -37.8665,37.8658 L -37.952,37.9841 L -38.0417,38.0994 L -38.1358,38.2117 L -38.2342,38.321
 L -38.3369,38.4274 L -38.4107,38.4982 L -38.4844,38.563 L -38.558,38.6216 L -38.6315,38.6742 L -38.7049,38.7207
 L -38.7781,38.7611 L -38.8513,38.7954 L -38.9243,38.8237 L -38.9973,38.8458 L -39.0701,38.8619 L -39.1428,38.8719
 L -39.2154,38.8758 L -39.2879,38.8736 L -39.3611,38.8654 L -39.4353,38.8517 L -39.5107,38.8323 L -39.5873,38.8073
 L -39.665,38.7766 L -39.7438,38.7404 L -39.8237,38.6985 L -39.9048,38.651 L -39.9871,38.5979 L -40.0704,38.5391
 L -40.155,38.4747 L -40.2406,38.4047 L -40.3274,38.3291 L -40.3564,38.3581 L -40.3185,38.4993 L -40.286,38.6377
 L -40.259,38.7732 L -40.2373,38.9059 L -40.2211,39.0358 L -40.2102,39.1629 L -40.2048,39.2871 L -40.2047,39.4085
 L -40.2101,39.5271 L -40.2209,39.6429 L -40.2371,39.7558 L -40.2587,39.8659 L -40.2857,39.9731 L -40.318,40.0784
 L -40.3554,40.1831 L -40.398,40.287 L -40.4458,40.3903 L -40.4988,40.4929 L -40.5569,40.5949 L -40.6203,40.6962
 L -40.6888,40.7968 L -40.7624,40.8967 L -40.8412,40.996 L -40.9252,41.0946 L -41.0144,41.1925 L -41.1087,41.2898
 L -41.2295,41.4057 L -41.3506,41.5121 L -41.4719,41.609 L -41.5935,41.6964 L -41.7153,41.7744 L -41.8374,41.8428
 L -41.9598,41.9018 L -42.0825,41.9513 L -42.2054,41.9912 L -42.3286,42.0217 L -42.452,42.0427 L -42.5757,42.0543
 L -42.6997,42.0563 z
M -42.3719,40.8673 L -42.302,40.8599 L -42.2324,40.8475 L -42.1633,40.83 L -42.0946,40.8075 L -42.0263,40.78
 L -41.9584,40.7475 L -41.8909,40.71 L -41.8239,40.6674 L -41.7572,40.6198 L -41.691,40.5672 L -41.6252,40.5096
 L -41.5599,40.4469 L -41.4885,40.3729 L -41.4208,40.2977 L -41.357,40.2211 L -41.2971,40.1432 L -41.2409,40.0641
 L -41.1885,39.9836 L -41.1399,39.9019 L -41.0952,39.8188 L -41.0542,39.7345 L -41.017,39.6488 L -40.9837,39.5619
 L -40.9542,39.4736 L -40.9284,39.3841 L -40.9064,39.2938 L -40.8881,39.2034 L -40.8735,39.113 L -40.8628,39.0226
 L -40.8557,38.9321 L -40.8525,38.8416 L -40.853,38.7511 L -40.8572,38.6604 L -40.8652,38.5698 L -40.877,38.4791
 L -40.8925,38.3884 L -40.9118,38.2976 L -40.9348,38.2068 L -40.9611,38.1171 L -40.9902,38.0297 L -41.0221,37.9445
 L -41.0567,37.8617 L -41.0942,37.7812 L -41.1344,37.7029 L -41.1774,37.6269 L -41.2233,37.5532 L -41.2719,37.4818
 L -41.3232,37.4126 L -41.3774,37.3458 L -41.4344,37.2812 L -41.4941,37.2189 L -41.9205,36.7926 L -42.9398,37.8544
 L -43.106,38.0366 L -43.1819,38.1243 L -43.2531,38.2098 L -43.3195,38.293 L -43.3812,38.3739 L -43.4382,38.4526
 L -43.4903,38.529 L -43.5378,38.6031 L -43.5804,38.675 L -43.6183,38.7447 L -43.6515,38.8121 L -43.6808,38.8781
 L -43.7068,38.9438 L -43.7297,39.0094 L -43.7494,39.0746 L -43.7658,39.1396 L -43.779,39.2044 L -43.789,39.2689
 L -43.7958,39.3332 L -43.7994,39.3972 L -43.7998,39.4609 L -43.7969,39.5244 L -43.7909,39.5877 L -43.7816,39.6507
 L -43.7688,39.7132 L -43.7523,39.7756 L -43.7321,39.8377 L -43.708,39.8995 L -43.6803,39.9612 L -43.6487,40.0226
 L -43.6134,40.0838 L -43.5743,40.1447 L -43.5315,40.2055 L -43.485,40.266 L -43.4346,40.3263 L -43.3805,40.3864
 L -43.3227,40.4462 L -43.2575,40.5087 L -43.1919,40.5661 L -43.1259,40.6186 L -43.0595,40.6661 L -42.9926,40.7087
 L -42.9253,40.7462 L -42.8576,40.7788 L -42.7895,40.8064 L -42.7209,40.8291 L -42.6519,40.8467 L -42.5825,40.8594
 L -42.5126,40.8671 L -42.4424,40.8697 z
M -57.1161,43.6302 L -55.9126,42.4267 L -49.4369,45.299 L -49.3197,45.3573 L -48.8972,45.5798 L -48.3659,45.8816
 L -48.063,46.0676 L -48.1399,45.9465 L -48.295,45.6779 L -48.4837,45.3258 L -48.7525,44.7929 L -51.7138,38.2279
 L -50.5386,37.0527 L -43.7956,43.7956 L -44.6208,44.6208 L -49.2323,40.0088 L -49.568,39.6655 L -49.8928,39.3238
 L -50.207,38.9836 L -50.5103,38.6451 L -50.4167,38.8105 L -50.159,39.2771 L -50.0064,39.5632 L -49.8691,39.8295
 L -49.7472,40.0758 L -49.6407,40.3022 L -46.7485,46.7485 L -47.392,47.392 L -53.7566,44.5713 L -54.8392,44.0262
 L -55.5237,43.6584 L -54.9785,44.1754 L -54.055,45.0607 L -49.5578,49.5578 L -50.3731,50.3731 z
M -56.9816,59.6545 L -56.9489,59.6303 L -56.817,59.5258 L -56.6831,59.4085 L -56.5474,59.2783 L -56.4318,59.1486
 L -56.3341,59.0089 L -56.2545,58.8592 L -56.1928,58.6995 L -56.1492,58.5298 L -56.1236,58.3501 L -56.116,58.1604
 L -56.1264,57.9607 L -56.1548,57.7509 L -56.2012,57.5312 L -56.2656,57.3014 L -56.348,57.0617 L -56.4485,56.8119
 L -56.5722,56.5241 L -63.8207,53.4121 L -62.9001,52.4915 L -58.9198,54.2684 L -57.3292,55.0418 L -57.0608,55.1813
 L -57.671,53.8951 L -59.8425,49.434 L -58.9311,48.5225 L -55.7328,55.7328 L -55.5861,56.076 L -55.5194,56.2393
 L -55.4573,56.3971 L -55.3997,56.5493 L -55.3466,56.6961 L -55.2979,56.8373 L -55.2538,56.9729 L -55.2142,57.1031
 L -55.179,57.2277 L -55.1484,57.3468 L -55.1223,57.4604 L -55.1007,57.5685 L -55.0829,57.6729 L -55.0683,57.7756
 L -55.0568,57.8766 L -55.0485,57.9759 L -55.0433,58.0734 L -55.0413,58.1691 L -55.0424,58.2632 L -55.0468,58.3555
 L -55.0542,58.4461 L -55.0648,58.5349 L -55.0786,58.622 L -55.0955,58.7074 L -55.1156,58.7911 L -55.1389,58.8732
 L -55.1657,58.9541 L -55.1958,59.0336 L -55.2294,59.1119 L -55.2664,59.1888 L -55.3067,59.2645 L -55.3505,59.3388
 L -55.3977,59.4119 L -55.4483,59.4836 L -55.5023,59.5541 L -55.5597,59.6232 L -55.6206,59.6911 L -55.6848,59.7577
 L -55.7929,59.8634 L -55.9496,60.0069 L -56.0503,60.0925 L -56.1481,60.1702 L -56.2428,60.2398 L -56.3346,60.3015
 z
M -63.4243,63.239 L -63.5361,63.1135 L -63.7553,62.8789 L -64.1434,62.4797 L -70.4159,56.2059 L -69.5532,55.3432
 L -67.5401,57.3564 L -67.2886,57.6135 L -66.8309,58.1038 L -66.8118,58.0847 L -66.849,57.9716 L -66.881,57.8601
 L -66.9078,57.7501 L -66.9294,57.6416 L -66.9458,57.5345 L -66.957,57.429 L -66.963,57.325 L -66.9637,57.2225
 L -66.9593,57.1216 L -66.9497,57.0221 L -66.9348,56.9241 L -66.9148,56.8277 L -66.8896,56.7327 L -66.8593,56.6384
 L -66.8242,56.5445 L -66.7844,56.4508 L -66.7397,56.3575 L -66.6903,56.2645 L -66.636,56.1718 L -66.5769,56.0795
 L -66.5131,55.9875 L -66.4444,55.8957 L -66.3709,55.8043 L -66.2926,55.7132 L -66.2095,55.6225 L -66.1216,55.532
 L -65.9691,55.3873 L -65.8148,55.2565 L -65.6589,55.1399 L -65.5014,55.0372 L -65.3421,54.9485 L -65.1813,54.8739
 L -65.0188,54.8133 L -64.8546,54.7668 L -64.6887,54.7342 L -64.5212,54.7157 L -64.3521,54.7112 L -64.1813,54.7207
 L -64.0088,54.7443 L -63.8342,54.7814 L -63.6571,54.8321 L -63.4773,54.8964 L -63.295,54.9743 L -63.1101,55.0657
 L -62.9226,55.1707 L -62.7326,55.2893 L -62.54,55.4214 L -62.3448,55.5672 L -62.147,55.7265 L -61.9466,55.8993
 L -61.7437,56.0858 L -61.5382,56.2858 L -61.1476,56.699 L -60.8119,57.1027 L -60.531,57.4969 L -60.3048,57.8817
 L -60.1335,58.2569 L -60.017,58.6227 L -59.9554,58.979 L -59.9485,59.3258 L -59.9964,59.6631 L -60.0992,59.9909
 L -60.2568,60.3092 L -60.4691,60.618 L -60.7363,60.9173 L -60.8275,61.0059 L -60.9188,61.0897 L -61.0102,61.1685
 L -61.1019,61.2424 L -61.1937,61.3115 L -61.2857,61.3757 L -61.3778,61.435 L -61.4701,61.4894 L -61.5626,61.5389
 L -61.6552,61.5835 L -61.748,61.6233 L -61.841,61.6581 L -61.9342,61.6881 L -62.028,61.7131 L -62.1231,61.7333
 L -62.2197,61.7486 L -62.3176,61.7591 L -62.4168,61.7648 L -62.5174,61.7657 L -62.6194,61.7617 L -62.7228,61.7529
 L -62.8275,61.7393 L -62.9336,61.7208 L -63.041,61.6975 L -63.1498,61.6694 L -63.26,61.6365 L -63.2699,61.6464
 L -63.1646,61.7553 L -62.7126,62.2584 L -62.5055,62.5055 L -63.3399,63.3399 z
M -62.7835,61.1124 L -62.6614,61.0998 L -62.5402,61.0766 L -62.42,61.0429 L -62.3006,60.9985 L -62.1822,60.9435
 L -62.0647,60.8779 L -61.9481,60.8017 L -61.8325,60.7148 L -61.7177,60.6174 L -61.6039,60.5094 L -61.5081,60.4078
 L -61.4223,60.3049 L -61.3465,60.2005 L -61.2807,60.0948 L -61.2249,59.9877 L -61.1792,59.8791 L -61.1434,59.7692
 L -61.1177,59.6579 L -61.102,59.5452 L -61.0963,59.431 L -61.1006,59.3155 L -61.115,59.1986 L -61.1394,59.0803
 L -61.1741,58.9593 L -61.2195,58.8347 L -61.2754,58.7064 L -61.3418,58.5744 L -61.4189,58.4388 L -61.5065,58.2994
 L -61.6047,58.1564 L -61.7134,58.0098 L -61.8327,57.8594 L -61.9626,57.7054 L -62.1031,57.5477 L -62.2541,57.3863
 L -62.4157,57.2213 L -62.5814,57.059 L -62.7432,56.9075 L -62.901,56.7668 L -63.055,56.6368 L -63.205,56.5175
 L -63.3512,56.409 L -63.4934,56.3113 L -63.6317,56.2243 L -63.7662,56.148 L -63.8967,56.0826 L -64.0233,56.0278
 L -64.146,55.9839 L -64.2648,55.9506 L -64.381,55.9275 L -64.4959,55.9142 L -64.6095,55.9108 L -64.7218,55.9172
 L -64.8329,55.9335 L -64.9426,55.9597 L -65.0511,55.9957 L -65.1582,56.0415 L -65.2641,56.0973 L -65.3687,56.1628
 L -65.472,56.2383 L -65.574,56.3236 L -65.6747,56.4187 L -65.782,56.5319 L -65.8787,56.6463 L -65.9648,56.762
 L -66.0403,56.8788 L -66.1052,56.9969 L -66.1595,57.1161 L -66.2031,57.2366 L -66.2362,57.3583 L -66.2587,57.4812
 L -66.2706,57.6053 L -66.2718,57.7307 L -66.2625,57.8572 L -66.2426,57.985 L -66.2118,58.1147 L -66.1701,58.2475
 L -66.1175,58.3831 L -66.054,58.5218 L -65.9796,58.6635 L -65.8944,58.8081 L -65.7982,58.9558 L -65.6911,59.1064
 L -65.5732,59.2599 L -65.4443,59.4165 L -65.3046,59.576 L -65.1539,59.7386 L -64.9924,59.9041 L -64.8363,60.0563
 L -64.6827,60.1983 L -64.5315,60.33 L -64.3829,60.4516 L -64.2366,60.563 L -64.0928,60.6641 L -63.9515,60.7551
 L -63.8127,60.8358 L -63.6763,60.9063 L -63.5424,60.9666 L -63.4109,61.0168 L -63.2819,61.0567 L -63.1553,61.0863
 L -63.0305,61.1056 L -62.9065,61.1143 z
M -105.126,106.996 L -105.251,106.984 L -105.375,106.965 L -105.497,106.937 L -105.618,106.902 L -105.736,106.86
 L -105.852,106.81 L -105.964,106.753 L -106.072,106.689 L -106.176,106.618 L -106.275,106.541 L -106.369,106.458
 L -106.458,106.369 L -106.541,106.275 L -106.618,106.176 L -106.689,106.072 L -106.753,105.964 L -106.81,105.852
 L -106.86,105.736 L -106.902,105.618 L -106.937,105.497 L -106.965,105.375 L -106.984,105.251 L -106.996,105.126
 L -107,105 L -106.996,104.874 L -106.984,104.749 L -106.965,104.625 L -106.937,104.503 L -106.902,104.382
 L -106.86,104.264 L -106.81,104.148 L -106.753,104.036 L -106.689,103.928 L -106.618,103.824 L -106.541,103.725
 L -106.458,103.631 L -106.369,103.542 L -106.275,103.459 L -106.176,103.382 L -106.072,103.311 L -105.964,103.247
 L -105.852,103.19 L -105.736,103.14 L -105.618,103.098 L -105.497,103.063 L -105.375,103.035 L -105.251,103.016
 L -105.126,103.004 L -105,103 L -104.874,103.004 L -104.749,103.016 L -104.625,103.035 L -104.503,103.063
 L -104.382,103.098 L -104.264,103.14 L -104.148,103.19 L -104.036,103.247 L -103.928,103.311 L -103.824,103.382
 L -103.725,103.459 L -103.631,103.542 L -103.542,103.631 L -103.459,103.725 L -103.382,103.824 L -103.311,103.928
 L -103.247,104.036 L -103.19,104.148 L -103.14,104.264 L -103.098,104.382 L -103.063,104.503 L -103.035,104.625
 L -103.016,104.749 L -103.004,104.874 L -103,105 L -103.004,105.126 L -103.016,105.251 L -103.035,105.375
 L -103.063,105.497 L -103.098,105.618 L -103.14,105.736 L -103.19,105.852 L -103.247,105.964 L -103.311,106.072
 L -103.382,106.176 L -103.459,106.275 L -103.542,106.369 L -103.631,106.458 L -103.725,106.541 L -103.824,106.618
 L -103.928,106.689 L -104.036,106.753 L -104.148,106.81 L -104.264,106.86 L -104.382,106.902 L -104.503,106.937
 L -104.625,106.965 L -104.749,106.984 L -104.874,106.996 L -105,107 z
M 104.874,106.996 L 104.749,106.984 L 104.625,106.965 L 104.503,106.937 L 104.382,106.902 L 104.264,106.86
 L 104.148,106.81 L 104.036,106.753 L 103.928,106.689 L 103.824,106.618 L 103.725,106.541 L 103.631,106.458
 L 103.542,106.369 L 103.459,106.275 L 103.382,106.176 L 103.311,106.072 L 103.247,105.964 L 103.19,105.852
 L 103.14,105.736 L 103.098,105.618 L 103.063,105.497 L 103.035,105.375 L 103.016,105.251 L 103.004,105.126
 L 103,105 L 103.004,104.874 L 103.016,104.749 L 103.035,104.625 L 103.063,104.503 L 103.098,104.382
 L 103.14,104.264 L 103.19,104.148 L 103.247,104.036 L 103.311,103.928 L 103.382,103.824 L 103.459,103.725
 L 103.542,103.631 L 103.631,103.542 L 103.725,103.459 L 103.824,103.382 L 103.928,103.311 L 104.036,103.247
 L 104.148,103.19 L 104.264,103.14 L 104.382,103.098 L 104.503,103.063 L 104.625,103.035 L 104.749,103.016
 L 104.874,103.004 L 105,103 L 105.126,103.004 L 105.251,103.016 L 105.375,103.035 L 105.497,103.063
 L 105.618,103.098 L 105.736,103.14 L 105.852,103.19 L 105.964,103.247 L 106.072,103.311 L 106.176,103.382
 L 106.275,103.459 L 106.369,103.542 L 106.458,103.631 L 106.541,103.725 L 106.618,103.824 L 106.689,103.928
 L 106.753,104.036 L 106.81,104.148 L 106.86,104.264 L 106.902,104.382 L 106.937,104.503 L 106.965,104.625
 L 106.984,104.749 L 106.996,104.874 L 107,105 L 106.996,105.126 L 106.984,105.251 L 106.965,105.375
 L 106.937,105.497 L 106.902,105.618 L 106.86,105.736 L 106.81,105.852 L 106.753,105.964 L 106.689,106.072
 L 106.618,106.176 L 106.541,106.275 L 106.458,106.369 L 106.369,106.458 L 106.275,106.541 L 106.176,106.618
 L 106.072,106.689 L 105.964,106.753 L 105.852,106.81 L 105.736,106.86 L 105.618,106.902 L 105.497,106.937
 L 105.375,106.965 L 105.251,106.984 L 105.126,106.996 L 105,107 z
" stroke="black" fill="lightgray" stroke-width="0.5"/>
</svg>
